<?xml version="1.0" standalone="no"?>
<!DOCTYPE svg PUBLIC "-//W3C//DTD SVG 20010904//EN"
 "http://www.w3.org/TR/2001/REC-SVG-20010904/DTD/svg10.dtd">
<svg version="1.0" xmlns="http://www.w3.org/2000/svg"
 width="512.000000pt" height="512.000000pt" viewBox="0 0 512.000000 512.000000"
 preserveAspectRatio="xMidYMid meet">

<g transform="translate(512.000000,512.000000) scale(0.100000,-0.100000)"
fill="#01fff4" stroke="none">
<path d="M2342 4460 c-46 -5 -125 -20 -175 -34 -63 -17 -130 -26 -212 -30
-304 -14 -554 -99 -747 -255 -46 -38 -95 -72 -109 -76 -48 -15 -185 -88 -244
-130 -75 -54 -162 -143 -212 -216 -21 -31 -63 -85 -94 -120 -182 -206 -302
-447 -329 -662 -17 -141 11 -341 76 -537 85 -256 214 -415 419 -516 125 -61
196 -78 338 -79 l117 0 0 -45 c0 -138 119 -381 242 -496 113 -106 219 -138
458 -139 184 0 235 9 448 76 68 21 142 39 166 39 39 0 48 -5 92 -52 27 -29
110 -127 183 -217 218 -267 272 -314 360 -314 37 0 49 5 74 33 29 33 30 35 24
114 -3 45 -13 102 -21 129 -17 56 -35 52 168 36 228 -17 450 9 574 68 115 54
211 186 249 343 l17 69 55 6 c203 24 397 111 485 219 107 129 159 336 159 626
-1 188 -18 324 -64 487 -33 121 -127 321 -186 398 -22 28 -65 104 -97 170
-140 293 -355 540 -588 676 -83 48 -305 145 -502 218 -426 159 -851 238 -1124
211z m388 -66 c292 -42 647 -150 1011 -309 199 -86 310 -157 433 -275 140
-135 244 -283 348 -495 30 -60 75 -139 100 -175 98 -139 172 -328 209 -536 31
-167 31 -445 1 -589 -39 -190 -91 -294 -185 -364 -52 -39 -146 -91 -165 -91
-15 0 -62 99 -62 129 1 47 40 115 103 178 34 35 67 63 74 63 20 0 61 -63 65
-100 2 -27 7 -35 23 -35 16 0 21 8 23 41 3 34 -3 49 -33 88 l-36 47 25 30 c46
55 47 145 3 243 l-26 56 24 53 c13 28 29 83 36 121 15 88 7 251 -14 292 -24
46 -76 92 -126 111 -27 10 -65 37 -91 64 -64 66 -170 102 -170 56 0 -7 24 -23
53 -35 71 -30 105 -66 116 -126 10 -55 -1 -174 -24 -254 -17 -56 -11 -80 18
-69 21 8 49 122 55 225 5 102 10 107 66 73 60 -38 71 -71 71 -216 0 -147 -16
-213 -67 -270 -31 -36 -102 -63 -180 -68 -35 -2 -43 -7 -43 -23 0 -15 8 -20
44 -22 36 -3 130 20 187 44 18 8 54 -89 54 -148 0 -52 -1 -53 -67 -116 l-68
-64 -8 67 c-12 110 -57 189 -90 156 -8 -8 -4 -22 14 -53 21 -37 24 -55 24
-133 -1 -84 -3 -93 -33 -140 -59 -91 -64 -158 -17 -242 l23 -43 -41 -11 c-39
-10 -147 -28 -174 -29 -7 0 -24 23 -39 52 -14 28 -48 73 -76 100 -49 48 -190
138 -215 138 -27 0 -11 17 40 42 66 32 147 104 147 129 0 30 -29 23 -75 -20
-44 -41 -100 -73 -165 -96 -35 -12 -46 -11 -159 26 -184 58 -293 71 -590 67
-220 -3 -250 -1 -245 12 16 38 25 83 20 97 -11 29 -38 7 -55 -45 -10 -29 -22
-57 -27 -62 -9 -9 -308 -40 -388 -40 -84 0 -143 66 -118 133 10 25 9 34 -2 45
-18 19 -43 -7 -52 -53 -8 -46 0 -77 31 -113 l26 -30 -57 -7 c-55 -7 -78 -25
-57 -46 6 -6 74 -2 184 11 331 38 588 52 854 47 242 -4 254 -5 370 -36 293
-78 511 -201 568 -323 21 -44 21 -77 2 -151 -34 -131 -120 -249 -215 -294
-141 -68 -397 -87 -699 -52 -48 6 -88 6 -93 1 -5 -5 2 -49 17 -103 14 -52 25
-118 25 -146 0 -45 -4 -55 -25 -69 -60 -40 -125 16 -371 316 -84 102 -168 201
-188 220 -35 33 -41 35 -104 35 -52 0 -101 -11 -220 -49 -91 -28 -163 -46
-176 -42 -42 10 -114 85 -147 152 -31 62 -54 80 -65 49 -10 -24 42 -121 92
-175 l47 -50 -124 0 c-148 0 -284 25 -360 66 -81 44 -170 148 -228 267 -68
138 -85 201 -78 296 2 42 10 90 17 106 11 27 13 28 20 10 12 -31 81 -118 120
-152 55 -47 124 -89 193 -113 34 -13 63 -24 65 -25 1 -1 -7 -22 -18 -46 -21
-48 -27 -128 -9 -146 23 -23 39 -2 39 49 0 43 10 75 38 116 7 10 28 9 108 -3
73 -11 415 -28 507 -25 4 0 1 -13 -8 -30 -27 -52 -18 -130 16 -130 15 0 18 7
17 43 0 25 8 60 20 83 l20 40 394 22 c460 26 624 28 808 7 345 -40 478 -109
399 -208 -41 -53 -87 -59 -524 -67 -241 -5 -417 -12 -443 -19 -72 -19 -122
-49 -122 -72 0 -25 10 -23 105 12 57 22 79 23 455 30 480 8 529 17 580 102 45
73 14 145 -83 190 -192 90 -605 114 -1227 72 -321 -21 -767 -25 -885 -7 -131
20 -205 42 -293 84 -189 92 -293 268 -261 442 15 82 41 129 115 208 72 77 91
124 76 193 l-9 43 41 -19 c56 -25 145 -25 195 1 58 29 108 93 122 156 l12 53
44 -31 c65 -44 147 -70 243 -75 145 -9 225 29 266 125 1 2 19 -7 40 -20 29
-17 54 -23 99 -23 73 0 128 29 198 104 l47 50 48 -30 c58 -36 129 -46 211 -30
54 11 64 10 99 -8 38 -20 110 -90 131 -130 15 -27 51 -28 51 -2 0 31 -95 142
-144 168 -16 9 -11 14 38 42 31 17 105 65 165 105 84 57 122 77 167 86 116 24
231 -6 394 -104 81 -48 88 -51 159 -52 71 -1 75 -2 89 -30 9 -16 18 -60 21
-99 5 -61 8 -70 26 -70 18 0 20 6 19 75 0 56 -6 85 -22 117 -19 37 -20 42 -6
54 57 47 81 206 49 328 -42 163 -148 303 -332 438 -28 21 -89 66 -134 101
-105 81 -257 155 -384 188 -190 49 -474 43 -650 -15 l-53 -18 -6 45 c-9 68
-41 111 -104 140 -49 22 -64 24 -151 20 -75 -4 -109 -10 -152 -30 -58 -27
-111 -73 -135 -119 l-14 -29 -38 23 c-143 91 -344 100 -502 25 -62 -30 -161
-131 -194 -199 l-27 -56 -57 -6 c-110 -10 -263 -103 -327 -200 -59 -89 -95
-220 -95 -347 0 -61 11 -86 32 -77 11 4 16 32 21 109 10 176 58 287 159 368
78 62 148 92 229 98 l69 5 32 66 c38 79 122 167 191 199 146 68 327 51 469
-44 53 -36 78 -38 78 -6 0 10 13 39 29 64 42 67 116 101 231 106 152 7 210
-38 210 -162 0 -64 2 -65 77 -36 158 60 429 78 608 41 169 -35 333 -114 476
-229 35 -28 99 -79 141 -112 173 -137 268 -305 268 -476 0 -64 -24 -163 -36
-151 -2 2 -9 30 -15 63 -23 122 -97 238 -185 290 -45 26 -78 26 -72 0 2 -8 25
-29 53 -48 91 -61 150 -168 162 -295 l6 -63 -54 0 c-44 0 -65 7 -114 36 -103
63 -190 103 -256 119 -145 34 -229 12 -400 -105 -65 -44 -151 -96 -192 -115
-136 -65 -264 -57 -323 21 -15 19 -32 34 -40 34 -7 0 -22 -17 -33 -39 -26 -51
-113 -128 -161 -142 -54 -16 -105 -4 -149 37 -51 45 -68 44 -76 -6 -15 -90
-84 -126 -223 -117 -165 9 -274 77 -306 190 -13 46 -21 57 -37 57 -19 0 -20
-4 -15 -42 23 -162 17 -218 -33 -271 -38 -41 -73 -57 -129 -57 -70 0 -138 38
-226 127 -51 53 -79 74 -90 70 -27 -11 -18 -30 49 -107 48 -54 70 -88 81 -127
22 -77 12 -106 -62 -183 -36 -38 -74 -89 -89 -121 -24 -54 -27 -57 -88 -77
-196 -64 -392 -14 -564 143 -39 36 -76 65 -81 65 -24 0 -19 -32 10 -66 73 -82
208 -166 323 -199 82 -24 221 -22 303 3 l62 20 1 -82 c1 -44 0 -85 -2 -91 -1
-5 -12 -38 -23 -72 l-21 -62 -63 -6 c-267 -30 -548 122 -687 369 -107 192
-181 529 -155 715 28 205 144 432 324 637 33 37 76 92 96 123 76 117 224 231
394 305 41 18 99 53 128 78 116 99 238 162 412 212 103 30 285 56 393 56 52 0
100 8 157 25 147 46 323 52 556 19z"/>
<path d="M2780 3889 c-154 -30 -286 -157 -364 -352 -55 -137 -94 -355 -67
-371 20 -13 41 15 41 53 0 78 49 254 99 356 84 172 196 259 348 272 57 5 72 3
86 -12 21 -20 21 -19 -43 -185 -68 -175 -83 -233 -84 -325 -1 -120 34 -219 66
-187 8 8 7 24 -3 59 -30 107 -10 249 58 413 20 47 44 110 53 140 16 51 21 56
59 67 80 23 222 34 299 23 160 -22 258 -79 348 -202 23 -30 40 -45 49 -41 22
8 18 30 -15 78 -66 95 -197 181 -319 206 -70 14 -299 6 -361 -13 -42 -13 -47
-13 -79 9 -36 25 -87 28 -171 12z"/>
<path d="M2057 3799 c-82 -87 -137 -210 -137 -306 l0 -32 -36 24 c-44 30 -90
39 -156 32 l-49 -6 -16 37 c-22 52 -13 143 21 209 31 63 33 83 5 83 -15 0 -28
-16 -51 -66 -40 -85 -48 -174 -23 -241 14 -36 15 -48 6 -51 -7 -2 -45 -30 -84
-62 l-72 -58 -35 18 c-19 10 -43 26 -52 37 -25 28 -68 125 -76 175 -6 34 -12
44 -30 46 -19 3 -22 -1 -22 -28 0 -45 37 -147 72 -197 26 -38 70 -75 102 -86
4 -1 -21 -42 -55 -89 l-64 -86 -84 -1 c-99 -1 -202 -17 -227 -36 -15 -10 -16
-16 -6 -28 11 -12 21 -13 75 -1 34 7 103 13 153 14 121 0 204 -25 268 -81 45
-40 76 -46 76 -15 0 23 -87 93 -138 112 -26 10 -51 20 -55 24 -11 10 76 123
155 201 154 153 306 170 401 45 34 -44 89 -155 112 -223 18 -57 31 -71 48 -54
16 16 -5 87 -61 205 -44 93 -47 105 -47 180 0 70 4 90 31 146 17 36 55 91 84
123 49 54 52 59 36 75 -15 15 -20 13 -69 -39z"/>
<path d="M3226 3605 c-23 -23 -21 -102 3 -142 l20 -32 -50 -10 c-61 -13 -117
-41 -145 -73 -37 -40 -76 -109 -70 -124 9 -23 35 -16 50 15 42 81 112 129 200
138 41 4 69 -1 141 -27 128 -46 227 -47 310 -5 32 17 67 42 79 58 18 25 19 29
4 43 -15 15 -18 15 -35 -6 -10 -12 -38 -34 -63 -48 -39 -24 -55 -27 -125 -26
-102 1 -180 30 -242 90 -44 42 -46 44 -41 94 6 58 -9 81 -36 55z"/>
<path d="M723 3467 c-109 -116 -133 -228 -78 -369 5 -12 1 -20 -11 -25 -44
-15 -108 -68 -134 -110 -36 -57 -57 -138 -40 -158 18 -22 37 -7 44 37 13 79
62 145 137 183 28 15 29 14 54 -22 20 -30 25 -50 25 -95 0 -50 3 -58 19 -58
44 0 44 106 0 175 -102 161 -96 285 20 408 28 30 51 61 51 70 0 32 -37 17 -87
-36z"/>
<path d="M943 2969 c-8 -8 -6 -24 5 -57 9 -30 15 -89 16 -162 1 -108 -1 -118
-26 -161 -15 -26 -34 -49 -43 -53 -22 -8 -19 -46 4 -46 26 0 70 47 95 100 29
62 29 248 0 329 -20 57 -32 69 -51 50z"/>
<path d="M3844 2912 c-6 -4 -22 -34 -36 -68 -94 -234 -361 -473 -603 -540 -92
-25 -323 -30 -440 -9 -89 16 -94 18 -100 44 -12 56 34 182 79 221 20 16 20 36
0 44 -21 8 -71 -45 -100 -109 -18 -37 -24 -68 -24 -117 l0 -68 -37 -19 c-72
-36 -147 -52 -270 -58 l-121 -6 -16 53 c-22 72 -20 128 4 173 22 41 19 57 -9
57 -42 0 -71 -119 -52 -210 6 -29 10 -54 9 -55 -2 -2 -51 -8 -110 -14 l-107
-12 -43 47 c-47 51 -133 105 -154 97 -27 -10 -13 -33 39 -66 28 -19 65 -48 80
-64 l28 -30 -46 -17 c-111 -43 -197 -154 -212 -274 -5 -48 -4 -52 15 -52 15 0
23 8 28 28 18 78 26 101 53 143 32 51 67 79 133 108 83 35 157 44 383 46 199
2 227 4 290 25 39 12 86 30 106 41 33 17 40 17 95 3 96 -25 354 -30 455 -9
176 35 324 120 474 270 102 101 173 202 217 307 25 59 28 73 16 84 -7 7 -18
10 -24 6z"/>
<path d="M4154 2663 c-3 -10 -17 -48 -31 -86 -71 -190 -255 -372 -455 -448
-42 -16 -58 -27 -58 -40 0 -65 254 67 385 200 33 34 65 61 72 61 7 0 31 -18
52 -39 70 -70 87 -178 52 -323 -14 -62 -16 -80 -6 -88 56 -46 95 254 48 361
-21 46 -73 107 -106 126 -17 9 -16 14 17 74 38 69 76 170 76 201 0 24 -39 24
-46 1z"/>
<path d="M3062 1500 c-154 -15 -282 -53 -282 -85 0 -24 13 -24 97 0 191 56
492 54 842 -5 116 -20 131 -19 131 5 0 21 -11 25 -132 45 -230 39 -497 55
-656 40z"/>
<path d="M3307 1179 c-107 -9 -117 -12 -117 -40 0 -21 3 -21 63 -14 34 5 161
11 282 14 211 6 220 7 220 26 0 19 -7 20 -180 21 -99 1 -220 -2 -268 -7z"/>
</g>
</svg>
