<?xml version="1.0" standalone="no"?>
<!DOCTYPE svg PUBLIC "-//W3C//DTD SVG 20010904//EN"
 "http://www.w3.org/TR/2001/REC-SVG-20010904/DTD/svg10.dtd">
<svg version="1.0" xmlns="http://www.w3.org/2000/svg"
 width="300.000000pt" height="240.000000pt" viewBox="0 0 300.000000 240.000000"
 preserveAspectRatio="xMidYMid meet">
<metadata>
Created by potrace 1.10, written by Peter Selinger 2001-2011
</metadata>
<g transform="translate(0.000000,240.000000) scale(0.100000,-0.100000)"
fill="#ffffff" stroke="none">
<path d="M1290 2320 c-47 -10 -121 -21 -165 -24 -174 -15 -304 -59 -412 -139
-34 -26 -98 -64 -141 -86 -94 -47 -164 -113 -275 -256 -155 -201 -208 -362
-177 -541 52 -303 204 -479 436 -505 44 -5 86 -6 95 -4 12 4 18 -8 27 -57 23
-123 116 -264 204 -309 46 -23 196 -42 273 -34 72 8 101 14 188 41 43 13 91
24 106 24 31 0 30 1 174 -172 110 -133 151 -168 194 -168 48 0 66 29 61 97 -3
32 -8 66 -13 75 -6 16 3 17 113 11 132 -7 250 7 317 36 55 25 118 97 144 165
11 31 21 63 21 70 0 9 18 15 53 19 108 11 233 76 281 145 62 90 92 264 76 442
-15 169 -52 281 -147 442 -32 54 -80 137 -108 185 -61 105 -194 245 -280 294
-175 100 -486 209 -711 249 -114 20 -242 20 -334 0z m330 -35 c183 -29 425
-109 626 -205 162 -78 300 -222 397 -415 19 -38 55 -103 80 -143 102 -165 144
-431 101 -639 -27 -133 -69 -194 -165 -243 l-40 -21 -14 35 c-8 20 -15 41 -15
49 0 17 51 97 78 121 26 23 47 10 57 -35 4 -16 13 -29 21 -29 21 0 17 54 -6
75 -24 22 -25 32 -5 51 19 19 20 94 1 138 -12 30 -12 40 6 92 16 46 19 77 16
137 -5 84 -21 113 -83 144 -16 9 -47 31 -68 49 -21 20 -48 34 -62 34 -37 0
-31 -17 15 -40 54 -27 67 -71 50 -168 -14 -85 -14 -86 -2 -90 14 -4 31 50 38
124 4 35 10 64 15 64 4 0 20 -10 35 -23 25 -22 26 -27 26 -114 -1 -140 -24
-178 -120 -192 -25 -3 -47 -11 -49 -17 -7 -21 30 -25 85 -9 65 19 73 14 79
-52 4 -45 3 -50 -36 -88 l-41 -39 0 39 c0 45 -36 113 -51 98 -6 -6 -4 -23 6
-46 22 -52 19 -95 -10 -149 -29 -54 -32 -96 -10 -138 17 -33 16 -34 -67 -45
-44 -7 -47 -6 -62 22 -20 40 -87 99 -141 125 l-44 21 51 31 c53 32 78 60 65
72 -4 4 -20 -2 -35 -14 -15 -12 -45 -31 -66 -43 -43 -23 -55 -23 -176 12 -59
17 -111 22 -245 25 -93 2 -176 4 -183 4 -9 0 -11 10 -6 35 8 46 -12 47 -31 1
-8 -19 -23 -37 -32 -40 -23 -6 -145 -19 -201 -20 -59 -2 -86 23 -77 70 5 27 3
34 -10 34 -8 0 -20 -12 -25 -26 -8 -21 -6 -33 10 -59 l21 -34 -32 -3 c-18 -2
-35 -9 -37 -17 -4 -12 10 -13 84 -7 88 7 103 9 238 21 80 8 418 8 457 0 52
-10 165 -48 224 -75 84 -38 139 -81 159 -124 16 -34 16 -40 1 -93 -19 -66 -62
-132 -101 -158 -65 -43 -237 -63 -389 -47 -49 6 -93 7 -98 3 -4 -4 -3 -21 3
-38 6 -16 12 -56 13 -89 2 -54 0 -59 -20 -62 -27 -4 -98 60 -180 162 -31 39
-79 95 -107 124 -45 46 -55 52 -92 52 -22 0 -63 -7 -90 -16 -133 -42 -141 -42
-167 -20 -14 12 -37 40 -51 63 -28 46 -42 58 -51 43 -8 -13 18 -62 57 -106
l32 -37 -89 7 c-209 17 -263 53 -345 229 -30 63 -41 147 -26 195 7 22 9 21 36
-22 24 -38 120 -116 142 -116 4 0 18 -4 31 -9 25 -10 25 -11 11 -51 -15 -44
-10 -84 9 -77 7 2 13 14 15 28 2 13 8 36 14 51 9 25 14 27 47 23 75 -11 119
-14 225 -14 93 -1 107 -3 97 -15 -15 -18 -10 -78 7 -84 8 -2 12 8 12 30 0 61
12 67 145 73 66 3 138 8 160 11 46 6 410 6 441 0 12 -3 39 -7 60 -10 122 -19
185 -57 163 -97 -22 -41 -47 -45 -382 -54 -155 -4 -206 -8 -233 -21 -19 -9
-34 -23 -34 -30 0 -18 12 -18 56 1 25 10 100 16 277 21 280 8 314 14 342 66
20 37 20 37 -1 65 -11 15 -36 36 -56 46 -93 46 -338 63 -638 45 -234 -14 -573
-14 -644 0 -171 34 -280 136 -280 262 0 62 19 105 70 162 37 42 49 76 40 113
-7 26 3 32 21 14 17 -17 98 -13 129 7 27 18 67 91 58 106 -7 12 -5 11 60 -22
96 -49 217 -39 259 21 12 17 19 19 35 10 12 -6 41 -11 65 -11 39 0 51 6 93 43
l48 44 34 -20 c27 -16 45 -19 100 -14 l67 5 48 -49 c26 -27 52 -49 57 -49 22
0 8 31 -35 74 -48 50 -52 56 -32 56 6 0 50 25 95 55 126 82 180 84 318 13 44
-23 99 -43 124 -45 25 -3 46 -6 48 -8 1 -1 5 -25 9 -54 4 -33 10 -51 19 -51
17 0 19 81 3 111 -8 16 -6 30 10 63 41 84 19 201 -57 301 -85 112 -299 256
-433 292 -84 22 -283 22 -354 -1 -52 -16 -57 -15 -61 11 -10 65 -68 98 -160
90 -72 -5 -119 -29 -150 -74 l-20 -30 -43 25 c-57 34 -166 42 -239 18 -53 -18
-142 -100 -156 -144 -5 -15 -15 -22 -34 -22 -35 0 -118 -39 -160 -75 -45 -38
-79 -110 -92 -194 -9 -53 -8 -75 1 -93 12 -22 12 -22 20 -3 4 11 8 38 8 61 3
139 95 251 221 268 26 3 49 13 55 22 77 127 126 159 240 159 59 -1 79 -6 129
-33 65 -35 76 -38 76 -20 0 17 43 77 60 84 44 17 116 23 151 14 43 -12 59 -33
59 -79 0 -16 4 -32 9 -35 5 -3 44 3 86 14 110 28 269 27 361 -1 94 -29 147
-57 240 -127 179 -135 249 -249 230 -377 -9 -56 -22 -58 -29 -4 -7 52 -53 127
-96 156 -69 46 -70 19 -2 -46 48 -45 58 -66 75 -160 6 -33 6 -33 -26 -27 -18
3 -74 27 -124 52 -76 39 -99 46 -150 47 -61 0 -114 -20 -179 -67 -134 -98
-245 -119 -302 -58 -24 26 -25 27 -40 7 -8 -11 -20 -27 -26 -35 -24 -31 -70
-60 -96 -60 -14 0 -41 9 -59 20 -43 26 -49 25 -57 -9 -12 -57 -89 -76 -189
-47 -63 19 -110 61 -120 106 -6 34 -33 37 -29 4 10 -77 5 -126 -14 -152 -47
-63 -117 -55 -202 23 -32 30 -61 55 -65 55 -16 0 -3 -39 20 -61 31 -29 57 -75
61 -110 3 -19 -7 -39 -33 -70 -20 -24 -47 -61 -60 -81 -25 -40 -62 -55 -139
-59 -82 -4 -150 23 -239 96 -34 27 -58 40 -62 34 -10 -17 62 -84 127 -119 94
-50 172 -57 274 -25 20 6 21 4 14 -62 -13 -121 -8 -116 -113 -111 -78 3 -100
9 -158 37 -123 61 -196 155 -243 311 -36 120 -48 227 -35 302 17 99 96 246
199 374 105 131 144 166 243 218 40 21 97 57 127 79 108 80 225 120 405 138
61 6 136 17 166 24 75 18 215 18 330 0z"/>
<path d="M1573 1981 c-90 -42 -161 -147 -197 -292 -18 -74 -20 -115 -7 -124
15 -8 23 11 36 91 28 157 111 278 210 303 57 14 92 14 97 -1 3 -7 -13 -57 -35
-112 -44 -112 -57 -202 -37 -260 14 -43 45 -52 33 -8 -17 60 -7 136 33 251 43
126 43 125 139 135 123 12 235 -28 298 -109 30 -37 47 -45 47 -20 0 27 -80
104 -139 132 -58 29 -106 33 -271 25 -30 -2 -80 0 -110 3 -42 4 -65 1 -97 -14z"/>
<path d="M949 1925 c-21 -47 -26 -91 -16 -140 6 -27 2 -33 -39 -64 -39 -28
-50 -32 -70 -23 -25 12 -57 68 -69 120 -3 18 -13 32 -21 32 -34 0 -2 -101 48
-154 l38 -39 -32 -48 -33 -48 -60 -1 c-33 0 -77 -5 -98 -11 -50 -14 -44 -36 9
-29 99 12 178 5 214 -17 56 -36 80 -47 87 -40 10 11 -37 56 -79 74 -21 9 -38
20 -38 23 0 14 122 140 155 160 38 24 100 29 134 10 28 -14 74 -86 97 -151 10
-27 24 -49 31 -49 7 0 13 4 13 10 0 13 -39 115 -56 148 -32 62 -9 162 55 234
39 44 23 63 -19 23 -40 -38 -80 -117 -83 -162 l-2 -39 -32 19 c-20 11 -46 17
-68 16 -24 -3 -39 2 -45 11 -15 24 -11 82 9 127 11 23 17 44 13 47 -13 14 -24
3 -43 -39z"/>
<path d="M1880 1820 c-12 -23 -4 -80 11 -80 5 0 9 -4 9 -9 0 -5 -18 -11 -39
-15 -47 -7 -93 -44 -111 -86 -17 -40 -4 -52 21 -20 60 77 99 92 179 70 125
-35 179 -32 234 11 29 22 35 49 11 49 -8 0 -15 -4 -15 -8 0 -20 -63 -43 -113
-41 -89 4 -157 49 -157 105 0 40 -15 52 -30 24z"/>
<path d="M406 1739 c-20 -22 -41 -51 -46 -65 -13 -33 -13 -110 0 -134 9 -16 5
-22 -19 -35 -40 -20 -81 -75 -88 -119 -4 -29 -2 -36 10 -36 10 0 20 14 27 39
10 40 66 104 85 98 16 -5 35 -49 35 -80 0 -38 24 -30 28 9 2 18 -9 56 -28 95
-44 94 -39 136 25 215 31 37 35 54 14 54 -3 0 -23 -18 -43 -41z"/>
<path d="M538 1454 c-4 -3 -2 -20 3 -37 5 -18 9 -62 9 -98 0 -54 -5 -73 -25
-104 -42 -60 -6 -62 39 -1 42 56 16 283 -26 240z"/>
<path d="M2215 1358 c-43 -94 -167 -216 -271 -265 l-79 -38 -135 0 c-142 0
-181 9 -175 42 2 10 4 25 4 34 1 9 12 33 26 53 29 43 32 59 8 54 -28 -5 -63
-77 -63 -129 l0 -45 -51 -18 c-28 -10 -86 -21 -129 -23 l-78 -5 -7 46 c-5 30
-3 57 5 77 18 42 -1 61 -25 25 -13 -20 -16 -41 -13 -85 l4 -58 -35 -2 c-20 -1
-48 -3 -63 -5 -19 -2 -34 4 -50 21 -35 38 -88 67 -99 56 -7 -7 8 -23 42 -48
l53 -38 -40 -19 c-53 -27 -92 -73 -109 -132 -8 -27 -13 -51 -10 -54 12 -12 33
10 39 42 10 51 70 111 126 126 25 7 117 16 205 19 131 6 168 11 207 28 39 18
54 20 84 11 21 -5 94 -8 163 -6 150 5 201 22 304 99 100 76 216 228 217 287 0
33 -29 5 -55 -50z"/>
<path d="M2401 1208 c-50 -106 -127 -185 -223 -231 -62 -29 -88 -57 -55 -57
30 0 140 64 191 111 30 27 61 49 69 49 9 0 26 -15 39 -32 25 -36 31 -117 14
-190 -7 -31 -5 -38 7 -38 20 0 27 22 34 101 7 86 0 111 -44 160 l-36 40 20 37
c32 57 47 112 35 124 -7 7 -23 -16 -51 -74z"/>
<path d="M1715 579 c-63 -14 -95 -30 -95 -46 0 -10 6 -12 20 -8 77 24 156 33
280 29 74 -2 149 -6 165 -8 17 -3 50 -8 75 -11 25 -4 55 -9 68 -12 27 -6 32
23 4 31 -89 28 -432 45 -517 25z"/>
<path d="M1878 393 c-10 -2 -18 -10 -18 -17 0 -9 35 -11 148 -9 159 4 192 8
192 23 0 10 -286 13 -322 3z"/>
</g>
</svg>
