<?xml version="1.0" standalone="no"?>
<!DOCTYPE svg PUBLIC "-//W3C//DTD SVG 20010904//EN"
 "http://www.w3.org/TR/2001/REC-SVG-20010904/DTD/svg10.dtd">
<svg version="1.0" xmlns="http://www.w3.org/2000/svg"
 width="260.000000pt" height="248.000000pt" viewBox="0 0 260.000000 248.000000"
 preserveAspectRatio="xMidYMid meet">
<metadata>
Created by potrace 1.10, written by Peter Selinger 2001-2011
</metadata>
<g transform="translate(0.000000,248.000000) scale(0.100000,-0.100000)"
fill="#01fff4" stroke="none">
<path d="M1285 2420 c-444 -70 -805 -372 -938 -785 -82 -252 -83 -528 -3 -762
226 -665 983 -981 1624 -678 129 61 222 126 322 225 140 138 232 286 289 465
40 126 54 221 54 365 -1 332 -119 621 -344 841 -159 157 -361 264 -589 314
-89 19 -330 28 -415 15z m335 -44 c117 -18 251 -61 361 -117 77 -38 82 -42 64
-55 -10 -8 -22 -14 -25 -14 -4 0 -12 -12 -19 -26 -13 -29 -7 -43 47 -114 51
-68 42 -89 -18 -45 -19 14 -42 25 -52 25 -47 0 -121 -65 -134 -117 -6 -21 0
-39 23 -84 2 -3 -2 -6 -9 -6 -7 0 -20 -3 -28 -7 -11 -4 -21 6 -33 34 -25 53
-48 65 -86 45 -43 -21 -48 -49 -17 -86 34 -40 38 -94 10 -133 -19 -28 -18 -95
3 -118 31 -35 71 -24 160 44 29 22 57 38 62 36 5 -1 20 -19 33 -38 17 -24 33
-36 53 -38 17 -2 40 -13 52 -24 21 -20 27 -20 70 -9 81 21 88 20 91 -15 l3
-32 -68 5 c-131 8 -149 12 -191 48 -58 51 -91 48 -187 -16 -82 -55 -153 -139
-175 -205 -20 -59 -8 -135 31 -200 56 -93 94 -107 239 -83 83 14 100 6 100
-51 0 -21 7 -54 15 -73 11 -26 15 -73 15 -164 0 -109 3 -133 20 -160 27 -46
55 -58 99 -44 50 15 99 58 203 179 l90 104 -7 102 -7 101 31 45 c33 49 39 86
17 116 -13 17 -11 21 16 44 21 18 31 37 35 68 3 23 9 42 14 42 17 0 67 -52 71
-75 3 -14 1 -69 -4 -123 -36 -397 -271 -731 -643 -913 -427 -209 -981 -108
-1303 236 -205 219 -311 473 -315 758 -2 113 11 257 22 257 4 0 13 -23 20 -51
20 -78 86 -142 169 -165 44 -12 69 -26 80 -42 38 -55 61 -72 97 -72 43 0 45
-15 13 -86 -16 -35 -22 -68 -22 -119 0 -81 18 -125 70 -168 61 -51 76 -82 85
-176 12 -129 70 -279 133 -346 42 -44 90 -48 126 -10 21 23 22 28 12 64 -19
62 -15 80 20 99 47 25 78 61 78 91 0 36 10 48 60 74 64 32 78 63 82 179 3 89
1 98 -20 121 -13 14 -53 34 -92 46 -87 28 -116 51 -145 118 -34 77 -60 109
-110 138 -60 36 -132 45 -232 32 -46 -6 -86 -7 -90 -3 -4 4 1 22 11 40 30 56
19 86 -46 129 -63 42 -72 66 -36 91 35 25 65 19 99 -19 58 -64 99 -34 99 71 0
82 26 121 100 149 39 15 61 31 77 55 35 56 53 72 71 65 9 -4 31 -9 49 -12 25
-4 33 -1 43 17 9 17 8 35 -9 89 -22 74 -50 116 -82 126 -13 4 -41 -3 -75 -20
-61 -30 -84 -28 -84 9 0 32 46 70 75 61 46 -14 92 -15 115 -3 40 22 36 50 -16
110 -62 70 -72 74 -122 49 -46 -23 -116 -29 -110 -8 2 6 54 37 115 68 204 103
433 139 663 105z m-721 -229 c20 6 50 17 67 23 30 13 32 12 67 -26 20 -21 37
-43 37 -47 0 -5 -33 -6 -73 -2 l-73 7 -32 -36 c-42 -49 -45 -105 -6 -135 34
-27 39 -26 96 4 26 14 54 25 63 25 17 0 51 -65 62 -120 6 -30 5 -32 -15 -21
-11 6 -32 11 -45 11 -27 0 -77 -35 -77 -54 0 -20 -36 -48 -102 -81 -76 -38
-102 -80 -103 -170 0 -33 -4 -60 -7 -60 -3 0 -15 12 -27 26 -53 68 -181 26
-181 -60 0 -41 28 -75 88 -105 21 -11 32 -24 32 -37 0 -16 -4 -19 -17 -14 -10
4 -46 15 -80 25 -79 22 -125 57 -154 117 -33 66 -33 200 -1 287 48 130 171
300 298 411 l74 64 36 -21 c31 -18 42 -20 73 -11z m1270 -7 c165 -131 285
-301 359 -511 32 -91 69 -256 59 -265 -5 -6 -79 31 -134 66 -16 10 -26 11 -33
4 -16 -16 -1 -43 32 -60 23 -12 28 -20 23 -37 -15 -53 -28 -75 -50 -85 -19 -9
-24 -8 -28 8 -3 10 -15 20 -28 22 -17 2 -28 14 -39 45 -8 23 -26 56 -38 72
-19 26 -22 41 -20 94 5 100 -6 106 -143 82 -32 -6 -37 -4 -42 15 -5 19 -11 22
-42 18 -33 -4 -37 -1 -52 30 -29 61 -75 62 -149 0 -59 -49 -82 -61 -100 -54
-29 11 -14 54 41 118 30 34 55 66 55 71 0 4 22 5 49 1 44 -6 52 -4 75 19 27
27 36 80 16 92 -6 3 -26 1 -45 -6 -26 -10 -38 -10 -46 -2 -16 16 18 73 53 93
25 13 31 13 73 -8 58 -28 81 -28 101 2 14 23 14 28 -4 68 -11 24 -31 54 -46
67 -30 28 -34 56 -8 70 32 19 60 11 111 -29z m-405 -314 c18 -39 20 -56 6 -56
-5 0 -10 6 -10 14 0 7 -9 25 -20 39 -24 30 -25 37 -6 37 7 0 21 -15 30 -34z
m177 -322 c36 -40 80 -54 164 -54 42 0 85 -5 96 -10 11 -6 34 -41 51 -77 22
-46 53 -88 104 -139 41 -40 74 -77 74 -82 0 -5 -13 -26 -29 -46 -37 -46 -47
-105 -31 -180 14 -68 12 -73 -89 -191 -121 -143 -184 -176 -217 -113 -13 26
-15 49 -9 130 5 78 3 109 -11 155 -9 32 -16 68 -16 81 1 13 -5 38 -12 57 -18
41 -45 50 -124 41 -157 -20 -145 -20 -174 9 -45 45 -81 129 -75 174 11 82 73
164 178 235 64 43 87 45 120 10z m-998 -347 c55 -23 98 -68 129 -134 39 -80
81 -117 165 -143 36 -11 72 -25 80 -31 17 -15 17 -153 0 -192 -8 -18 -29 -37
-57 -50 -45 -22 -64 -48 -75 -100 -4 -19 -20 -37 -55 -58 -58 -36 -66 -54 -50
-119 13 -54 8 -70 -20 -70 -21 0 -45 31 -85 109 -42 85 -56 130 -65 212 -14
125 -25 155 -84 212 -30 29 -59 62 -65 74 -18 35 -13 127 9 183 11 28 20 66
20 85 l0 35 60 0 c33 0 75 -6 93 -13z"/>
<path d="M1243 2275 c-106 -56 -117 -76 -47 -89 34 -7 35 -8 27 -39 -4 -18 -8
-55 -7 -84 1 -98 45 -109 128 -34 38 34 71 54 109 65 131 38 130 165 -1 204
-74 22 -134 15 -209 -23z m223 -31 c42 -20 51 -37 36 -69 -8 -16 -25 -28 -54
-35 -49 -13 -144 -74 -159 -102 -27 -50 -40 39 -17 114 11 37 10 41 -11 57
l-23 18 33 15 c19 9 41 18 49 22 25 9 107 -2 146 -20z"/>
</g>
</svg>
