<?xml version="1.0" standalone="no"?>
<!DOCTYPE svg PUBLIC "-//W3C//DTD SVG 20010904//EN"
 "http://www.w3.org/TR/2001/REC-SVG-20010904/DTD/svg10.dtd">
<svg version="1.0" xmlns="http://www.w3.org/2000/svg"
 width="300.000000pt" height="296.000000pt" viewBox="0 0 300.000000 296.000000"
 preserveAspectRatio="xMidYMid meet">
<metadata>
Created by potrace 1.10, written by Peter Selinger 2001-2011
</metadata>
<g transform="translate(0.000000,296.000000) scale(0.100000,-0.100000)"
fill="#ffffff" stroke="none">
<path d="M1217 2900 c-49 -10 -109 -26 -134 -34 -25 -9 -49 -13 -53 -11 -5 3
-10 1 -12 -4 -1 -5 -12 -11 -23 -13 -11 -1 -23 -7 -26 -11 -3 -4 -16 -9 -27
-10 -12 -1 -22 -4 -22 -8 0 -3 -18 -12 -40 -19 -22 -7 -40 -17 -40 -21 0 -4
-16 -13 -35 -19 -53 -17 -345 -237 -345 -260 0 -3 -16 -24 -36 -46 -58 -62
-141 -183 -177 -254 -17 -36 -35 -66 -39 -68 -4 -2 -10 -19 -14 -38 -3 -19
-10 -34 -14 -34 -5 0 -11 -18 -15 -40 -4 -22 -11 -40 -16 -40 -4 0 -6 -6 -3
-14 3 -8 1 -17 -5 -20 -6 -4 -8 -13 -4 -21 3 -8 1 -15 -3 -15 -5 0 -10 -17
-12 -38 -1 -20 -7 -38 -12 -40 -5 -2 -6 -10 -4 -17 3 -8 2 -20 -2 -26 -4 -7
-8 -24 -10 -38 -1 -14 -5 -46 -7 -71 -14 -118 -2 -425 17 -471 4 -9 8 -27 10
-41 1 -13 6 -29 10 -36 4 -7 4 -16 1 -22 -3 -5 -1 -10 5 -10 7 0 10 -7 7 -15
-4 -8 -2 -17 4 -20 5 -4 7 -10 4 -15 -3 -5 -1 -11 5 -15 6 -4 8 -10 5 -15 -3
-5 -1 -11 5 -15 6 -4 8 -11 5 -16 -4 -5 -1 -9 5 -9 6 0 9 -4 5 -9 -3 -5 -1
-12 4 -15 5 -3 12 -17 15 -31 19 -76 180 -308 290 -418 100 -99 250 -209 366
-266 36 -18 77 -39 93 -47 15 -9 27 -12 27 -8 0 3 7 1 15 -6 8 -7 15 -9 15 -5
0 4 7 2 15 -5 8 -7 15 -9 15 -5 0 4 7 2 15 -5 8 -7 15 -9 15 -4 0 4 5 3 11 -3
6 -6 18 -9 25 -6 8 3 14 1 14 -4 0 -6 17 -10 37 -11 21 -1 39 -6 41 -10 1 -5
13 -7 26 -5 13 3 27 0 30 -6 4 -5 13 -8 21 -4 8 3 23 2 32 -2 39 -16 206 -21
323 -10 118 11 124 12 142 20 9 4 21 4 27 1 5 -4 12 -2 15 3 6 10 82 26 104
22 6 -1 12 3 12 8 0 6 7 8 15 5 8 -4 15 -1 15 6 0 7 7 10 15 6 8 -3 15 -1 15
4 0 6 3 9 8 9 7 -1 11 0 30 6 4 2 17 6 30 10 53 17 203 101 282 158 101 71
253 222 331 327 67 90 134 207 144 249 4 17 11 31 16 31 6 0 7 4 4 10 -3 6 -2
10 4 10 6 0 8 7 5 15 -4 8 -1 15 5 15 6 0 8 7 5 15 -4 8 -1 15 5 15 6 0 8 7 5
15 -4 8 -1 15 5 15 6 0 8 7 5 15 -4 8 -2 15 3 15 6 0 10 14 11 31 0 17 5 36
11 43 6 7 8 16 5 19 -4 3 -3 14 1 24 9 21 11 34 19 128 11 113 8 234 -9 395
-1 14 -6 33 -10 42 -4 10 -5 24 -2 32 3 8 2 16 -3 18 -5 2 -11 20 -12 40 -2
21 -7 38 -11 38 -5 0 -5 9 -2 20 4 12 2 20 -5 20 -7 0 -10 7 -6 15 3 8 1 15
-5 15 -6 0 -9 6 -6 14 3 8 1 16 -4 18 -5 2 -11 13 -12 26 0 12 -4 22 -8 22 -4
0 -10 15 -13 34 -4 19 -10 36 -14 38 -4 2 -22 32 -39 68 -67 135 -240 333
-398 454 -85 66 -212 140 -257 151 -16 4 -28 10 -28 14 0 4 -10 7 -22 8 -11 1
-24 6 -27 10 -3 4 -14 9 -25 11 -10 2 -30 8 -45 14 -14 6 -35 13 -45 15 -11 2
-45 10 -75 18 -151 39 -464 47 -614 15z m478 -42 c39 -6 77 -12 85 -13 9 0 21
-4 28 -9 6 -4 16 -5 21 -1 5 3 13 0 16 -6 4 -5 13 -8 21 -5 8 3 14 2 14 -3 0
-5 12 -8 27 -8 15 0 29 -5 31 -11 2 -6 10 -8 18 -5 8 3 14 0 14 -6 0 -6 7 -8
15 -5 8 4 15 1 15 -6 0 -6 5 -8 10 -5 6 3 10 2 10 -2 0 -5 10 -9 22 -10 11 -1
25 -8 29 -15 5 -7 9 -10 9 -5 0 9 136 -59 145 -73 3 -5 -9 -17 -27 -26 -36
-17 -60 -56 -51 -82 7 -20 64 -95 75 -100 5 -2 8 -9 8 -17 0 -7 7 -18 15 -25
19 -16 19 -40 1 -40 -8 0 -21 7 -30 15 -8 8 -19 15 -25 15 -6 0 -11 4 -11 8 0
5 -12 14 -26 20 -26 13 -74 6 -74 -9 0 -5 -5 -9 -12 -9 -19 0 -95 -85 -102
-115 -4 -16 0 -42 13 -69 l19 -44 -21 -6 c-39 -10 -46 -7 -66 32 -39 76 -83
90 -132 41 -24 -24 -20 -58 11 -89 11 -11 21 -26 21 -32 5 -56 3 -96 -5 -113
-22 -44 -35 -90 -27 -100 5 -5 11 -22 14 -36 7 -29 49 -55 69 -43 7 5 19 9 26
10 8 2 22 10 31 18 10 9 22 16 28 16 6 0 13 3 15 8 4 10 94 72 105 72 5 0 25
-20 43 -45 20 -27 45 -48 60 -51 29 -6 82 -33 91 -47 4 -6 15 -6 25 -2 11 5
33 10 49 12 17 1 41 8 54 15 20 11 25 10 37 -7 8 -10 14 -32 14 -48 0 -26 -3
-28 -22 -22 -20 7 -86 13 -185 17 -18 1 -33 6 -33 11 0 5 -7 7 -15 3 -8 -3
-20 0 -27 7 -37 33 -86 61 -120 67 -21 4 -38 3 -38 -1 0 -5 -5 -9 -11 -9 -27
0 -139 -78 -194 -135 -70 -72 -113 -145 -121 -207 -12 -90 57 -244 129 -288
36 -23 114 -26 214 -10 69 11 119 0 109 -25 -3 -8 0 -17 6 -21 6 -4 8 -21 5
-40 -3 -19 -1 -36 4 -40 5 -3 7 -10 4 -15 -4 -5 -1 -9 5 -9 7 0 9 -7 6 -16 -3
-9 -3 -21 1 -27 4 -6 8 -75 9 -152 2 -171 3 -175 15 -175 6 0 7 -5 4 -10 -3
-6 -1 -10 4 -10 6 0 11 -5 11 -11 0 -19 44 -48 73 -49 52 0 100 30 191 123 89
91 185 199 197 221 3 6 2 64 -3 129 l-9 118 34 52 c44 67 50 93 30 134 -15 33
-15 33 21 73 20 22 37 50 37 63 1 12 2 31 3 41 1 25 20 31 37 13 58 -60 64
-71 62 -127 -3 -98 -9 -166 -17 -179 -4 -6 -5 -19 -2 -28 4 -8 1 -22 -5 -29
-6 -7 -8 -18 -4 -24 4 -6 1 -17 -5 -25 -6 -8 -9 -19 -6 -24 4 -5 1 -13 -5 -16
-5 -4 -8 -13 -5 -21 3 -8 1 -14 -5 -14 -6 0 -8 -4 -5 -8 7 -11 -15 -82 -25
-82 -5 0 -6 -6 -3 -14 3 -7 -1 -20 -8 -27 -7 -8 -15 -23 -16 -34 -7 -39 -111
-211 -179 -296 -21 -26 -193 -198 -215 -216 -110 -85 -341 -218 -359 -207 -5
3 -9 1 -9 -4 0 -10 -100 -43 -112 -36 -4 3 -8 1 -8 -5 0 -6 -6 -8 -14 -5 -8 3
-17 1 -20 -5 -4 -6 -13 -8 -20 -5 -8 3 -17 0 -21 -5 -3 -6 -11 -9 -16 -5 -6 3
-18 2 -27 -2 -18 -8 -31 -10 -122 -18 -69 -6 -198 -6 -270 0 -30 3 -66 6 -80
7 -14 1 -31 6 -38 10 -7 5 -21 5 -32 2 -12 -4 -20 -2 -20 5 0 7 -8 9 -20 5
-12 -4 -20 -2 -20 5 0 7 -8 9 -20 5 -12 -4 -20 -2 -20 5 0 7 -7 10 -15 6 -8
-3 -15 -1 -15 5 0 6 -4 8 -9 5 -13 -8 -104 25 -201 74 -71 35 -174 103 -275
180 -32 24 -117 112 -150 154 -16 21 -42 52 -56 69 -31 35 -136 205 -141 227
-2 8 -9 21 -15 28 -11 12 -15 27 -12 48 0 4 -4 10 -11 14 -6 4 -12 17 -13 28
-1 12 -5 22 -10 22 -5 0 -7 7 -3 15 3 8 1 15 -4 15 -5 0 -7 7 -4 15 4 8 1 15
-6 15 -7 0 -10 8 -7 20 3 11 2 20 -2 20 -4 0 -7 8 -8 18 -3 29 -10 67 -13 67
-3 0 -6 25 -15 110 -10 101 -4 429 8 442 10 9 28 -9 23 -23 -3 -8 -1 -14 5
-14 6 0 9 -6 6 -14 -3 -8 -3 -17 1 -21 4 -4 7 -10 7 -13 2 -18 38 -73 69 -105
36 -38 80 -64 118 -71 13 -3 24 -5 26 -7 2 -2 18 -6 30 -8 11 -1 72 -56 72
-64 0 -14 41 -47 65 -52 14 -3 36 -7 50 -10 31 -7 31 -21 0 -95 -32 -76 -40
-151 -25 -225 11 -52 20 -67 85 -135 69 -72 105 -136 90 -160 -4 -6 -1 -17 5
-25 7 -9 10 -28 7 -45 -4 -16 -2 -32 4 -35 5 -4 9 -14 7 -23 -1 -10 1 -23 5
-30 5 -7 9 -26 9 -42 1 -17 5 -30 9 -30 5 0 6 -7 3 -15 -4 -8 -1 -15 5 -15 6
0 8 -7 5 -15 -4 -8 -1 -15 6 -15 6 0 8 -5 5 -10 -3 -6 -1 -10 4 -10 6 0 10 -3
9 -7 -3 -14 34 -93 43 -93 5 0 9 -5 9 -10 0 -18 51 -68 85 -84 59 -28 131 19
122 77 -3 18 -8 51 -12 73 -7 39 -5 43 21 60 70 45 119 111 109 144 -5 16 7
28 63 64 87 56 100 84 104 230 3 103 3 105 -26 135 -24 25 -67 47 -108 57 -5
1 -10 3 -13 4 -3 1 -8 3 -12 4 -5 1 -18 7 -29 14 -12 6 -24 8 -28 5 -3 -3 -6
-1 -6 5 0 7 -6 12 -14 12 -16 0 -55 56 -83 121 -31 71 -114 155 -161 164 -9 2
-18 4 -19 5 -2 2 -6 3 -10 4 -5 1 -14 5 -21 9 -7 5 -43 8 -80 8 -99 -1 -112
-2 -165 -13 -67 -14 -76 -3 -48 62 12 28 19 60 16 70 -3 11 -32 41 -63 67 -79
67 -79 66 -79 87 0 20 51 56 79 56 10 0 35 -15 55 -34 62 -54 82 -62 105 -38
15 15 22 41 29 107 5 49 16 99 26 116 10 17 45 43 86 65 49 26 80 51 112 91
30 39 52 57 69 59 14 1 26 -2 26 -8 0 -5 7 -7 16 -4 9 4 23 1 30 -5 11 -9 19
-8 35 7 59 53 -49 300 -122 279 -13 -3 -49 -17 -80 -31 -53 -22 -96 -24 -83
-3 3 5 0 9 -7 9 -8 0 -8 4 1 15 7 8 9 15 5 15 -4 0 7 14 25 30 31 29 59 38 73
23 9 -8 124 -12 134 -4 25 19 33 40 24 64 -14 36 -120 147 -141 147 -10 0 -37
-9 -61 -20 -43 -19 -139 -28 -139 -12 0 9 102 67 113 64 4 -1 7 3 7 10 0 6 3
9 6 5 4 -3 13 1 21 9 8 8 19 12 24 9 5 -4 9 -1 9 5 0 6 4 9 9 6 5 -4 11 -1 13
4 2 6 13 12 26 13 12 0 22 5 22 10 0 4 5 5 10 2 6 -3 10 -1 10 5 0 7 7 10 15
7 8 -4 17 -2 20 4 4 5 11 7 16 4 5 -4 9 -1 9 5 0 7 7 10 15 6 8 -3 15 -1 15 4
0 5 6 7 14 4 8 -3 17 0 21 5 3 6 11 9 16 6 5 -4 15 -3 21 1 7 5 19 9 28 10 8
0 49 6 90 13 137 21 266 21 405 -1z m703 -313 c120 -95 266 -287 343 -449 21
-44 35 -84 33 -88 -3 -4 0 -8 6 -8 7 0 10 -6 7 -14 -3 -8 -1 -16 4 -18 6 -2
12 -16 12 -31 1 -15 6 -27 11 -27 4 0 6 -7 2 -15 -3 -8 0 -15 5 -15 6 0 9 -9
6 -20 -3 -11 -1 -20 5 -20 5 0 6 -9 3 -20 -4 -12 -2 -20 5 -20 7 0 9 -8 5 -19
-3 -11 -1 -22 5 -26 6 -3 8 -11 4 -16 -3 -5 0 -16 6 -24 6 -8 9 -19 6 -24 -4
-6 -1 -19 6 -30 7 -11 9 -23 5 -28 -7 -7 -93 34 -165 79 -62 38 -73 -19 -12
-60 19 -13 36 -27 38 -31 6 -16 -48 -122 -58 -116 -5 3 -10 1 -10 -4 0 -20
-27 -11 -40 13 -7 14 -18 22 -24 20 -7 -3 -21 4 -31 16 -10 11 -15 20 -11 20
3 0 0 10 -9 23 -8 13 -12 27 -8 30 3 4 1 7 -6 7 -7 0 -10 4 -7 9 3 5 0 11 -7
14 -26 10 -43 70 -42 149 1 69 -1 78 -21 88 -22 12 -148 9 -161 -3 -14 -14
-34 -6 -43 18 -8 22 -16 25 -55 25 -39 0 -45 3 -51 25 -3 14 -10 25 -15 25 -5
0 -9 6 -9 14 0 8 -13 18 -28 24 -37 13 -72 -2 -157 -67 -68 -52 -110 -64 -122
-35 -8 21 22 77 65 122 17 19 32 37 32 39 0 3 9 16 20 30 22 28 84 41 106 22
27 -22 92 39 100 93 8 44 -9 52 -72 36 -38 -11 -47 -10 -54 2 -12 20 29 90 66
112 28 16 31 16 84 -7 73 -32 105 -32 126 0 16 25 16 28 -6 75 -13 27 -36 61
-51 76 -16 15 -26 31 -23 36 3 4 0 8 -5 8 -6 0 -11 9 -11 20 0 28 54 51 90 38
15 -5 63 -38 108 -73z m-1670 55 c41 -25 68 -25 134 0 29 11 60 20 68 20 22 0
104 -86 96 -99 -9 -14 -53 -14 -61 -1 -4 7 -24 8 -50 5 -26 -4 -45 -3 -49 4
-19 30 -101 -102 -94 -152 3 -25 54 -77 75 -77 8 0 40 14 73 30 33 17 66 30
74 30 25 0 92 -137 84 -173 -3 -13 -8 -13 -41 3 -37 18 -37 18 -81 -6 -28 -16
-48 -35 -54 -53 -8 -21 -31 -41 -84 -71 -40 -24 -84 -52 -97 -64 -37 -33 -61
-94 -61 -158 0 -90 -6 -96 -51 -47 -21 24 -42 40 -45 36 -4 -4 -13 -2 -20 4
-8 6 -21 8 -31 4 -10 -5 -24 -7 -30 -6 -7 1 -13 -3 -13 -8 0 -5 -9 -13 -20
-16 -25 -8 -50 -55 -50 -94 0 -37 41 -86 104 -126 27 -17 46 -37 46 -47 0 -23
-6 -23 -88 3 -86 28 -140 55 -175 88 -34 30 -70 97 -62 111 3 6 1 10 -5 10 -8
0 -10 9 -6 24 3 14 2 28 -4 31 -14 8 -13 125 1 125 7 0 8 11 4 30 -4 18 -2 30
3 30 6 0 8 9 5 20 -3 11 -1 20 4 20 5 0 9 9 10 21 4 42 120 233 208 338 16 19
158 162 220 220 15 15 27 13 63 -9z m1149 -409 c13 -24 23 -39 23 -33 0 14 10
15 29 3 10 -7 5 -20 -28 -64 -56 -76 -61 -77 -61 -17 0 36 3 49 11 44 19 -11
1 48 -22 72 -25 27 -24 46 3 42 14 -2 30 -19 45 -47z m233 22 c0 -30 -31 -53
-72 -53 -41 0 -43 4 -28 44 8 23 15 26 55 26 35 0 45 -4 45 -17z m-1927 -371
l3 -63 -25 6 c-14 4 -28 8 -30 10 -1 2 7 34 20 72 25 73 26 72 32 -25z m1867
-13 c0 -5 4 -8 9 -5 5 4 20 -7 33 -22 21 -25 46 -41 73 -47 44 -10 139 -18
178 -17 40 2 52 -2 72 -24 14 -15 22 -30 20 -34 -3 -5 -1 -10 3 -12 4 -1 25
-32 47 -68 21 -36 74 -102 117 -147 52 -54 77 -87 72 -95 -4 -7 -20 -32 -36
-54 -42 -59 -50 -104 -37 -199 10 -72 10 -85 -6 -115 -10 -19 -23 -39 -29 -46
-6 -7 -24 -29 -41 -50 -54 -70 -184 -193 -210 -200 -62 -15 -101 25 -98 100 6
120 5 225 -2 235 -4 7 -4 18 -1 26 2 7 1 15 -5 17 -9 3 -22 79 -21 126 0 12
-4 22 -8 22 -4 0 -10 9 -13 19 -2 10 -17 27 -31 36 -24 16 -37 17 -127 6 -143
-16 -169 -15 -196 11 -13 12 -23 27 -23 34 0 7 -3 14 -7 16 -9 3 -48 90 -58
127 -9 28 12 107 37 143 10 14 18 29 18 33 0 11 107 115 118 115 5 0 12 7 16
15 3 8 12 15 21 15 8 0 15 4 15 8 0 11 60 41 83 41 9 1 17 -4 17 -10z m410
-91 l0 -32 -22 22 c-20 19 -21 24 -8 32 25 16 30 12 30 -22z m431 -130 c1 -7
3 -24 4 -36 l2 -24 -25 25 c-25 25 -23 47 4 47 8 0 15 -6 15 -12z m-2361 -111
c0 -4 5 -5 11 -1 8 4 8 0 0 -15 -14 -26 -22 -26 -44 -1 -22 26 -22 26 8 26 14
0 25 -4 25 -9z m2152 -54 l-5 -24 -28 27 c-16 15 -29 28 -29 29 0 0 15 -1 33
-3 30 -3 33 -7 29 -29z m-2016 -46 c3 -20 0 -21 -28 -6 -17 9 -18 13 -7 20 19
12 32 6 35 -14z m101 2 c32 0 74 -5 94 -10 53 -13 114 -72 164 -158 67 -113
90 -134 197 -176 51 -21 99 -42 106 -48 10 -8 13 -38 10 -120 -3 -123 9 -102
-108 -190 -25 -19 -44 -39 -43 -46 2 -6 -2 -11 -8 -11 -5 0 -8 -4 -4 -9 3 -5
0 -13 -6 -16 -5 -4 -8 -13 -5 -21 3 -8 1 -14 -5 -14 -6 0 -8 -4 -4 -9 3 -5 -3
-12 -14 -16 -11 -3 -22 -13 -25 -21 -3 -8 -10 -12 -16 -9 -5 3 -10 1 -10 -4 0
-6 -5 -11 -11 -11 -27 0 -44 -34 -41 -84 2 -28 4 -66 5 -85 1 -23 -4 -37 -16
-45 -16 -9 -24 -5 -50 25 -30 34 -91 146 -99 179 -2 8 -7 18 -11 21 -4 3 -9
17 -11 30 -1 14 -6 30 -10 37 -4 7 -4 17 -1 22 3 5 3 16 -2 22 -4 7 -9 27 -10
43 -1 17 -4 48 -7 70 -3 22 -6 48 -7 58 0 9 -4 17 -9 17 -5 0 -7 6 -4 14 3 7
-2 20 -10 29 -9 9 -16 19 -16 22 0 4 -28 36 -62 72 -35 35 -66 72 -70 81 -15
37 -8 152 13 213 12 34 23 82 25 108 2 25 3 47 4 49 0 2 4 1 9 -2 5 -4 35 -6
68 -7z"/>
<path d="M1355 2780 c-4 -6 -14 -9 -22 -6 -8 3 -20 3 -26 -1 -7 -4 -14 -8 -17
-8 -20 -2 -153 -82 -161 -96 -8 -16 -4 -20 35 -30 34 -8 45 -16 49 -34 2 -13
0 -30 -4 -37 -13 -19 -11 -123 2 -152 22 -48 59 -40 163 37 39 29 91 59 114
66 59 17 111 66 118 111 8 55 -45 124 -103 135 -10 2 -18 4 -18 6 0 2 -31 8
-81 15 -27 4 -44 2 -49 -6z m147 -73 c83 -35 70 -108 -25 -137 -23 -7 -44 -11
-46 -10 -2 1 -7 -2 -10 -7 -3 -4 -26 -21 -50 -37 -25 -16 -57 -42 -72 -59 -16
-17 -32 -27 -36 -23 -12 12 -8 117 7 160 12 38 12 41 -14 62 -14 13 -26 25
-26 27 0 6 78 38 104 43 10 2 20 5 22 7 8 7 110 -11 146 -26z m-272 -60 c0 -4
-3 -6 -7 -4 -5 2 -16 7 -27 11 -15 5 -16 9 -5 22 12 14 14 14 26 -2 7 -10 13
-22 13 -27z"/>
</g>
</svg>
