<?xml version="1.0" standalone="no"?>
<!DOCTYPE svg PUBLIC "-//W3C//DTD SVG 20010904//EN"
 "http://www.w3.org/TR/2001/REC-SVG-20010904/DTD/svg10.dtd">
<svg version="1.0" xmlns="http://www.w3.org/2000/svg"
 width="201.000000pt" height="210.000000pt" viewBox="0 0 201.000000 210.000000"
 preserveAspectRatio="xMidYMid meet">
<metadata>
Created by potrace 1.10, written by Peter Selinger 2001-2011
</metadata>
<g transform="translate(0.000000,210.000000) scale(0.100000,-0.100000)"
fill="#ffffff" stroke="none">
<path d="M540 2039 c-218 -25 -436 -66 -471 -86 l-28 -17 5 -170 c7 -238 13
-314 28 -319 7 -3 59 3 115 14 282 51 601 74 916 65 298 -8 459 -24 719 -70
43 -8 85 -12 92 -9 14 5 20 75 29 329 l6 161 -37 18 c-20 9 -93 28 -163 40
-239 45 -380 56 -721 60 -277 4 -349 1 -490 -16z m810 -19 c161 -10 357 -36
492 -67 66 -14 68 -15 74 -51 7 -35 -2 -421 -10 -429 -2 -2 -68 7 -147 21
-241 41 -380 50 -784 50 -398 1 -442 -2 -734 -50 -84 -14 -155 -23 -158 -20
-8 7 -9 453 -1 461 9 9 248 52 418 74 169 22 577 27 850 11z"/>
<path d="M500 1962 c-19 -11 -50 -40 -68 -66 -36 -48 -139 -276 -149 -328 l-6
-31 39 6 c208 32 356 41 679 41 319 0 479 -9 678 -40 30 -5 37 -3 37 11 0 47
-137 339 -178 377 -15 15 -45 31 -67 37 -60 16 -266 13 -378 -6 -84 -13 -109
-14 -161 -4 -33 7 -135 15 -226 17 -150 5 -168 4 -200 -14z m375 -22 c119 -19
121 -19 240 0 212 35 351 22 407 -37 29 -32 51 -73 119 -225 55 -126 66 -116
-106 -93 -248 34 -888 29 -1137 -9 -49 -7 -88 -9 -88 -5 0 14 60 160 100 244
41 85 78 120 142 135 60 14 202 10 323 -10z"/>
<path d="M482 1887 c-37 -39 -135 -267 -121 -281 2 -3 40 0 84 5 44 6 179 18
300 27 129 10 220 21 220 27 0 19 -170 45 -342 52 -95 3 -173 9 -173 13 0 3
14 44 30 89 17 46 29 85 27 87 -2 2 -13 -6 -25 -19z m326 -203 c24 -3 42 -8
39 -10 -3 -3 -87 -11 -188 -19 -101 -8 -203 -17 -226 -21 -46 -7 -50 -2 -34
39 l9 24 179 -4 c98 -2 198 -6 221 -9z"/>
<path d="M1480 1905 c0 -6 14 -46 30 -90 16 -44 30 -83 30 -86 0 -3 -78 -9
-172 -12 -150 -6 -272 -21 -340 -42 -40 -13 -4 -23 109 -30 65 -4 188 -13 273
-21 193 -17 220 -17 220 -1 0 26 -102 243 -125 267 -14 13 -25 20 -25 15z
m105 -225 c24 -46 20 -53 -22 -47 -21 3 -105 11 -188 17 -82 6 -170 14 -195
17 -43 6 -44 7 -15 14 17 3 89 8 160 9 105 2 231 11 242 19 1 0 9 -12 18 -29z"/>
<path d="M605 1448 c-133 -14 -427 -58 -468 -69 -25 -6 -41 -18 -47 -33 -17
-45 35 -250 115 -448 105 -262 252 -470 475 -671 69 -62 247 -196 261 -197 15
0 19 148 19 768 l0 662 -137 -1 c-76 -1 -174 -6 -218 -11z m325 -693 c0 -377
-3 -685 -6 -685 -10 0 -186 136 -248 191 -141 127 -307 349 -399 534 -68 137
-167 448 -167 525 0 26 4 29 48 39 154 33 523 74 710 79 l62 2 0 -685z"/>
<path d="M472 1295 c-85 -26 -178 -120 -208 -210 -22 -62 -15 -183 13 -247 30
-65 95 -133 162 -165 48 -24 68 -28 141 -28 73 0 93 4 141 28 63 30 125 92
161 159 20 37 23 58 23 143 0 92 -2 104 -30 153 -38 70 -112 136 -181 161 -63
24 -157 27 -222 6z m242 -39 c183 -90 233 -329 101 -484 -21 -24 -63 -54 -102
-74 -55 -27 -77 -32 -132 -32 -115 2 -221 65 -276 165 -27 48 -30 63 -30 139
0 65 5 96 21 131 40 87 122 157 209 180 55 15 151 3 209 -25z"/>
<path d="M629 1253 c22 -42 56 -63 89 -57 18 4 32 10 32 14 0 7 -110 60 -124
60 -4 0 -2 -8 3 -17z"/>
<path d="M451 1239 c-36 -16 -41 -22 -31 -34 19 -23 56 -18 79 11 38 49 24 55
-48 23z"/>
<path d="M532 1220 c-28 -38 -28 -40 8 -40 28 0 30 3 30 35 0 43 -10 44 -38 5z"/>
<path d="M588 1219 c5 -32 22 -45 48 -35 13 5 13 10 -6 36 -28 40 -48 39 -42
-1z"/>
<path d="M732 1175 c-28 -12 -32 -18 -27 -37 14 -46 29 -52 79 -33 25 10 46
21 46 24 0 9 -50 61 -58 61 -4 -1 -22 -7 -40 -15z m53 -35 c0 -9 -11 -16 -27
-18 -27 -3 -38 14 -21 32 12 12 48 2 48 -14z"/>
<path d="M356 1164 c-23 -23 -20 -43 10 -54 50 -19 73 -13 82 23 5 17 7 35 5
40 -8 13 -81 7 -97 -9z m69 -24 c0 -10 -9 -14 -29 -13 -33 2 -41 8 -31 23 10
16 60 8 60 -10z"/>
<path d="M481 1147 c-6 -8 -12 -24 -13 -38 -3 -22 1 -24 50 -27 l52 -3 0 31
c0 24 -6 33 -26 40 -34 13 -49 13 -63 -3z m59 -22 c8 -10 10 -19 4 -25 -12
-12 -54 -1 -54 14 0 29 30 35 50 11z"/>
<path d="M596 1147 c-14 -10 -15 -18 -7 -40 9 -24 16 -27 55 -27 54 0 62 10
41 50 -17 33 -56 41 -89 17z m63 -20 c13 -16 5 -27 -20 -27 -21 0 -33 15 -24
30 9 14 31 12 44 -3z"/>
<path d="M312 1087 c-6 -7 -14 -32 -18 -55 l-7 -42 67 0 67 0 -3 41 c-3 40 -5
42 -48 55 -25 8 -46 14 -46 14 -1 0 -6 -6 -12 -13z m63 -29 c14 -6 25 -19 25
-30 0 -14 -8 -18 -39 -18 -45 0 -53 7 -44 38 6 25 20 27 58 10z"/>
<path d="M795 1088 c-44 -16 -55 -27 -55 -58 0 -32 14 -40 76 -40 53 0 63 15
43 67 -16 42 -23 45 -64 31z m43 -57 c3 -32 3 -33 -30 -26 -18 4 -36 9 -40 12
-16 9 -7 34 15 43 37 15 52 7 55 -29z"/>
<path d="M446 1045 c-3 -9 -6 -25 -6 -36 0 -18 6 -20 62 -17 52 2 63 6 66 22
5 26 -6 34 -64 41 -43 6 -52 4 -58 -10z m93 -19 c10 -11 8 -16 -7 -20 -24 -8
-75 11 -67 24 9 15 61 12 74 -4z"/>
<path d="M621 1051 c-23 -6 -43 -38 -34 -53 2 -5 31 -8 64 -8 46 0 61 4 66 16
15 39 -36 63 -96 45z m64 -31 c0 -18 -43 -25 -65 -10 -13 9 -13 11 0 20 22 15
65 8 65 -10z"/>
<path d="M301 961 c-10 -6 -12 -20 -8 -46 9 -56 21 -65 65 -52 20 6 43 15 50
20 18 14 15 74 -4 81 -23 9 -87 7 -103 -3z m93 -26 c7 -19 -30 -57 -51 -53
-22 4 -38 32 -30 52 8 21 73 22 81 1z"/>
<path d="M468 963 c-21 -3 -28 -10 -28 -26 0 -43 14 -51 72 -41 48 8 53 12 56
37 3 23 0 27 -22 27 -13 0 -30 2 -38 3 -7 2 -25 2 -40 0z m77 -22 c6 -11 -25
-31 -47 -31 -22 0 -41 17 -34 29 9 13 73 15 81 2z"/>
<path d="M628 962 c-14 -2 -32 -10 -39 -19 -20 -23 14 -43 72 -43 46 0 59 9
59 45 0 14 -46 22 -92 17z m67 -22 c10 -16 -43 -32 -66 -19 -11 5 -17 14 -14
20 8 12 72 12 80 -1z"/>
<path d="M745 950 c-27 -30 -7 -65 45 -81 49 -15 65 -4 75 52 6 32 4 37 -17
42 -45 13 -85 7 -103 -13z m93 -37 c3 -19 -1 -23 -21 -23 -39 0 -57 10 -57 32
0 16 6 19 38 16 30 -2 38 -7 40 -25z"/>
<path d="M483 870 c-27 -11 -27 -12 -8 -50 26 -50 95 -32 95 25 0 33 -39 44
-87 25z m61 -29 c3 -5 -1 -14 -9 -21 -12 -10 -18 -10 -30 0 -8 7 -15 16 -15
21 0 12 47 12 54 0z"/>
<path d="M608 873 c-40 -10 -27 -67 17 -75 55 -11 90 53 39 72 -26 10 -28 11
-56 3z m60 -35 c-7 -20 -58 -23 -58 -4 0 11 10 16 31 16 20 0 29 -4 27 -12z"/>
<path d="M373 849 c-64 -19 -25 -87 42 -75 37 7 45 28 25 67 -12 21 -19 22
-67 8z m51 -28 c8 -13 -21 -34 -39 -27 -25 9 -18 36 9 36 14 0 27 -4 30 -9z"/>
<path d="M712 830 c-9 -26 -8 -32 11 -45 39 -27 73 -16 101 33 5 8 -4 17 -28
27 -54 23 -73 19 -84 -15z m67 1 c17 -11 7 -41 -12 -41 -19 0 -40 26 -32 40 8
12 25 13 44 1z"/>
<path d="M520 770 c-13 -8 -10 -15 18 -42 l32 -33 0 37 c0 23 -5 38 -16 42
-19 7 -16 8 -34 -4z"/>
<path d="M590 754 c-6 -14 -6 -32 -2 -40 7 -12 12 -10 31 10 25 26 23 56 -4
56 -8 0 -20 -12 -25 -26z"/>
<path d="M423 754 c-7 -3 -13 -9 -13 -14 0 -10 100 -53 108 -46 3 4 -3 19 -15
34 -19 26 -54 37 -80 26z"/>
<path d="M655 730 c-16 -16 -26 -33 -22 -36 7 -8 63 11 95 32 20 13 22 18 11
25 -26 16 -55 9 -84 -21z"/>
<path d="M1030 1358 l1 -103 89 -55 90 -55 0 -151 c0 -83 -3 -172 -6 -197 l-6
-45 -75 50 c-40 28 -77 47 -81 43 -9 -8 -9 -801 0 -810 3 -3 45 19 92 51 l86
57 0 289 c0 159 4 288 8 286 4 -2 40 -25 80 -53 l72 -50 1 -135 c2 -205 0
-203 94 -90 86 104 181 243 226 332 98 193 177 412 199 552 15 92 10 101 -62
110 -28 4 -64 10 -79 13 l-29 6 0 -292 c0 -190 -4 -291 -10 -291 -6 0 -42 21
-80 46 l-70 47 0 257 0 257 -65 7 c-36 4 -79 9 -95 13 l-30 6 0 -207 0 -206
-80 52 -80 53 0 138 c0 76 -5 147 -10 158 -9 16 -22 19 -95 19 l-85 0 0 -102z
m160 -43 l0 -126 -22 12 c-13 7 -42 25 -65 41 l-43 29 0 84 0 85 65 0 65 0 0
-125z m350 -137 l0 -229 -62 43 -63 44 -3 189 -2 190 65 -3 65 -4 0 -230z
m290 181 c46 -10 50 -13 50 -39 0 -50 -102 -410 -116 -410 -2 0 -4 104 -4 230
0 139 4 230 10 230 5 0 32 -5 60 -11z m-487 -321 l27 -19 0 -175 c0 -101 -4
-174 -9 -174 -5 0 -37 17 -70 38 l-61 37 1 172 c0 94 3 174 6 177 6 6 49 -18
106 -56z m139 -79 l78 -52 0 -193 c0 -107 -3 -194 -7 -194 -5 0 -42 23 -83 50
l-74 49 -1 196 c0 107 2 195 4 195 3 0 40 -23 83 -51z m169 -130 l59 -40 -37
-67 c-20 -37 -47 -84 -59 -105 l-21 -38 -6 38 c-8 47 -9 253 -1 253 3 0 32
-18 65 -41z m-459 -111 c-1 -5 -2 -133 -2 -287 l0 -278 -62 -41 -63 -42 -3
348 c-1 191 0 357 3 370 6 23 7 22 67 -20 34 -24 61 -46 60 -50z m306 -196
l33 -27 -61 -74 -60 -74 0 117 0 117 28 -16 c15 -9 42 -28 60 -43z"/>
</g>
</svg>
