<svg id="svg" version="1.1" width="800" height="450" xmlns="http://www.w3.org/2000/svg"><path d="M361.500 9.018 C 340.503 9.652,320.604 11.225,291.000 14.593 C 271.381 16.825,237.109 22.160,224.000 25.023 C 219.325 26.043,213.540 27.144,211.145 27.468 C 205.649 28.212,201.470 30.353,199.426 33.473 C 198.035 35.596,197.847 40.688,197.940 73.702 C 198.049 112.123,199.715 137.015,202.354 139.640 C 203.212 140.494,205.384 140.347,211.000 139.055 C 223.304 136.223,255.625 130.797,273.500 128.561 C 323.479 122.310,351.878 120.500,400.000 120.500 C 447.538 120.500,480.475 122.592,527.500 128.597 C 544.124 130.720,577.286 136.359,589.000 139.055 C 594.617 140.347,596.789 140.494,597.649 139.640 C 600.130 137.179,601.934 111.053,602.219 73.461 C 602.477 39.510,602.353 36.197,600.741 33.731 C 598.540 30.367,594.484 28.230,588.855 27.468 C 586.460 27.144,580.675 26.043,576.000 25.023 C 571.325 24.002,562.775 22.426,557.000 21.520 C 551.225 20.614,542.900 19.229,538.500 18.441 C 534.100 17.654,526.675 16.600,522.000 16.099 C 517.325 15.598,509.225 14.698,504.000 14.100 C 457.072 8.725,417.727 7.322,361.500 9.018 M469.000 14.932 C 509.270 18.089,537.381 21.914,577.451 29.689 C 592.169 32.545,594.810 33.385,596.637 35.789 C 599.562 39.639,597.577 131.756,594.503 134.830 C 594.213 135.121,589.593 134.561,584.238 133.586 C 539.943 125.527,512.475 121.909,468.000 118.278 C 437.677 115.803,362.436 115.797,332.000 118.269 C 288.736 121.782,260.271 125.535,215.762 133.595 C 210.407 134.565,205.819 135.153,205.568 134.901 C 202.813 132.147,200.514 41.145,203.078 36.354 C 204.851 33.041,207.905 32.240,244.000 25.614 C 275.316 19.866,322.552 14.780,360.500 13.069 C 388.372 11.813,440.667 12.711,469.000 14.932 M311.000 25.473 C 305.225 26.240,299.992 26.897,299.370 26.934 C 298.749 26.970,295.653 29.009,292.490 31.465 C 289.327 33.921,285.310 36.403,283.562 36.979 C 279.812 38.217,281.093 35.759,261.630 79.092 C 253.583 97.007,247.000 112.810,247.000 114.210 C 247.000 119.833,249.220 119.987,274.000 116.082 C 347.250 104.539,449.369 104.371,523.000 115.672 C 552.357 120.177,553.685 120.060,552.721 113.041 C 552.272 109.778,530.376 60.006,522.787 45.000 C 520.135 39.756,518.706 38.114,515.392 36.500 C 513.133 35.400,509.403 32.986,507.103 31.135 C 502.259 27.237,499.766 26.581,483.549 24.940 C 461.965 22.756,427.818 26.269,406.260 32.893 C 400.562 34.644,399.607 34.684,395.260 33.358 C 370.802 25.892,333.867 22.436,311.000 25.473 M351.000 29.583 C 362.462 30.243,377.539 32.920,392.250 36.909 L 400.000 39.010 407.750 36.904 C 431.707 30.394,458.981 27.488,481.000 29.100 C 498.536 30.384,499.020 30.511,505.488 35.533 C 508.675 38.008,512.392 40.311,513.746 40.651 C 516.124 41.248,517.534 43.720,524.501 59.500 C 525.229 61.150,527.267 65.650,529.029 69.500 C 530.791 73.350,533.931 80.325,536.007 85.000 C 538.083 89.675,541.565 97.325,543.745 102.000 C 545.926 106.675,548.052 111.581,548.470 112.902 C 549.221 115.273,549.169 115.294,544.366 114.575 C 541.689 114.174,537.025 113.499,534.000 113.074 C 530.975 112.649,523.775 111.574,518.000 110.684 C 483.721 105.402,453.016 103.544,400.000 103.544 C 346.984 103.544,316.279 105.402,282.000 110.684 C 276.225 111.574,269.025 112.649,266.000 113.074 C 262.975 113.499,258.311 114.174,255.634 114.575 C 250.831 115.294,250.779 115.273,251.530 112.902 C 251.948 111.581,254.073 106.675,256.252 102.000 C 258.430 97.325,262.818 87.650,266.003 80.500 C 269.187 73.350,273.125 64.575,274.754 61.000 C 276.383 57.425,278.999 51.654,280.568 48.176 C 282.719 43.405,284.167 41.535,286.460 40.563 C 288.132 39.854,291.960 37.414,294.967 35.142 C 297.974 32.869,301.799 30.775,303.467 30.489 C 309.832 29.397,328.736 28.197,334.000 28.551 C 337.025 28.754,344.675 29.218,351.000 29.583 M290.500 42.975 C 284.241 47.986,283.867 48.634,277.526 65.500 C 276.079 69.350,274.509 73.400,274.037 74.500 C 270.885 81.854,263.000 103.309,263.000 104.534 C 263.000 105.674,263.881 105.911,266.750 105.546 C 297.702 101.605,327.117 98.965,351.000 97.985 C 394.086 96.217,398.000 95.882,398.000 93.961 C 398.000 91.697,366.187 84.811,344.592 82.400 C 328.229 80.573,300.343 80.865,289.690 82.973 C 281.759 84.543,280.631 84.228,282.356 80.925 C 283.095 79.508,283.941 77.258,284.235 75.925 C 284.529 74.591,286.651 68.325,288.951 62.000 C 294.834 45.819,297.168 38.834,296.809 38.479 C 296.639 38.311,293.800 40.334,290.500 42.975 M503.011 39.750 C 503.026 40.830,505.511 48.398,508.511 56.500 C 513.535 70.073,517.970 83.363,517.599 83.734 C 517.393 83.940,512.208 83.410,506.078 82.555 C 480.573 78.997,444.831 81.749,414.500 89.605 C 399.696 93.439,398.356 94.200,404.250 95.426 C 406.038 95.798,421.675 96.717,439.000 97.469 C 456.325 98.220,477.700 99.558,486.500 100.443 C 504.424 102.244,527.855 104.851,532.672 105.581 C 534.417 105.845,536.096 105.654,536.404 105.155 C 536.712 104.657,535.005 99.312,532.610 93.278 C 530.216 87.244,527.690 80.550,526.998 78.403 C 526.306 76.257,525.412 74.050,525.011 73.500 C 524.611 72.950,523.128 69.125,521.715 65.000 C 516.896 50.930,514.564 46.770,509.244 42.750 C 504.249 38.975,502.991 38.370,503.011 39.750 M286.000 57.500 C 286.000 57.775,285.775 58.000,285.500 58.000 C 285.225 58.000,285.000 57.775,285.000 57.500 C 285.000 57.225,285.225 57.000,285.500 57.000 C 285.775 57.000,286.000 57.225,286.000 57.500 M515.000 59.500 C 515.000 59.775,514.775 60.000,514.500 60.000 C 514.225 60.000,514.000 59.775,514.000 59.500 C 514.000 59.225,514.225 59.000,514.500 59.000 C 514.775 59.000,515.000 59.225,515.000 59.500 M283.345 65.543 C 283.019 66.392,282.538 66.872,282.276 66.610 C 282.014 66.348,282.096 65.653,282.459 65.067 C 283.445 63.471,284.021 63.781,283.345 65.543 M517.000 65.500 C 517.000 65.775,516.775 66.000,516.500 66.000 C 516.225 66.000,516.000 65.775,516.000 65.500 C 516.000 65.225,516.225 65.000,516.500 65.000 C 516.775 65.000,517.000 65.225,517.000 65.500 M518.969 70.500 C 518.969 71.050,518.533 70.825,518.000 70.000 C 517.467 69.175,517.031 68.050,517.031 67.500 C 517.031 66.950,517.467 67.175,518.000 68.000 C 518.533 68.825,518.969 69.950,518.969 70.500 M281.667 69.667 C 281.300 70.033,281.000 69.733,281.000 69.000 C 281.000 68.267,281.300 67.967,281.667 68.333 C 282.033 68.700,282.033 69.300,281.667 69.667 M280.667 72.667 C 280.300 73.033,280.000 72.733,280.000 72.000 C 280.000 71.267,280.300 70.967,280.667 71.333 C 281.033 71.700,281.033 72.300,280.667 72.667 M524.909 85.454 C 527.709 92.578,530.000 99.050,530.000 99.835 C 530.000 100.929,529.126 101.115,526.250 100.632 C 514.186 98.605,476.879 95.264,452.000 93.981 C 440.175 93.372,428.925 92.611,427.000 92.291 C 423.703 91.742,423.876 91.634,430.000 90.417 C 454.095 85.628,488.287 84.062,507.812 86.854 C 519.374 88.508,522.000 87.999,522.000 84.107 C 522.000 82.536,521.325 79.338,520.500 77.000 C 518.973 72.672,518.677 71.337,519.409 72.083 C 519.634 72.313,522.109 78.329,524.909 85.454 M278.546 78.871 C 277.472 81.914,277.340 83.765,278.063 85.666 C 279.029 88.208,279.227 88.261,285.278 87.607 C 306.976 85.265,314.887 84.846,326.725 85.414 C 340.581 86.078,358.984 88.202,370.000 90.407 C 376.133 91.635,376.303 91.742,373.000 92.294 C 371.075 92.616,359.825 93.360,348.000 93.947 C 325.349 95.073,301.420 97.109,281.627 99.595 C 275.096 100.415,269.590 100.924,269.391 100.725 C 269.192 100.526,271.273 94.557,274.015 87.462 C 276.757 80.366,279.000 74.359,279.000 74.113 C 279.000 73.868,279.230 73.896,279.511 74.177 C 279.792 74.458,279.357 76.570,278.546 78.871 M358.500 137.092 C 317.498 138.868,277.156 143.231,238.500 150.070 C 200.618 156.772,204.432 155.411,204.783 162.102 C 205.514 176.058,217.622 221.743,227.019 246.000 C 228.191 249.025,229.521 252.625,229.975 254.000 C 233.124 263.546,249.437 296.078,258.291 310.465 C 267.776 325.881,286.477 352.959,289.048 355.000 C 289.394 355.275,292.516 358.875,295.986 363.000 C 313.491 383.808,345.705 413.011,365.036 425.594 C 367.491 427.192,369.950 428.859,370.500 429.297 C 372.665 431.022,382.213 437.001,382.837 437.022 C 383.202 437.034,384.625 437.924,386.000 439.000 C 387.375 440.076,389.289 440.966,390.253 440.978 C 391.918 440.999,391.994 433.293,391.753 288.750 L 391.500 136.500 384.500 136.385 C 380.650 136.321,368.950 136.640,358.500 137.092 M408.750 136.583 C 408.337 136.996,408.000 146.596,408.000 157.917 L 408.000 178.500 411.250 181.050 C 413.038 182.453,416.300 184.679,418.500 185.997 C 420.700 187.316,422.725 188.643,423.000 188.947 C 423.762 189.790,440.192 200.562,442.750 201.897 L 445.000 203.070 445.000 245.903 L 445.000 288.736 427.931 277.368 C 418.544 271.116,410.219 266.000,409.431 266.000 C 408.200 266.000,408.000 278.253,408.000 353.500 C 408.000 438.431,408.055 441.000,409.878 441.000 C 410.910 441.000,412.301 440.342,412.968 439.539 C 413.635 438.735,415.053 437.801,416.119 437.462 C 417.858 436.910,426.962 431.344,429.500 429.281 C 430.050 428.834,432.750 427.032,435.500 425.277 C 438.250 423.521,441.962 420.741,443.750 419.099 L 447.000 416.113 447.000 354.124 L 447.000 292.136 452.750 296.109 C 455.913 298.294,460.300 301.247,462.500 302.672 C 469.202 307.010,479.398 313.906,481.250 315.353 C 482.855 316.607,483.000 319.510,483.000 350.360 C 483.000 368.862,483.350 384.000,483.777 384.000 C 485.731 384.000,505.941 361.371,518.607 345.000 C 523.554 338.606,537.116 318.374,540.394 312.500 C 541.315 310.850,543.458 307.250,545.157 304.500 C 548.489 299.106,566.000 264.666,566.000 263.506 C 566.000 263.119,566.650 261.384,567.446 259.651 C 578.103 236.419,594.316 179.436,595.217 162.044 C 595.480 156.972,595.324 156.537,593.000 155.877 C 586.726 154.095,566.059 150.666,561.000 150.568 L 557.500 150.500 556.989 214.000 C 556.708 248.925,556.370 276.971,556.239 276.323 C 556.107 275.676,553.638 273.729,550.750 271.996 C 545.679 268.952,536.554 262.947,534.500 261.301 C 533.950 260.861,530.916 258.810,527.759 256.746 L 522.017 252.991 521.759 198.746 L 521.500 144.500 512.000 142.881 C 506.775 141.991,498.113 140.990,492.750 140.658 L 483.000 140.054 483.000 183.469 L 483.000 226.885 477.750 223.527 C 474.863 221.680,471.375 219.316,470.000 218.273 C 468.625 217.231,465.700 215.304,463.500 213.992 C 461.300 212.679,459.275 211.356,459.000 211.050 C 458.725 210.744,455.913 208.804,452.750 206.737 L 447.000 202.980 447.000 170.578 L 447.000 138.176 443.250 137.636 C 436.347 136.643,409.509 135.824,408.750 136.583 M387.967 287.500 C 387.987 368.075,387.666 433.997,387.252 433.993 C 386.838 433.990,385.150 433.070,383.500 431.949 C 381.850 430.828,377.350 428.054,373.500 425.786 C 359.349 417.447,338.295 400.061,318.824 380.636 C 286.314 348.204,267.713 321.703,245.029 275.500 C 233.118 251.241,228.050 238.229,220.601 212.784 C 215.292 194.649,208.779 165.688,209.201 162.092 C 209.449 159.980,210.183 159.425,213.500 158.845 C 215.700 158.460,224.925 156.802,234.000 155.161 C 264.827 149.587,292.056 146.008,322.500 143.527 C 332.950 142.676,343.075 141.831,345.000 141.649 C 346.925 141.468,357.372 141.248,368.215 141.160 L 387.929 141.000 387.967 287.500 M442.577 168.750 C 442.619 183.738,442.394 195.983,442.077 195.962 C 441.760 195.942,434.975 191.529,427.000 186.157 L 412.500 176.389 412.419 158.669 L 412.339 140.950 427.419 141.225 L 442.500 141.500 442.577 168.750 M506.761 146.380 C 511.855 147.100,516.246 147.913,516.521 148.187 C 516.795 148.462,516.902 170.605,516.760 197.395 L 516.500 246.104 511.500 242.809 C 508.750 240.996,505.825 238.959,505.000 238.281 C 504.175 237.603,499.900 234.637,495.500 231.690 L 487.500 226.331 487.239 185.665 L 486.978 145.000 492.239 145.035 C 495.132 145.055,501.667 145.660,506.761 146.380 M579.000 157.370 C 589.777 159.523,590.519 159.824,590.799 162.153 C 591.513 168.093,580.026 213.439,572.515 234.332 C 568.754 244.794,563.027 259.297,562.413 259.917 C 562.186 260.146,562.000 236.633,562.000 207.667 L 562.000 155.000 564.750 155.037 C 566.263 155.057,572.675 156.107,579.000 157.370 M300.161 169.014 C 273.335 172.757,251.344 191.949,242.846 219.035 C 240.861 225.362,240.510 228.558,240.546 240.000 C 240.591 254.602,241.676 259.913,246.950 271.348 C 250.583 279.223,259.768 290.785,265.803 295.079 C 268.386 296.917,270.950 298.917,271.500 299.523 C 272.050 300.129,276.100 302.271,280.500 304.282 C 298.885 312.686,319.659 313.247,339.000 305.861 C 354.045 300.115,370.526 283.897,376.915 268.551 C 389.925 237.297,380.727 202.341,354.227 182.333 C 339.512 171.223,319.559 166.307,300.161 169.014 M332.667 176.002 C 343.500 179.755,349.655 183.591,358.248 191.942 C 369.524 202.900,375.299 214.458,377.514 230.500 C 379.544 245.198,376.837 260.327,370.000 272.501 C 362.326 286.163,348.028 298.289,334.000 303.032 C 308.534 311.641,282.738 305.740,263.969 287.014 C 257.324 280.384,254.283 275.920,248.971 265.000 C 244.157 255.103,243.072 232.850,246.817 220.811 C 252.717 201.840,265.580 186.555,281.678 179.385 C 294.314 173.756,297.085 173.155,310.752 173.076 C 322.994 173.006,324.664 173.229,332.667 176.002 M293.922 178.962 C 288.007 180.909,277.835 185.827,274.500 188.353 C 272.575 189.811,272.671 189.944,277.042 191.889 C 279.541 193.001,283.367 194.195,285.546 194.543 C 289.506 195.177,289.509 195.174,295.003 187.968 C 303.971 176.207,303.513 176.991,301.372 177.063 C 300.342 177.098,296.990 177.952,293.922 178.962 M320.000 177.944 C 320.000 178.464,321.589 180.601,323.532 182.694 C 325.474 184.787,328.287 188.412,329.782 190.748 C 332.826 195.506,334.037 195.789,341.568 193.504 C 349.205 191.187,349.991 190.384,347.000 187.957 C 342.948 184.670,334.982 180.854,328.010 178.860 C 320.536 176.723,320.000 176.661,320.000 177.944 M302.300 185.276 C 292.986 195.124,293.135 196.958,303.250 196.985 L 309.000 197.000 309.000 188.500 C 309.000 183.825,308.615 180.000,308.145 180.000 C 307.675 180.000,305.045 182.374,302.300 185.276 M313.526 181.099 C 313.183 181.979,313.036 185.804,313.201 189.599 L 313.500 196.500 319.986 196.500 C 328.698 196.500,328.788 195.062,320.623 186.382 C 315.640 181.084,314.006 179.868,313.526 181.099 M291.000 185.671 C 291.000 187.306,287.481 190.000,285.345 190.000 C 282.053 190.000,282.429 188.647,286.250 186.745 C 289.884 184.937,291.000 184.684,291.000 185.671 M336.466 186.685 C 340.700 188.704,341.012 190.012,337.250 189.969 C 335.502 189.949,333.845 189.037,332.703 187.469 C 330.595 184.572,331.598 184.364,336.466 186.685 M319.757 192.576 C 318.773 193.561,317.000 192.050,317.000 190.227 C 317.000 188.700,317.132 188.703,318.690 190.262 C 319.620 191.192,320.100 192.233,319.757 192.576 M305.000 191.500 C 305.000 192.325,304.270 193.000,303.378 193.000 C 302.049 193.000,301.980 192.729,303.000 191.500 C 303.685 190.675,304.415 190.000,304.622 190.000 C 304.830 190.000,305.000 190.675,305.000 191.500 M263.801 198.777 C 261.288 201.375,258.683 204.570,258.012 205.877 C 256.541 208.747,257.002 209.124,264.928 211.529 C 267.993 212.459,272.300 213.801,274.500 214.511 C 276.700 215.222,278.852 215.587,279.282 215.323 C 279.712 215.059,280.976 212.740,282.091 210.171 C 283.206 207.602,284.768 204.223,285.563 202.661 C 287.276 199.297,286.721 198.000,283.567 198.000 C 282.293 198.000,279.507 197.394,277.376 196.652 C 268.805 193.672,268.729 193.684,263.801 198.777 M347.500 196.039 C 344.200 197.101,340.768 197.977,339.872 197.985 C 336.225 198.018,335.759 200.592,338.443 205.888 C 339.849 208.663,341.000 211.568,341.000 212.344 C 341.000 215.835,343.505 216.002,352.632 213.116 C 357.572 211.555,362.608 209.745,363.824 209.094 L 366.034 207.911 363.326 204.206 C 360.027 199.692,354.811 193.980,354.054 194.054 C 353.749 194.083,350.800 194.977,347.500 196.039 M275.322 200.594 C 280.471 202.348,280.471 202.350,278.902 206.851 C 277.621 210.527,276.146 210.708,268.073 208.175 L 262.646 206.473 265.927 202.736 C 267.731 200.681,269.530 199.000,269.925 199.000 C 270.321 199.000,272.749 199.717,275.322 200.594 M356.411 202.077 C 357.835 203.769,359.000 205.551,359.000 206.038 C 359.000 206.996,349.775 210.000,346.832 210.000 C 345.700 210.000,344.458 208.638,343.500 206.346 C 342.661 204.337,342.092 202.599,342.237 202.483 C 342.829 202.012,351.585 199.152,352.661 199.079 C 353.300 199.036,354.987 200.385,356.411 202.077 M290.662 202.185 C 287.771 206.739,284.706 215.106,285.604 215.996 C 286.769 217.151,298.169 218.983,304.250 218.992 L 309.000 219.000 309.000 210.615 L 309.000 202.230 303.250 201.575 C 300.087 201.214,296.292 200.683,294.816 200.395 C 292.759 199.993,291.788 200.412,290.662 202.185 M327.500 200.492 C 326.950 200.689,323.445 201.146,319.711 201.509 L 312.922 202.168 313.211 210.334 L 313.500 218.500 320.500 218.463 C 324.350 218.443,329.637 218.078,332.250 217.652 C 337.646 216.772,338.138 215.458,335.435 209.151 C 331.720 200.485,330.684 199.354,327.500 200.492 M304.807 210.306 L 305.114 215.112 298.807 214.435 C 295.338 214.062,292.099 213.388,291.608 212.937 C 291.095 212.464,291.442 210.587,292.429 208.509 C 294.105 204.975,294.249 204.907,299.321 205.200 L 304.500 205.500 304.807 210.306 M330.332 208.818 C 331.437 210.716,331.886 212.500,331.382 212.987 C 330.897 213.455,327.575 213.987,324.000 214.169 C 317.587 214.496,317.496 214.464,317.188 211.799 C 317.017 210.314,317.383 208.153,318.001 206.997 C 318.939 205.245,319.898 204.946,323.763 205.198 C 327.818 205.462,328.643 205.917,330.332 208.818 M465.195 220.750 L 479.958 230.500 479.979 269.250 C 479.991 292.285,479.626 308.000,479.077 308.000 C 478.569 308.000,476.881 306.938,475.327 305.641 C 473.772 304.343,471.150 302.531,469.500 301.614 C 467.850 300.697,462.675 297.260,458.000 293.976 L 449.500 288.006 449.419 249.503 C 449.374 228.326,449.584 211.000,449.885 211.000 C 450.187 211.000,457.076 215.387,465.195 220.750 M252.223 218.154 C 249.710 224.897,247.668 234.654,248.491 235.986 C 249.460 237.553,275.972 237.329,276.407 235.750 C 277.066 233.357,278.894 220.560,278.616 220.283 C 278.284 219.951,259.447 214.058,256.358 213.320 C 254.528 212.883,253.925 213.589,252.223 218.154 M354.824 216.797 L 344.148 220.372 344.657 227.436 C 344.937 231.321,345.340 235.063,345.552 235.750 C 345.836 236.673,349.639 237.000,360.084 237.000 L 374.230 237.000 373.550 231.250 C 372.540 222.715,369.085 212.976,367.115 213.111 C 366.227 213.173,360.696 214.831,354.824 216.797 M273.602 223.269 C 273.764 223.431,273.575 225.799,273.181 228.532 L 272.465 233.500 263.090 233.274 C 257.934 233.150,253.496 232.829,253.229 232.562 C 252.713 232.046,254.355 224.826,255.932 220.679 L 256.876 218.197 265.091 220.585 C 269.610 221.899,273.440 223.106,273.602 223.269 M368.056 224.958 C 369.218 228.785,369.890 232.368,369.549 232.920 C 369.195 233.494,365.839 233.781,361.715 233.591 C 357.747 233.408,353.262 233.200,351.750 233.129 C 349.139 233.007,349.000 232.750,349.000 228.071 L 349.000 223.142 354.750 221.538 C 357.913 220.655,361.400 219.529,362.500 219.034 C 365.741 217.578,365.849 217.694,368.056 224.958 M283.065 222.879 C 282.468 223.995,281.695 227.629,281.347 230.954 L 280.715 237.000 294.903 237.000 L 309.091 237.000 308.796 230.250 L 308.500 223.500 300.500 222.892 C 296.100 222.558,290.621 221.962,288.325 221.567 C 284.737 220.950,283.998 221.134,283.065 222.879 M333.787 221.547 C 333.486 221.847,328.799 222.410,323.370 222.797 L 313.500 223.500 313.204 230.250 L 312.909 237.000 326.954 237.000 L 341.000 237.000 341.000 231.565 C 341.000 224.244,339.677 221.000,336.691 221.000 C 335.394 221.000,334.087 221.246,333.787 221.547 M304.335 228.006 C 304.794 228.426,305.019 229.834,304.835 231.135 C 304.521 233.350,304.024 233.519,297.012 233.799 C 286.285 234.226,285.303 233.848,285.812 229.488 L 286.229 225.914 294.864 226.579 C 299.614 226.944,303.876 227.587,304.335 228.006 M336.393 227.582 C 337.534 230.556,337.029 232.998,335.250 233.111 C 319.288 234.120,316.377 233.506,317.176 229.298 C 317.444 227.888,318.812 227.374,323.509 226.918 C 334.476 225.853,335.755 225.919,336.393 227.582 M486.962 231.455 C 487.626 232.255,490.269 234.128,492.835 235.618 C 495.401 237.108,497.725 238.600,498.000 238.933 C 498.275 239.267,503.325 242.681,509.221 246.520 L 519.942 253.500 519.971 295.750 C 519.987 318.988,519.744 338.000,519.432 338.000 C 519.119 338.000,511.019 332.811,501.432 326.469 L 484.000 314.938 484.000 272.469 C 484.000 248.773,484.388 230.000,484.878 230.000 C 485.360 230.000,486.298 230.655,486.962 231.455 M249.550 242.340 C 247.516 243.827,247.766 247.125,250.620 256.500 C 253.815 266.992,254.007 267.111,262.897 264.108 C 265.979 263.067,270.750 261.574,273.500 260.790 C 277.868 259.545,278.470 259.057,278.263 256.932 C 277.211 246.143,276.555 242.399,275.603 241.765 C 273.553 240.399,251.540 240.885,249.550 242.340 M282.250 241.662 C 280.745 242.269,280.676 246.881,282.080 252.975 C 283.327 258.388,284.146 258.985,288.852 257.912 C 290.858 257.455,296.212 256.775,300.750 256.403 L 309.000 255.725 309.000 248.969 C 309.000 243.732,308.645 242.078,307.418 241.607 C 305.541 240.887,284.055 240.934,282.250 241.662 M314.228 242.172 C 313.541 242.859,313.000 245.944,313.000 249.181 C 313.000 255.830,312.001 255.252,326.500 257.000 C 331.450 257.597,336.263 258.313,337.195 258.592 C 339.455 259.269,341.261 253.250,340.824 246.500 L 340.500 241.500 327.978 241.222 C 319.088 241.024,315.100 241.300,314.228 242.172 M346.779 242.250 C 345.607 243.163,345.084 245.639,344.837 251.443 L 344.500 259.386 349.500 260.785 C 352.250 261.554,356.759 263.043,359.519 264.092 C 367.563 267.150,368.454 266.846,370.806 260.250 C 373.461 252.801,374.474 244.275,372.924 242.409 C 371.358 240.522,349.168 240.387,346.779 242.250 M273.167 249.500 C 273.258 251.425,273.371 253.772,273.417 254.715 C 273.480 256.026,271.625 256.950,265.537 258.642 C 261.157 259.859,257.249 260.654,256.852 260.409 C 256.001 259.882,253.000 249.902,253.000 247.596 C 253.000 246.241,254.510 246.000,263.000 246.000 L 273.000 246.000 273.167 249.500 M305.000 248.839 C 305.000 251.664,304.959 251.682,296.250 252.683 C 291.438 253.236,287.163 253.507,286.750 253.285 C 286.337 253.063,286.000 251.334,286.000 249.441 L 286.000 246.000 295.500 246.000 L 305.000 246.000 305.000 248.839 M336.985 248.750 C 336.957 253.704,336.332 253.938,326.572 252.644 C 317.742 251.474,316.175 250.592,317.374 247.467 C 317.815 246.320,320.014 246.000,327.469 246.000 L 337.000 246.000 336.985 248.750 M369.228 249.500 C 369.079 251.150,368.239 254.451,367.363 256.836 C 366.186 260.038,365.341 261.039,364.134 260.661 C 363.235 260.379,359.575 259.323,356.000 258.315 C 349.551 256.495,349.498 256.451,349.183 252.635 C 348.638 246.015,348.837 245.894,359.733 246.214 L 369.500 246.500 369.228 249.500 M294.298 261.401 C 289.787 262.044,285.780 262.887,285.393 263.274 C 284.767 263.899,288.730 274.422,290.869 277.814 C 291.507 278.827,293.684 278.968,300.349 278.427 L 309.000 277.725 309.000 268.862 L 309.000 260.000 305.750 260.115 C 303.962 260.179,298.809 260.757,294.298 261.401 M314.224 261.176 C 313.483 261.917,313.000 265.271,313.000 269.681 C 313.000 278.109,312.729 277.907,324.500 278.279 L 331.500 278.500 334.215 273.000 C 335.708 269.975,336.833 266.378,336.715 265.007 C 336.529 262.857,335.882 262.430,332.000 261.895 C 319.204 260.135,315.418 259.982,314.224 261.176 M541.250 271.363 C 547.712 275.674,553.000 279.395,553.000 279.634 C 553.000 281.894,526.089 327.953,524.750 327.983 C 524.337 327.992,524.000 312.707,524.000 294.015 L 524.000 260.029 526.750 261.777 C 528.263 262.738,534.788 267.052,541.250 271.363 M269.683 266.117 C 262.442 268.136,257.000 270.571,257.000 271.790 C 257.000 272.196,259.303 275.375,262.118 278.854 C 267.085 284.992,267.342 285.158,270.868 284.499 C 276.236 283.494,287.117 279.789,286.730 279.099 C 286.180 278.117,282.892 270.743,281.447 267.250 C 279.896 263.502,279.275 263.442,269.683 266.117 M341.381 265.750 C 340.910 267.230,338.004 274.672,336.340 278.659 C 335.868 279.789,350.370 285.000,353.987 285.000 C 355.919 285.000,358.415 282.408,362.906 275.738 L 366.112 270.977 361.685 269.079 C 357.071 267.101,345.899 264.000,343.388 264.000 C 342.590 264.000,341.687 264.788,341.381 265.750 M305.000 269.500 C 305.000 273.956,304.966 274.000,301.582 274.000 C 299.702 274.000,297.470 274.266,296.623 274.591 C 295.591 274.987,294.408 274.078,293.045 271.841 C 289.558 266.122,290.311 265.421,300.250 265.136 L 305.000 265.000 305.000 269.500 M331.626 266.292 C 331.908 266.575,331.220 268.609,330.096 270.811 C 328.111 274.704,327.932 274.803,323.776 274.326 C 321.424 274.056,318.938 273.662,318.250 273.449 C 316.905 273.033,316.512 266.836,317.750 265.561 C 318.533 264.754,330.731 265.397,331.626 266.292 M278.474 271.950 C 280.937 276.713,280.456 277.571,274.516 278.996 L 269.033 280.312 266.766 277.430 C 265.520 275.845,264.500 274.088,264.500 273.524 C 264.500 272.560,273.070 269.139,275.724 269.044 C 276.398 269.020,277.635 270.328,278.474 271.950 M355.750 271.541 C 357.538 272.287,359.000 273.287,359.000 273.762 C 359.000 274.237,357.671 275.899,356.046 277.456 C 353.160 280.221,352.982 280.256,348.296 278.995 C 345.658 278.286,343.202 277.434,342.839 277.103 C 342.475 276.771,342.876 274.774,343.730 272.665 C 345.221 268.980,345.423 268.857,348.891 269.507 C 350.876 269.879,353.962 270.794,355.750 271.541 M416.553 275.250 C 418.106 276.488,420.839 278.400,422.626 279.500 C 424.414 280.600,428.982 283.624,432.777 286.219 C 436.572 288.815,440.377 291.207,441.232 291.536 C 442.614 292.066,442.795 298.904,442.855 353.033 C 442.915 407.062,442.746 414.112,441.355 415.502 C 439.471 417.386,428.364 425.000,427.500 425.000 C 427.165 425.000,424.224 426.811,420.965 429.024 C 417.706 431.237,414.413 433.288,413.647 433.582 C 412.464 434.036,412.272 422.025,412.372 353.558 C 412.436 309.251,412.768 273.000,413.110 273.000 C 413.451 273.000,415.001 274.012,416.553 275.250 M300.000 282.685 C 295.123 283.491,294.809 283.775,296.112 286.209 C 297.622 289.031,307.000 299.000,308.145 299.000 C 308.615 299.000,309.000 295.175,309.000 290.500 L 309.000 282.000 305.750 282.136 C 303.962 282.211,301.375 282.458,300.000 282.685 M314.250 282.619 C 312.346 283.453,312.510 299.000,314.422 299.000 C 316.848 299.000,328.276 284.913,326.918 283.598 C 326.173 282.876,315.538 282.055,314.250 282.619 M280.521 286.129 C 277.232 287.190,274.178 288.422,273.733 288.867 C 272.919 289.681,279.746 295.000,281.604 295.000 C 282.152 295.000,283.117 295.517,283.749 296.149 C 285.316 297.716,297.774 302.000,300.765 302.000 C 303.113 302.000,303.067 301.856,299.244 297.250 C 297.075 294.637,294.049 290.587,292.518 288.250 C 289.405 283.498,288.933 283.415,280.521 286.129 M330.144 288.250 C 328.520 290.587,325.573 294.051,323.595 295.946 C 316.870 302.393,319.475 303.594,331.257 299.478 C 339.226 296.693,349.000 291.189,349.000 289.486 C 349.000 288.492,336.904 284.000,334.227 284.000 C 333.605 284.000,331.767 285.913,330.144 288.250 M305.000 288.000 C 305.000 288.550,304.550 289.000,304.000 289.000 C 303.450 289.000,303.000 288.550,303.000 288.000 C 303.000 287.450,303.450 287.000,304.000 287.000 C 304.550 287.000,305.000 287.450,305.000 288.000 M319.500 288.000 C 319.160 288.550,318.459 289.000,317.941 289.000 C 317.423 289.000,317.000 288.550,317.000 288.000 C 317.000 287.450,317.702 287.000,318.559 287.000 C 319.416 287.000,319.840 287.450,319.500 288.000 M289.459 291.245 C 291.522 294.190,290.321 294.458,285.678 292.091 C 282.748 290.597,282.305 290.061,283.701 289.699 C 287.135 288.808,287.895 289.012,289.459 291.245 M339.356 289.871 C 340.901 290.478,340.522 290.912,337.096 292.457 C 332.397 294.576,330.834 293.946,333.494 291.006 C 335.418 288.881,336.371 288.696,339.356 289.871 M501.548 332.105 C 508.947 337.113,515.000 341.506,515.000 341.866 C 515.000 343.008,501.597 359.203,494.200 367.000 L 487.084 374.500 487.042 348.750 C 487.019 334.587,487.247 323.000,487.548 323.000 C 487.849 323.000,494.149 327.097,501.548 332.105 " stroke="none" fill="#000000" fill-rule="evenodd"/></svg>