<?xml version="1.0" standalone="no"?>
<!DOCTYPE svg PUBLIC "-//W3C//DTD SVG 20010904//EN"
 "http://www.w3.org/TR/2001/REC-SVG-20010904/DTD/svg10.dtd">
<svg version="1.0" xmlns="http://www.w3.org/2000/svg"
 width="300.000000pt" height="169.000000pt" viewBox="0 0 300.000000 169.000000"
 preserveAspectRatio="xMidYMid meet">
<metadata>
Created by potrace 1.10, written by Peter Selinger 2001-2011
</metadata>
<g transform="translate(0.000000,169.000000) scale(0.100000,-0.100000)"
fill="#01fff4" stroke="none">
<path d="M1260 1653 c-267 -26 -463 -57 -499 -80 l-23 -15 4 -189 c2 -111 8
-193 14 -199 7 -7 33 -6 82 5 376 79 948 78 1326 -1 46 -10 73 -11 80 -4 5 5
11 93 14 199 l5 189 -24 15 c-31 20 -231 54 -417 72 -130 13 -466 18 -562 8z
m670 -37 c108 -15 253 -41 293 -52 15 -5 17 -21 17 -148 0 -79 -3 -163 -6
-188 l-6 -45 -47 9 c-201 39 -327 50 -607 55 -305 6 -455 -4 -695 -45 l-107
-19 -6 51 c-3 28 -6 113 -6 188 0 135 1 138 23 143 109 25 276 50 462 69 96
10 575 -3 685 -18z"/>
<path d="M1142 1594 c-59 -13 -94 -52 -140 -152 -64 -142 -82 -191 -73 -197 5
-2 58 2 117 10 267 38 641 38 908 0 59 -8 112 -12 117 -10 10 7 -15 73 -77
205 -64 137 -79 145 -249 144 -85 0 -150 -6 -187 -16 -50 -14 -63 -14 -115 -2
-60 15 -260 27 -301 18z m271 -32 c84 -17 90 -17 175 0 128 26 247 24 303 -5
41 -22 47 -31 105 -158 34 -74 60 -135 59 -137 -2 -2 -54 5 -117 15 -162 26
-712 26 -871 0 -59 -9 -112 -17 -117 -17 -7 0 53 147 103 248 6 14 32 36 56
49 56 29 175 31 304 5z"/>
<path d="M1083 1517 c-21 -22 -93 -189 -93 -215 0 -10 8 -12 28 -8 34 7 222
23 365 32 60 3 105 10 100 14 -21 21 -174 43 -295 44 -71 0 -128 1 -128 3 0 1
12 34 26 73 14 40 24 74 21 76 -2 2 -13 -6 -24 -19z m112 -154 c208 -1 255
-17 79 -27 -73 -4 -160 -11 -195 -16 -35 -5 -64 -8 -66 -6 -1 1 3 17 9 34 7
17 15 28 18 24 3 -5 73 -8 155 -9z"/>
<path d="M1890 1533 c0 -7 11 -42 25 -79 14 -36 25 -67 25 -68 0 -1 -57 -2
-127 -2 -120 0 -259 -20 -302 -44 -8 -4 43 -11 115 -15 71 -3 185 -13 254 -20
69 -7 127 -11 129 -9 9 9 -73 200 -95 224 -13 13 -24 19 -24 13z m96 -220 c-1
-1 -33 2 -71 7 -39 5 -126 12 -195 16 -166 10 -121 25 82 28 81 1 151 5 155
10 6 6 34 -53 29 -61z"/>
<path d="M1255 1173 c-77 -5 -353 -42 -420 -56 -57 -11 -60 -14 -63 -43 -6
-65 70 -308 140 -449 86 -171 186 -302 333 -434 62 -56 205 -161 220 -161 3 0
5 259 5 575 l0 575 -82 -2 c-46 -1 -105 -3 -133 -5z m195 -564 l0 -551 -67 47
c-205 144 -377 353 -484 591 -37 84 -96 274 -105 342 l-6 50 48 10 c137 29
396 58 532 61 l82 1 0 -551z"/>
<path d="M1076 1044 c-66 -21 -137 -93 -161 -163 -48 -145 31 -306 171 -347
107 -31 206 -4 278 76 52 57 69 103 68 181 0 79 -18 124 -72 183 -71 77 -175
103 -284 70z m205 -32 c182 -95 182 -349 0 -444 -93 -49 -197 -35 -278 36 -60
52 -83 104 -83 185 0 190 194 310 361 223z"/>
<path d="M1200 1022 c0 -4 12 -20 26 -36 22 -25 29 -28 57 -19 l32 9 -32 17
c-47 25 -83 38 -83 29z"/>
<path d="M1070 1004 c-44 -19 -48 -23 -30 -34 27 -17 48 -11 70 20 24 34 15
38 -40 14z"/>
<path d="M1128 985 c-23 -31 -23 -35 7 -35 21 0 25 5 25 30 0 36 -9 38 -32 5z"/>
<path d="M1174 988 c3 -13 6 -26 6 -30 0 -14 40 -8 40 5 0 15 -31 47 -44 47
-5 0 -6 -10 -2 -22z"/>
<path d="M987 942 c-25 -28 -21 -37 20 -50 42 -13 49 -9 58 31 5 19 3 27 -6
27 -8 0 -23 3 -34 6 -13 3 -27 -2 -38 -14z m58 -22 c0 -10 -8 -14 -24 -12 -30
3 -35 7 -26 22 10 16 50 8 50 -10z"/>
<path d="M1300 953 c-8 -2 -20 -6 -27 -8 -9 -3 -10 -12 -2 -35 12 -34 17 -35
65 -15 l35 15 -18 24 c-18 26 -26 28 -53 19z m37 -30 c6 -17 -38 -28 -48 -12
-5 8 -3 17 4 21 16 11 39 6 44 -9z"/>
<path d="M1082 915 c-16 -36 -8 -45 39 -45 37 0 39 2 39 30 0 17 -5 30 -12 30
-7 0 -22 3 -34 6 -15 4 -23 -1 -32 -21z m58 -16 c0 -15 -4 -19 -16 -15 -9 3
-20 6 -25 6 -4 0 -6 7 -3 15 9 24 44 19 44 -6z"/>
<path d="M1193 933 c-23 -4 -28 -18 -17 -47 4 -11 19 -16 45 -16 42 0 49 13
29 51 -11 19 -15 20 -57 12z m45 -30 c2 -8 -6 -13 -22 -13 -17 0 -26 5 -26 16
0 19 41 16 48 -3z"/>
<path d="M941 853 c-15 -54 -16 -53 44 -53 l55 0 0 34 c0 29 -4 35 -27 40 -16
4 -36 9 -45 12 -13 4 -19 -4 -27 -33z m56 6 c24 -8 30 -15 26 -30 -5 -17 -11
-19 -37 -13 -17 3 -32 7 -33 8 -3 2 8 46 12 46 1 0 16 -5 32 -11z"/>
<path d="M1330 876 c-29 -11 -35 -18 -35 -42 0 -28 2 -29 53 -32 46 -3 52 -1
52 17 0 26 -17 71 -27 70 -5 0 -24 -6 -43 -13z m48 -40 c3 -26 1 -27 -30 -24
-41 4 -51 33 -16 47 33 13 43 8 46 -23z"/>
<path d="M1060 847 c0 -8 -3 -22 -6 -31 -5 -13 3 -16 50 -16 53 0 56 1 56 25
0 18 -5 25 -19 25 -10 0 -33 3 -50 6 -24 5 -31 3 -31 -9z m80 -23 c0 -11 -8
-14 -32 -12 -46 4 -49 28 -4 28 26 0 36 -4 36 -16z"/>
<path d="M1205 851 c-21 -4 -31 -13 -33 -29 -3 -21 0 -22 53 -22 56 0 56 0 53
28 -3 29 -20 35 -73 23z m55 -26 c0 -16 -55 -22 -64 -6 -8 13 5 21 36 21 18 0
28 -5 28 -15z"/>
<path d="M963 783 c-36 -5 -39 -13 -22 -62 13 -36 10 -35 60 -19 35 10 39 14
39 45 0 18 -4 33 -9 33 -5 0 -15 2 -23 3 -7 2 -28 2 -45 0z m57 -33 c0 -26
-49 -48 -62 -28 -19 31 -7 48 34 48 21 0 28 -5 28 -20z"/>
<path d="M1313 780 c-34 -14 -31 -57 4 -71 54 -20 67 -17 77 23 5 21 8 40 5
42 -11 10 -66 14 -86 6z m65 -44 c-2 -16 -9 -20 -28 -18 -30 3 -44 16 -37 35
3 9 15 12 37 9 25 -4 30 -9 28 -26z"/>
<path d="M1056 753 c9 -37 6 -35 58 -28 40 6 46 10 46 31 0 22 -4 24 -55 24
-55 0 -55 0 -49 -27z m84 2 c0 -10 -11 -15 -35 -15 -24 0 -35 5 -35 15 0 10
11 15 35 15 24 0 35 -5 35 -15z"/>
<path d="M1173 764 c-9 -23 9 -35 58 -37 41 -2 44 0 47 26 3 26 2 27 -48 27
-37 0 -52 -4 -57 -16z m87 -9 c0 -16 -55 -22 -64 -6 -8 13 5 21 36 21 18 0 28
-5 28 -15z"/>
<path d="M1075 701 c-7 -13 16 -61 29 -61 38 1 56 14 56 41 0 27 -3 29 -39 29
-22 0 -42 -4 -46 -9z m65 -26 c0 -8 -9 -15 -19 -15 -10 0 -21 7 -25 15 -4 11
1 15 19 15 16 0 25 -6 25 -15z"/>
<path d="M1174 696 c-10 -25 2 -43 32 -50 31 -8 57 15 52 44 -4 22 -76 27 -84
6z m64 -18 c-7 -20 -48 -23 -48 -4 0 11 9 16 26 16 16 0 24 -5 22 -12z"/>
<path d="M1003 689 c-37 -11 -42 -28 -14 -53 13 -12 27 -15 45 -10 34 8 38 17
26 48 -10 28 -10 28 -57 15z m42 -30 c0 -18 -35 -24 -46 -7 -5 8 -2 15 9 20
23 9 37 4 37 -13z"/>
<path d="M1272 671 c-9 -25 -7 -30 14 -40 37 -16 50 -14 69 15 19 30 20 28
-24 43 -46 15 -48 15 -59 -18z m58 -1 c11 -7 12 -12 3 -21 -15 -15 -43 -5 -43
16 0 17 18 19 40 5z"/>
<path d="M1110 623 c1 -10 36 -53 44 -53 3 0 6 14 6 30 0 25 -4 30 -25 30 -14
0 -25 -3 -25 -7z"/>
<path d="M1177 623 c-10 -9 -9 -53 1 -53 12 0 42 34 42 48 0 13 -32 17 -43 5z"/>
<path d="M1043 613 c-23 -9 -14 -20 27 -37 57 -23 64 -20 38 14 -21 29 -38 35
-65 23z"/>
<path d="M1222 589 c-29 -36 -11 -39 51 -8 37 19 40 23 22 30 -34 13 -49 9
-73 -22z"/>
<path d="M1530 1098 l0 -83 70 -45 70 -45 0 -157 c0 -87 -2 -158 -5 -158 -2 0
-30 18 -61 40 -32 22 -61 40 -66 40 -4 0 -8 -148 -8 -330 0 -181 3 -330 6
-330 3 0 37 21 75 48 l69 47 0 232 0 232 65 -45 65 -46 0 -125 c0 -68 4 -123
8 -121 20 8 116 124 173 209 120 179 238 484 239 615 0 30 -2 32 -47 39 -27 3
-58 9 -70 12 l-23 5 0 -236 c0 -130 -2 -236 -6 -236 -3 0 -32 18 -65 40 l-59
41 0 204 0 204 -47 6 c-27 3 -60 8 -75 10 l-28 5 0 -165 0 -165 -65 42 -65 43
0 121 c0 139 3 134 -91 134 l-59 0 0 -82z m130 -38 c0 -55 -2 -100 -5 -100 -3
0 -28 15 -55 33 l-50 32 0 68 0 67 55 0 55 0 0 -100z m278 -107 c1 -101 0
-183 -3 -183 -3 0 -27 16 -55 36 l-50 36 0 149 0 150 53 -3 52 -3 3 -182z
m241 142 l33 -7 -6 -50 c-7 -52 -70 -270 -86 -298 -6 -9 -10 58 -10 178 0 179
1 193 18 188 9 -2 32 -8 51 -11z m-429 -237 l50 -33 0 -142 c0 -79 -2 -143 -5
-143 -3 0 -28 15 -55 33 l-50 32 0 143 c0 78 2 142 5 142 3 0 28 -15 55 -32z
m163 -96 l37 -25 0 -158 0 -159 -65 42 -65 43 0 159 0 158 28 -18 c15 -9 44
-28 65 -42z m107 -84 c27 -18 50 -36 50 -39 0 -4 -21 -44 -47 -90 l-48 -84 -2
40 c-5 78 -8 205 -5 205 1 0 25 -15 52 -32z m-402 -60 l42 -29 0 -228 0 -228
-55 -37 -55 -36 0 300 c0 238 3 300 13 294 6 -4 31 -20 55 -36z m268 -179 l43
-32 -19 -26 c-11 -14 -33 -42 -49 -61 l-30 -35 -1 93 c0 50 3 92 6 92 3 0 25
-14 50 -31z"/>
</g>
</svg>
