<svg id="svg" version="1.1" xmlns="http://www.w3.org/2000/svg" xmlns:xlink="http://www.w3.org/1999/xlink" width="400" height="400" viewBox="0, 0, 400,400"><g id="svgg"><path id="path0" d="M69.610 0.388 C 68.625 0.547,67.472 0.587,67.047 0.476 C 66.535 0.342,66.370 0.428,66.558 0.732 C 66.742 1.030,66.623 1.107,66.221 0.953 C 65.879 0.822,65.600 0.913,65.600 1.155 C 65.600 1.397,65.195 1.528,64.700 1.446 C 64.205 1.364,63.503 1.557,63.140 1.874 C 62.777 2.192,61.877 2.453,61.140 2.455 C 59.800 2.459,58.020 3.097,57.551 3.741 C 57.414 3.929,56.897 3.866,56.403 3.601 C 55.809 3.284,55.596 3.270,55.775 3.560 C 56.018 3.953,55.524 4.177,54.700 4.047 C 54.535 4.021,54.397 4.315,54.394 4.700 C 54.389 5.298,54.331 5.313,54.000 4.800 C 53.734 4.388,53.610 4.359,53.606 4.708 C 53.602 5.052,53.247 5.138,52.500 4.975 C 51.653 4.790,51.538 4.833,52.000 5.162 C 52.548 5.551,51.644 5.825,50.348 5.663 C 50.209 5.646,49.787 5.972,49.410 6.389 C 49.033 6.805,48.463 7.045,48.142 6.922 C 47.822 6.799,47.132 7.100,46.609 7.591 C 46.087 8.082,45.478 8.372,45.257 8.235 C 45.036 8.099,44.735 8.182,44.587 8.421 C 44.440 8.659,44.088 8.766,43.805 8.657 C 43.451 8.521,43.358 8.719,43.508 9.292 C 43.642 9.804,43.568 10.027,43.316 9.872 C 43.091 9.733,42.586 9.974,42.193 10.408 C 41.648 11.010,41.351 11.091,40.939 10.750 C 40.527 10.408,40.400 10.445,40.400 10.908 C 40.400 11.242,40.121 11.622,39.779 11.753 C 39.358 11.914,39.254 11.832,39.456 11.495 C 39.860 10.823,38.467 11.932,37.189 13.301 C 36.355 14.194,36.060 14.307,35.622 13.901 C 35.188 13.498,35.141 13.503,35.382 13.927 C 35.578 14.274,35.393 14.529,34.840 14.674 C 34.378 14.794,34.000 15.063,34.000 15.270 C 34.000 15.478,33.840 15.549,33.645 15.428 C 33.450 15.307,33.045 15.511,32.745 15.881 C 32.282 16.452,32.284 16.503,32.762 16.215 C 33.146 15.983,33.232 16.024,33.034 16.345 C 32.875 16.602,32.598 16.722,32.418 16.611 C 32.238 16.500,31.870 16.675,31.600 17.000 C 31.330 17.325,30.962 17.500,30.782 17.389 C 30.602 17.278,30.342 17.370,30.204 17.593 C 30.066 17.817,30.175 18.000,30.446 18.000 C 30.728 18.000,30.565 18.398,30.066 18.930 C 29.586 19.441,29.314 19.981,29.463 20.130 C 29.612 20.278,29.423 20.400,29.043 20.400 C 28.663 20.400,28.464 20.220,28.600 20.000 C 29.171 19.076,28.272 19.712,26.904 21.200 C 26.095 22.080,25.190 22.800,24.893 22.800 C 24.596 22.800,24.425 22.935,24.513 23.100 C 24.723 23.493,23.337 24.804,23.033 24.500 C 22.905 24.372,22.800 24.534,22.800 24.861 C 22.800 25.467,21.067 27.200,20.461 27.200 C 20.278 27.200,19.918 27.661,19.661 28.225 C 19.404 28.789,19.363 29.147,19.569 29.019 C 19.776 28.891,20.076 29.015,20.236 29.293 C 20.397 29.572,20.378 29.663,20.194 29.496 C 20.010 29.329,19.441 29.586,18.930 30.066 C 18.398 30.565,18.000 30.728,18.000 30.446 C 18.000 30.175,17.817 30.066,17.593 30.204 C 17.370 30.342,17.274 30.597,17.381 30.769 C 17.488 30.942,17.117 31.514,16.557 32.040 C 15.808 32.744,15.594 33.269,15.746 34.032 C 15.889 34.747,15.775 35.087,15.377 35.133 C 15.059 35.170,14.533 35.230,14.206 35.267 C 13.809 35.311,13.738 35.484,13.992 35.790 C 14.245 36.095,14.104 36.476,13.568 36.934 C 13.127 37.312,12.874 37.797,13.007 38.011 C 13.139 38.225,12.967 38.400,12.624 38.400 C 12.281 38.400,12.000 38.591,12.000 38.824 C 12.000 39.057,12.208 39.119,12.462 38.962 C 12.748 38.785,12.815 38.852,12.638 39.138 C 12.481 39.392,12.048 39.603,11.676 39.606 C 11.154 39.611,11.121 39.689,11.533 39.950 C 11.948 40.213,11.827 40.544,10.989 41.444 C 9.721 42.804,9.081 44.279,9.474 44.934 C 9.628 45.190,9.449 45.153,9.077 44.851 C 8.398 44.301,8.337 44.426,8.408 46.208 C 8.413 46.322,8.049 46.811,7.599 47.294 C 7.149 47.777,6.864 48.390,6.966 48.657 C 7.161 49.165,6.272 50.138,5.927 49.794 C 5.818 49.684,5.774 50.316,5.830 51.197 C 5.886 52.079,5.757 52.800,5.543 52.800 C 5.328 52.800,5.267 52.984,5.406 53.210 C 5.545 53.435,5.429 53.570,5.148 53.510 C 4.867 53.449,4.625 53.580,4.612 53.800 C 4.599 54.020,4.437 54.437,4.254 54.727 C 4.070 55.016,4.028 55.361,4.160 55.493 C 4.292 55.625,4.400 55.513,4.400 55.243 C 4.400 54.973,4.580 54.864,4.800 55.000 C 5.542 55.459,5.207 55.930,4.216 55.822 C 3.383 55.730,3.291 55.823,3.616 56.431 C 4.102 57.338,4.106 57.713,3.627 57.416 C 3.421 57.289,3.270 57.764,3.290 58.472 C 3.310 59.179,3.118 59.827,2.863 59.912 C 2.608 59.997,2.400 60.772,2.400 61.633 C 2.400 62.670,2.232 63.166,1.902 63.100 C 1.564 63.032,1.404 63.578,1.402 64.800 C 1.401 66.082,1.247 66.568,0.870 66.490 C 0.579 66.430,0.456 66.568,0.598 66.797 C 0.739 67.026,1.022 67.110,1.225 66.985 C 1.428 66.859,1.558 67.203,1.512 67.750 C 1.467 68.296,1.251 68.711,1.031 68.672 C 0.624 68.598,0.547 68.923,0.262 71.900 C 0.162 72.947,0.264 73.600,0.530 73.600 C 0.809 73.600,0.792 73.768,0.480 74.080 C -0.238 74.798,-0.218 325.597,0.500 325.606 C 0.887 325.611,0.883 325.686,0.483 325.940 C 0.132 326.163,0.042 326.770,0.202 327.834 C 0.332 328.695,0.451 329.990,0.466 330.710 C 0.488 331.752,0.603 331.930,1.024 331.580 C 1.436 331.238,1.542 331.316,1.496 331.926 C 1.461 332.392,1.225 332.631,0.918 332.513 C 0.622 332.399,0.400 332.600,0.400 332.981 C 0.400 333.347,0.578 333.537,0.795 333.403 C 1.022 333.263,1.089 333.423,0.953 333.779 C 0.796 334.187,0.943 334.400,1.381 334.400 C 1.817 334.400,1.937 334.573,1.730 334.900 C 1.256 335.646,1.292 336.131,1.873 336.830 C 2.162 337.177,2.420 337.987,2.447 338.630 C 2.505 340.006,3.200 342.094,3.719 342.449 C 3.929 342.593,3.880 343.077,3.601 343.597 C 3.331 344.103,3.300 344.385,3.531 344.242 C 3.757 344.103,4.057 344.351,4.198 344.794 C 4.339 345.237,4.667 345.603,4.927 345.606 C 5.207 345.610,5.155 345.771,4.800 346.000 C 4.359 346.285,4.340 346.389,4.727 346.394 C 5.082 346.398,5.166 346.678,4.984 347.250 C 4.826 347.747,4.909 348.220,5.184 348.390 C 5.442 348.550,5.696 348.973,5.749 349.331 C 5.801 349.690,6.284 350.466,6.822 351.056 C 7.360 351.646,7.558 351.989,7.262 351.817 C 6.875 351.593,6.769 351.716,6.885 352.253 C 6.975 352.664,7.285 352.947,7.575 352.883 C 7.927 352.805,8.031 353.038,7.888 353.584 C 7.771 354.033,7.838 354.300,8.037 354.177 C 8.237 354.054,8.414 353.648,8.432 353.276 C 8.449 352.897,8.549 352.810,8.658 353.078 C 8.764 353.341,8.660 353.915,8.425 354.354 C 8.122 354.920,8.122 355.228,8.426 355.416 C 8.662 355.562,8.766 355.912,8.657 356.195 C 8.520 356.552,8.727 356.644,9.330 356.496 C 9.808 356.378,10.063 356.430,9.896 356.611 C 9.729 356.792,9.999 357.388,10.496 357.935 C 10.993 358.482,11.205 358.818,10.967 358.682 C 10.728 358.546,10.533 358.673,10.533 358.963 C 10.533 359.277,10.829 359.413,11.267 359.298 C 12.072 359.088,12.274 359.783,11.539 360.237 C 11.220 360.435,11.305 360.688,11.816 361.061 C 12.221 361.357,12.394 361.600,12.200 361.600 C 12.006 361.600,12.181 361.844,12.589 362.142 C 13.042 362.474,13.232 362.939,13.078 363.342 C 12.939 363.704,12.999 364.000,13.213 364.000 C 13.426 364.000,13.600 363.809,13.600 363.576 C 13.600 363.343,13.789 363.269,14.019 363.412 C 14.305 363.589,14.287 363.854,13.963 364.245 C 13.577 364.710,13.611 364.771,14.143 364.566 C 14.624 364.382,14.800 364.540,14.800 365.157 C 14.800 365.621,14.991 366.000,15.224 366.000 C 15.457 366.000,15.549 366.160,15.428 366.355 C 15.307 366.550,15.511 366.955,15.881 367.255 C 16.452 367.718,16.503 367.716,16.215 367.238 C 15.983 366.854,16.024 366.768,16.345 366.966 C 16.602 367.125,16.722 367.402,16.611 367.582 C 16.500 367.762,16.675 368.130,17.000 368.400 C 17.325 368.670,17.500 369.038,17.389 369.218 C 17.278 369.398,17.370 369.658,17.593 369.796 C 17.822 369.937,18.011 369.643,18.025 369.124 L 18.051 368.200 18.426 369.137 C 18.633 369.652,18.701 370.237,18.577 370.437 C 18.454 370.637,18.813 370.800,19.376 370.800 C 19.939 370.800,20.422 370.980,20.450 371.200 C 20.478 371.420,20.523 371.825,20.550 372.100 C 20.578 372.375,20.992 372.656,21.471 372.724 C 21.950 372.792,22.580 373.152,22.871 373.524 C 23.330 374.111,23.319 374.137,22.786 373.722 C 22.282 373.330,22.171 373.379,22.171 373.993 C 22.171 374.404,22.314 374.653,22.489 374.545 C 23.149 374.137,24.462 374.843,24.025 375.370 C 23.481 376.025,23.975 376.519,24.630 375.975 C 25.157 375.538,25.863 376.851,25.455 377.511 C 25.347 377.686,25.596 377.829,26.007 377.829 C 26.621 377.829,26.670 377.718,26.278 377.214 C 25.859 376.676,25.887 376.668,26.500 377.149 C 26.885 377.451,27.200 378.197,27.200 378.806 C 27.200 380.028,28.311 380.758,28.885 379.914 C 29.154 379.517,29.219 379.537,29.169 380.000 C 29.050 381.114,29.198 381.648,29.563 381.423 C 29.763 381.299,30.348 381.367,30.863 381.574 L 31.800 381.949 30.876 381.975 C 30.328 381.990,30.060 382.173,30.216 382.427 C 30.361 382.661,30.585 382.749,30.712 382.621 C 30.840 382.493,31.441 382.864,32.048 383.446 C 32.836 384.201,33.440 384.447,34.163 384.309 C 34.720 384.203,35.088 384.257,34.981 384.430 C 34.874 384.603,34.982 384.865,35.221 385.013 C 35.459 385.160,35.548 385.558,35.418 385.897 C 35.228 386.393,35.294 386.420,35.755 386.037 C 36.146 385.713,36.411 385.695,36.588 385.981 C 36.731 386.211,36.657 386.400,36.424 386.400 C 36.191 386.400,36.000 386.541,36.000 386.713 C 36.000 387.089,37.657 387.059,38.283 386.672 C 38.568 386.496,38.654 386.672,38.525 387.165 C 38.310 387.988,39.693 389.037,40.408 388.595 C 40.624 388.462,40.800 388.633,40.800 388.976 C 40.800 389.319,41.038 389.600,41.329 389.600 C 42.267 389.600,44.834 391.032,44.512 391.376 C 44.340 391.559,44.688 391.621,45.285 391.513 C 46.077 391.370,46.612 391.574,47.266 392.270 C 47.759 392.795,48.382 393.139,48.652 393.036 C 49.172 392.836,50.138 393.729,49.783 394.083 C 49.668 394.199,50.041 394.242,50.612 394.179 C 51.234 394.111,51.739 394.297,51.872 394.644 C 52.057 395.124,52.194 395.102,52.677 394.512 C 52.997 394.120,53.158 394.005,53.034 394.255 C 52.910 394.505,53.077 394.932,53.404 395.204 C 53.732 395.476,54.000 395.564,54.000 395.400 C 54.000 395.236,54.225 395.281,54.500 395.500 C 54.775 395.718,55.325 395.845,55.722 395.781 C 56.337 395.682,56.367 395.758,55.922 396.298 C 55.459 396.859,55.499 396.878,56.274 396.465 C 57.307 395.915,57.728 395.870,57.437 396.340 C 57.322 396.526,57.803 396.695,58.506 396.715 C 59.209 396.735,59.848 396.943,59.925 397.176 C 60.003 397.409,60.242 397.600,60.457 397.600 C 60.672 397.600,60.744 397.432,60.617 397.228 C 60.491 397.023,60.574 396.739,60.803 396.598 C 61.032 396.456,61.170 396.569,61.110 396.848 C 61.048 397.134,61.515 397.453,62.177 397.578 C 62.825 397.700,63.320 397.935,63.277 398.100 C 63.062 398.937,63.289 398.893,63.800 398.000 C 64.318 397.094,64.373 397.077,64.386 397.816 C 64.397 398.440,64.659 398.628,65.500 398.616 C 66.178 398.606,66.561 398.793,66.499 399.104 C 66.418 399.504,66.558 399.508,67.173 399.124 C 67.599 398.858,67.848 398.478,67.726 398.280 C 67.604 398.082,67.909 398.137,68.406 398.403 C 69.102 398.776,69.185 398.962,68.770 399.219 C 68.406 399.444,68.615 399.559,69.416 399.576 C 70.067 399.590,71.050 399.666,71.600 399.746 C 72.150 399.826,72.860 399.690,73.177 399.445 C 73.609 399.111,73.682 399.119,73.470 399.473 C 73.275 399.798,73.561 399.936,74.379 399.913 C 75.035 399.894,75.488 399.742,75.384 399.575 C 75.281 399.407,75.512 399.331,75.898 399.405 C 76.284 399.478,76.600 399.573,76.600 399.615 C 76.600 399.657,77.099 399.750,77.709 399.822 C 78.329 399.896,78.716 399.788,78.586 399.578 C 78.450 399.358,78.791 399.368,79.410 399.604 C 80.611 400.060,322.894 400.173,323.350 399.717 C 323.744 399.323,324.841 399.210,324.607 399.588 C 324.499 399.763,324.980 399.877,325.676 399.842 C 326.371 399.807,327.017 399.549,327.111 399.268 C 327.235 398.894,327.412 398.937,327.772 399.429 C 328.162 399.963,328.431 400.011,329.079 399.665 C 329.528 399.425,330.018 399.352,330.169 399.502 C 330.320 399.653,330.611 399.512,330.816 399.188 C 331.020 398.865,331.191 398.794,331.194 399.032 C 331.203 399.670,333.989 399.465,334.402 398.796 C 334.597 398.481,334.885 398.351,335.041 398.508 C 335.198 398.665,335.603 398.570,335.940 398.297 C 336.449 397.885,336.495 397.902,336.208 398.400 C 335.962 398.828,336.093 398.799,336.663 398.300 C 337.103 397.915,338.084 397.600,338.842 397.600 C 339.601 397.600,340.622 397.320,341.111 396.977 C 341.600 396.635,342.003 396.500,342.006 396.677 C 342.009 396.855,342.167 396.756,342.355 396.459 C 342.630 396.025,342.878 396.013,343.597 396.399 C 344.191 396.716,344.404 396.730,344.225 396.440 C 344.071 396.190,344.228 396.000,344.589 396.000 C 344.939 396.000,345.335 395.715,345.468 395.366 C 345.664 394.856,345.777 394.837,346.050 395.266 C 346.310 395.677,346.389 395.683,346.394 395.292 C 346.398 394.942,346.740 394.866,347.500 395.049 C 348.105 395.194,348.468 395.170,348.307 394.997 C 348.146 394.823,348.498 394.265,349.090 393.757 C 349.682 393.248,350.263 392.940,350.383 393.071 C 350.502 393.202,350.375 393.390,350.100 393.488 C 349.825 393.586,349.606 393.877,349.613 394.133 C 349.621 394.390,349.965 394.195,350.378 393.699 C 350.875 393.104,351.365 392.888,351.823 393.064 C 352.260 393.232,352.706 393.070,353.031 392.625 C 353.332 392.214,353.751 392.046,354.035 392.222 C 354.357 392.421,354.421 392.357,354.222 392.035 C 354.018 391.706,354.161 391.588,354.660 391.673 C 355.087 391.746,355.358 391.589,355.300 391.300 C 355.245 391.025,355.344 390.800,355.520 390.800 C 355.696 390.800,356.082 391.025,356.379 391.300 C 356.810 391.700,356.861 391.700,356.633 391.297 C 356.477 391.020,356.632 390.511,356.978 390.165 C 357.324 389.819,357.505 389.370,357.380 389.168 C 357.255 388.965,357.343 388.800,357.576 388.800 C 357.809 388.800,358.000 388.980,358.000 389.200 C 358.000 389.420,358.191 389.600,358.424 389.600 C 358.657 389.600,358.712 389.375,358.547 389.100 C 358.355 388.781,358.499 388.805,358.946 389.168 C 359.550 389.658,359.628 389.658,359.523 389.168 C 359.455 388.855,359.670 388.583,360.000 388.561 C 361.163 388.486,362.100 387.909,361.581 387.588 C 360.888 387.160,362.988 385.851,363.960 386.105 C 364.566 386.264,364.698 386.112,364.615 385.352 C 364.557 384.828,364.665 384.400,364.855 384.400 C 365.045 384.400,365.200 384.580,365.200 384.800 C 365.200 385.020,365.391 385.200,365.624 385.200 C 365.857 385.200,365.936 385.020,365.800 384.800 C 365.664 384.580,365.894 384.400,366.311 384.400 C 366.728 384.400,367.726 383.668,368.529 382.773 C 369.332 381.878,370.153 381.247,370.353 381.371 C 370.553 381.494,370.824 381.315,370.955 380.972 C 371.087 380.630,371.376 380.461,371.597 380.598 C 371.819 380.735,372.000 380.657,372.000 380.424 C 372.000 380.191,371.775 379.994,371.500 379.987 C 371.155 379.978,371.187 379.824,371.606 379.487 C 371.939 379.219,372.520 378.516,372.898 377.925 C 373.419 377.110,373.826 376.894,374.582 377.031 C 375.348 377.170,375.526 377.072,375.348 376.608 C 375.220 376.276,374.910 376.107,374.658 376.232 C 374.406 376.357,374.470 376.213,374.800 375.911 C 375.130 375.610,375.651 375.102,375.959 374.782 C 376.266 374.462,376.402 374.406,376.261 374.658 C 376.120 374.910,376.276 375.220,376.608 375.348 C 377.068 375.524,377.170 375.349,377.037 374.613 C 376.831 373.477,377.472 372.835,378.931 372.714 C 380.107 372.617,380.701 371.650,379.914 371.115 C 379.517 370.846,379.537 370.781,380.000 370.831 C 381.187 370.957,381.427 370.784,381.514 369.732 C 381.624 368.398,382.000 367.953,382.000 369.157 C 382.000 369.658,382.178 369.937,382.407 369.796 C 382.630 369.658,382.726 369.403,382.619 369.231 C 382.512 369.058,382.869 368.499,383.412 367.988 C 383.956 367.478,384.400 366.721,384.400 366.307 C 384.400 365.892,384.560 365.651,384.755 365.772 C 384.950 365.892,385.207 365.615,385.328 365.155 C 385.467 364.624,385.724 364.429,386.035 364.622 C 386.355 364.820,386.421 364.757,386.224 364.439 C 385.734 363.646,386.330 362.112,387.218 361.879 C 387.673 361.760,388.255 361.109,388.511 360.431 C 388.766 359.754,389.116 359.200,389.288 359.200 C 389.459 359.200,389.600 358.750,389.600 358.200 C 389.600 357.650,389.791 357.200,390.024 357.200 C 390.257 357.200,390.344 357.032,390.217 356.827 C 390.090 356.622,390.374 356.184,390.847 355.852 C 391.442 355.435,391.638 354.987,391.482 354.393 C 391.314 353.751,391.406 353.594,391.850 353.764 C 392.197 353.897,392.336 353.820,392.186 353.578 C 392.046 353.351,392.217 352.729,392.566 352.196 C 392.914 351.664,393.200 350.957,393.200 350.627 C 393.200 350.230,393.427 350.112,393.866 350.281 C 394.313 350.452,394.436 350.383,394.242 350.068 C 394.083 349.811,393.648 349.597,393.276 349.594 C 392.710 349.589,392.695 349.528,393.181 349.220 C 393.500 349.018,393.933 348.959,394.143 349.088 C 394.352 349.218,394.394 349.115,394.236 348.859 C 394.077 348.601,394.217 348.292,394.549 348.164 C 394.879 348.037,395.063 347.708,394.957 347.431 C 394.850 347.154,395.042 346.697,395.382 346.415 C 395.722 346.133,396.000 345.463,396.000 344.927 C 396.000 344.391,396.135 344.035,396.300 344.136 C 396.465 344.237,396.617 343.492,396.639 342.480 C 396.660 341.469,396.885 340.572,397.139 340.487 C 397.392 340.403,397.600 340.068,397.600 339.743 C 397.600 339.418,397.432 339.256,397.228 339.383 C 397.023 339.509,396.739 339.426,396.598 339.197 C 396.456 338.968,396.575 338.830,396.861 338.890 C 397.147 338.951,397.444 338.584,397.522 338.076 C 397.599 337.567,397.923 337.051,398.243 336.928 C 398.724 336.744,398.701 336.613,398.112 336.165 C 397.523 335.719,397.507 335.623,398.016 335.613 C 398.422 335.604,398.626 335.225,398.616 334.500 C 398.607 333.895,398.797 333.436,399.037 333.479 C 399.301 333.527,399.456 332.896,399.428 331.879 C 399.403 330.956,399.526 329.773,399.700 329.251 C 399.904 328.643,399.835 328.078,399.509 327.675 C 399.113 327.186,399.111 327.113,399.500 327.347 C 399.900 327.587,399.971 301.858,399.854 199.124 C 399.701 63.478,399.716 66.281,399.164 66.622 C 398.969 66.743,398.916 66.562,399.047 66.221 C 399.182 65.870,399.075 65.600,398.800 65.600 C 398.533 65.600,398.410 65.352,398.526 65.049 C 398.642 64.746,398.527 64.269,398.269 63.990 C 397.901 63.592,397.930 63.554,398.400 63.810 C 398.835 64.047,398.807 63.917,398.300 63.337 C 397.880 62.858,397.600 61.888,397.600 60.917 C 397.600 59.945,397.353 59.093,396.982 58.785 C 396.642 58.503,396.460 58.021,396.577 57.715 C 396.695 57.409,396.613 57.268,396.395 57.403 C 395.879 57.722,395.894 57.345,396.440 56.325 C 396.760 55.728,396.760 55.578,396.440 55.775 C 396.174 55.939,396.000 55.721,396.000 55.224 C 396.000 54.708,395.738 54.398,395.300 54.394 C 394.702 54.389,394.687 54.331,395.200 54.000 C 395.612 53.734,395.641 53.610,395.292 53.606 C 394.939 53.602,394.868 53.265,395.059 52.500 C 395.290 51.572,395.242 51.474,394.754 51.876 C 394.273 52.272,394.186 52.170,394.236 51.276 C 394.269 50.684,394.066 49.930,393.784 49.600 C 393.503 49.270,393.207 48.550,393.127 48.000 C 393.042 47.416,392.756 47.049,392.439 47.117 C 392.073 47.196,391.967 46.970,392.112 46.416 C 392.248 45.894,392.170 45.695,391.895 45.865 C 391.624 46.032,391.557 45.889,391.715 45.478 C 391.852 45.119,391.781 44.712,391.555 44.572 C 391.330 44.433,391.234 44.088,391.343 43.805 C 391.476 43.457,391.285 43.357,390.753 43.496 C 390.320 43.610,389.993 43.544,390.026 43.351 C 390.165 42.542,389.481 41.226,389.055 41.481 C 388.805 41.631,388.847 41.449,389.149 41.077 C 389.619 40.497,389.611 40.400,389.092 40.400 C 388.758 40.400,388.378 40.121,388.247 39.779 C 388.091 39.371,388.178 39.244,388.505 39.409 C 388.777 39.547,388.651 39.376,388.224 39.030 C 387.796 38.683,387.583 38.400,387.748 38.400 C 387.914 38.400,387.498 37.896,386.824 37.281 C 385.841 36.383,385.698 36.062,386.099 35.657 C 386.501 35.252,386.462 35.205,385.900 35.419 C 385.367 35.622,385.200 35.479,385.200 34.819 C 385.200 34.343,385.020 34.064,384.800 34.200 C 384.580 34.336,384.400 34.108,384.400 33.693 C 384.400 33.279,383.956 32.522,383.412 32.012 C 382.869 31.501,382.512 30.942,382.619 30.769 C 382.726 30.597,382.630 30.342,382.407 30.204 C 382.183 30.066,382.000 30.171,382.000 30.438 C 382.000 30.735,381.679 30.633,381.175 30.178 C 380.708 29.755,380.432 29.121,380.538 28.716 C 380.643 28.315,380.509 28.000,380.235 28.000 C 379.665 28.000,378.000 26.192,378.000 25.573 C 378.000 25.342,377.820 25.264,377.600 25.400 C 377.380 25.536,377.200 25.356,377.200 25.000 C 377.200 24.644,377.020 24.464,376.800 24.600 C 376.580 24.736,376.400 24.567,376.400 24.224 C 376.400 23.881,376.119 23.600,375.776 23.600 C 375.433 23.600,375.264 23.420,375.400 23.200 C 375.536 22.980,375.356 22.800,375.000 22.800 C 374.644 22.800,374.464 22.620,374.600 22.400 C 374.736 22.180,374.644 22.000,374.395 22.000 C 373.855 22.000,372.800 21.006,372.800 20.497 C 372.800 20.298,371.765 19.664,370.500 19.086 C 368.915 18.363,368.487 18.031,369.124 18.018 C 369.644 18.008,369.938 17.823,369.796 17.593 C 369.658 17.370,369.403 17.274,369.231 17.381 C 369.058 17.488,368.499 17.131,367.988 16.588 C 367.478 16.044,366.721 15.600,366.307 15.600 C 365.892 15.600,365.664 15.420,365.800 15.200 C 365.936 14.980,365.657 14.800,365.181 14.800 C 364.542 14.800,364.381 14.628,364.566 14.143 C 364.763 13.632,364.701 13.584,364.286 13.929 C 363.886 14.261,363.591 14.200,363.105 13.686 C 361.901 12.413,361.192 11.958,360.795 12.203 C 360.578 12.337,360.400 12.167,360.400 11.824 C 360.400 11.481,360.130 11.200,359.800 11.200 C 359.470 11.200,359.200 11.020,359.200 10.800 C 359.200 10.580,358.958 10.400,358.661 10.400 C 357.816 10.400,355.600 9.187,355.600 8.724 C 355.600 8.495,355.151 8.393,354.603 8.497 C 354.035 8.606,353.410 8.454,353.154 8.144 C 352.905 7.845,352.443 7.600,352.127 7.600 C 351.811 7.600,351.656 7.433,351.782 7.229 C 351.909 7.024,351.604 6.795,351.106 6.719 C 350.608 6.643,350.236 6.386,350.281 6.148 C 350.326 5.907,349.913 5.763,349.356 5.825 C 348.774 5.888,348.259 5.697,348.133 5.370 C 348.014 5.059,347.755 4.904,347.558 5.026 C 347.361 5.148,346.975 5.104,346.700 4.930 C 346.425 4.755,346.110 4.585,346.000 4.552 C 344.465 4.092,344.049 3.845,344.253 3.515 C 344.387 3.298,344.115 3.324,343.648 3.574 C 343.012 3.915,342.800 3.913,342.800 3.567 C 342.800 3.302,342.457 3.196,341.993 3.318 C 341.549 3.434,340.932 3.275,340.622 2.964 C 340.311 2.654,339.324 2.400,338.429 2.400 C 337.442 2.400,336.839 2.225,336.900 1.956 C 336.964 1.673,336.082 1.483,334.471 1.433 C 333.080 1.389,331.814 1.147,331.659 0.895 C 331.503 0.643,331.021 0.402,330.588 0.360 C 328.117 0.121,71.091 0.149,69.610 0.388 M111.429 53.828 C 110.642 54.404,111.163 54.917,112.006 54.396 C 112.352 54.182,112.785 54.222,113.117 54.497 C 113.529 54.839,113.753 54.809,114.038 54.374 C 114.360 53.884,114.491 53.898,114.929 54.469 C 115.410 55.095,115.474 55.095,115.910 54.469 C 116.328 53.872,116.350 53.882,116.121 54.566 C 115.952 55.069,116.015 55.238,116.304 55.059 C 116.547 54.909,116.860 54.973,117.000 55.200 C 117.140 55.427,117.451 55.492,117.689 55.345 C 117.939 55.191,118.009 55.261,117.855 55.511 C 117.531 56.036,118.382 56.650,118.745 56.151 C 119.041 55.744,120.384 55.572,120.337 55.947 C 120.226 56.837,120.475 57.257,120.996 57.057 C 121.335 56.927,122.025 57.262,122.596 57.832 C 123.178 58.414,123.604 58.619,123.611 58.318 C 123.616 58.033,123.928 58.295,124.303 58.900 C 125.098 60.182,125.787 60.357,125.484 59.199 C 125.369 58.759,125.438 58.500,125.637 58.623 C 125.837 58.746,126.000 59.107,126.000 59.424 C 126.000 59.741,126.315 60.018,126.700 60.040 C 127.167 60.066,127.067 60.186,126.400 60.400 C 125.850 60.576,125.638 60.738,125.929 60.760 C 126.219 60.782,126.719 61.062,127.040 61.383 C 127.361 61.704,127.881 61.867,128.196 61.746 C 128.601 61.591,128.723 61.763,128.612 62.338 C 128.438 63.243,129.337 64.210,129.982 63.811 C 130.221 63.663,130.400 63.906,130.400 64.376 C 130.400 64.829,130.580 65.200,130.800 65.200 C 131.020 65.200,131.200 65.481,131.200 65.824 C 131.200 66.167,131.380 66.336,131.600 66.200 C 131.820 66.064,132.000 66.244,132.000 66.600 C 132.000 66.956,132.184 67.133,132.410 66.994 C 132.635 66.855,132.794 66.889,132.763 67.070 C 132.601 68.002,132.858 68.800,133.319 68.800 C 133.642 68.800,133.831 69.291,133.819 70.100 C 133.808 70.855,134.001 71.400,134.280 71.400 C 135.229 71.400,135.856 72.390,135.197 72.847 C 134.747 73.159,134.723 73.311,135.100 73.464 C 135.375 73.575,135.600 74.042,135.600 74.502 C 135.600 74.961,135.905 75.674,136.278 76.086 C 136.919 76.794,136.914 76.821,136.178 76.587 C 135.470 76.362,135.463 76.380,136.100 76.790 C 136.485 77.037,136.800 77.580,136.800 77.996 C 136.800 78.412,136.980 78.864,137.201 79.001 C 137.469 79.166,137.469 79.497,137.201 79.998 C 136.586 81.148,136.686 84.800,137.333 84.800 C 137.627 84.800,137.867 85.060,137.867 85.378 C 137.867 85.800,137.681 85.858,137.184 85.591 C 136.571 85.263,136.506 85.494,136.551 87.864 C 136.583 89.571,136.432 90.566,136.125 90.684 C 135.864 90.784,135.748 91.120,135.867 91.430 C 135.986 91.740,135.779 92.110,135.408 92.252 C 134.871 92.458,134.842 92.580,135.266 92.850 C 135.579 93.048,135.615 93.190,135.354 93.194 C 135.109 93.197,134.917 93.785,134.929 94.500 C 134.942 95.301,134.767 95.762,134.475 95.700 C 134.214 95.645,134.000 95.773,134.000 95.984 C 134.000 96.196,133.595 96.747,133.100 97.209 C 132.357 97.903,132.330 98.000,132.948 97.764 C 133.386 97.596,133.087 98.086,132.228 98.945 C 131.396 99.777,130.883 100.610,131.042 100.868 C 131.215 101.148,131.146 101.214,130.862 101.038 C 130.583 100.866,130.400 101.019,130.400 101.425 C 130.400 101.961,130.284 102.002,129.832 101.627 C 129.374 101.247,129.286 101.296,129.377 101.878 C 129.544 102.947,127.070 105.199,125.720 105.206 C 124.850 105.211,124.734 105.299,125.200 105.600 C 125.636 105.882,125.657 105.989,125.276 105.994 C 124.988 105.997,124.854 106.163,124.977 106.363 C 125.100 106.562,124.878 106.641,124.483 106.538 C 124.036 106.421,123.213 106.871,122.301 107.731 C 121.496 108.490,120.782 108.945,120.714 108.742 C 120.646 108.539,120.233 108.662,119.795 109.016 C 119.358 109.370,119.225 109.545,119.500 109.406 C 120.369 108.966,120.040 109.550,119.152 110.026 C 118.685 110.276,118.410 110.308,118.539 110.098 C 118.670 109.886,118.264 109.735,117.627 109.758 C 116.995 109.781,116.550 109.916,116.637 110.058 C 116.874 110.444,115.721 110.795,114.067 110.840 C 112.746 110.876,112.699 110.912,113.600 111.200 C 114.416 111.461,114.232 111.535,112.600 111.603 C 108.257 111.782,105.517 111.629,104.972 111.177 C 104.529 110.809,104.264 110.815,103.800 111.200 C 103.385 111.544,103.200 111.559,103.200 111.249 C 103.200 111.001,102.562 110.800,101.776 110.800 C 100.993 110.800,100.452 110.639,100.574 110.442 C 100.696 110.245,100.536 109.984,100.218 109.862 C 99.833 109.715,99.715 109.834,99.863 110.220 C 99.986 110.539,99.886 110.800,99.643 110.800 C 99.399 110.800,99.200 110.620,99.200 110.400 C 99.200 110.180,98.930 110.000,98.600 110.000 C 98.270 110.000,98.000 109.809,98.000 109.576 C 98.000 109.343,97.820 109.264,97.600 109.400 C 97.380 109.536,97.200 109.467,97.200 109.247 C 97.200 109.026,96.840 108.915,96.400 109.000 C 95.899 109.097,95.600 108.939,95.600 108.577 C 95.600 108.228,95.205 108.000,94.600 108.000 C 94.050 108.000,93.600 107.848,93.600 107.663 C 93.600 107.477,92.790 106.909,91.800 106.400 C 90.810 105.891,89.996 105.278,89.991 105.037 C 89.987 104.797,89.357 104.062,88.591 103.404 C 87.826 102.746,87.197 101.846,87.194 101.404 C 87.189 100.738,87.121 100.703,86.800 101.200 C 86.471 101.709,86.411 101.690,86.406 101.076 C 86.403 100.678,86.220 100.464,86.000 100.600 C 85.780 100.736,85.600 100.567,85.600 100.224 C 85.600 99.881,85.420 99.600,85.200 99.600 C 84.980 99.600,84.800 99.240,84.800 98.800 C 84.800 98.360,84.590 98.000,84.333 98.000 C 84.077 98.000,83.976 97.891,84.109 97.757 C 84.243 97.624,84.177 97.309,83.962 97.057 C 83.748 96.806,83.296 96.240,82.957 95.800 C 82.618 95.360,82.472 95.253,82.632 95.562 C 82.817 95.918,82.764 96.025,82.487 95.854 C 82.247 95.706,82.043 95.183,82.033 94.692 C 81.993 92.690,81.926 92.454,81.452 92.635 C 81.097 92.771,81.006 92.411,81.129 91.358 C 81.248 90.339,81.163 89.976,80.850 90.169 C 80.541 90.360,80.400 89.867,80.400 88.600 C 80.400 87.470,80.245 86.849,80.000 87.000 C 79.780 87.136,79.600 86.956,79.600 86.600 C 79.600 86.244,79.735 86.036,79.900 86.138 C 80.065 86.240,80.200 84.811,80.200 82.962 C 80.200 81.113,80.065 79.600,79.900 79.600 C 79.735 79.600,79.600 79.409,79.600 79.176 C 79.600 78.943,79.758 78.850,79.950 78.969 C 80.143 79.089,80.254 78.634,80.197 77.960 C 80.069 76.460,80.381 75.141,80.802 75.401 C 80.973 75.507,81.208 75.010,81.325 74.297 C 81.618 72.497,82.309 70.094,82.359 70.700 C 82.426 71.513,83.029 71.270,83.029 70.429 C 83.029 70.006,82.873 69.755,82.683 69.873 C 82.492 69.990,82.934 69.183,83.665 68.079 C 84.395 66.975,85.157 66.174,85.358 66.298 C 85.559 66.422,85.609 66.339,85.470 66.113 C 85.330 65.887,85.752 65.141,86.408 64.455 C 87.064 63.769,87.600 62.925,87.600 62.580 C 87.600 62.235,87.780 62.064,88.000 62.200 C 88.220 62.336,88.400 62.257,88.400 62.024 C 88.400 61.791,88.535 61.644,88.700 61.697 C 88.865 61.750,89.445 61.480,89.989 61.097 C 90.533 60.714,90.794 60.400,90.569 60.400 C 90.344 60.400,89.918 60.625,89.621 60.900 C 89.187 61.303,89.142 61.295,89.390 60.859 C 89.560 60.561,90.621 59.888,91.749 59.363 C 92.877 58.838,93.564 58.406,93.276 58.404 C 92.988 58.402,92.854 58.236,92.978 58.035 C 93.102 57.835,93.741 57.755,94.398 57.859 C 95.318 58.004,95.542 57.915,95.373 57.474 C 95.218 57.071,95.428 56.915,96.076 56.950 C 96.668 56.982,96.958 56.802,96.883 56.449 C 96.803 56.072,97.025 55.966,97.584 56.112 C 98.106 56.248,98.305 56.170,98.135 55.895 C 97.967 55.622,98.113 55.558,98.534 55.719 C 98.900 55.860,99.200 55.790,99.200 55.564 C 99.200 55.338,99.381 55.265,99.603 55.402 C 99.825 55.539,100.280 55.377,100.615 55.042 C 101.050 54.607,101.857 54.468,103.426 54.556 C 104.636 54.624,105.712 54.543,105.815 54.375 C 105.919 54.207,105.549 54.120,104.992 54.181 C 104.436 54.242,103.887 54.141,103.773 53.956 C 103.659 53.771,104.899 53.728,106.530 53.860 C 108.174 53.993,109.798 53.929,110.178 53.716 C 111.263 53.109,112.287 53.201,111.429 53.828 M132.800 224.794 L 132.800 315.988 108.300 316.094 L 83.800 316.200 83.902 224.900 L 84.003 133.600 108.402 133.600 L 132.800 133.600 132.800 224.794 M216.000 147.957 C 216.000 162.293,216.201 164.340,217.415 162.376 C 217.547 162.162,217.851 162.108,218.089 162.255 C 218.336 162.407,218.410 162.339,218.260 162.097 C 217.897 161.510,219.170 159.201,220.492 158.049 C 221.092 157.526,221.479 156.929,221.352 156.722 C 221.224 156.516,221.453 156.075,221.860 155.744 C 222.267 155.412,222.362 155.263,222.070 155.412 C 221.632 155.637,221.631 155.539,222.067 154.842 C 222.643 153.919,223.200 153.734,223.200 154.467 C 223.200 155.718,223.887 153.920,223.969 152.453 C 223.989 152.108,224.295 151.984,224.800 152.116 C 225.240 152.231,225.600 152.162,225.600 151.963 C 225.600 151.763,225.420 151.600,225.200 151.600 C 224.980 151.600,225.115 151.278,225.500 150.883 C 225.885 150.489,226.260 150.309,226.333 150.483 C 226.533 150.959,227.513 150.864,227.838 150.338 C 228.006 150.067,227.949 149.984,227.699 150.139 C 227.432 150.304,227.352 150.103,227.484 149.601 C 227.599 149.160,227.863 148.800,228.070 148.800 C 228.278 148.800,228.328 148.993,228.182 149.230 C 227.885 149.709,229.660 148.791,230.045 148.266 C 230.179 148.082,230.404 147.947,230.545 147.966 C 231.430 148.084,231.678 147.894,231.000 147.618 C 230.264 147.318,230.288 147.268,231.300 147.002 C 232.291 146.742,232.580 146.369,232.452 145.514 C 232.429 145.357,232.654 145.323,232.953 145.437 C 233.252 145.552,233.609 145.354,233.746 144.998 C 233.882 144.641,234.176 144.461,234.397 144.598 C 234.619 144.735,234.800 144.681,234.800 144.479 C 234.800 144.276,235.245 144.159,235.788 144.218 C 236.367 144.282,236.739 144.135,236.688 143.863 C 236.640 143.609,236.825 143.445,237.100 143.500 C 237.375 143.555,237.600 143.311,237.600 142.957 C 237.600 142.570,237.823 142.400,238.161 142.530 C 238.490 142.656,238.802 142.437,238.916 141.998 C 239.061 141.446,239.348 141.314,240.018 141.489 C 240.646 141.653,240.837 141.583,240.639 141.263 C 240.445 140.949,240.763 140.800,241.625 140.800 C 242.614 140.800,242.803 140.686,242.473 140.288 C 242.144 139.892,242.292 139.787,243.124 139.823 C 244.839 139.900,245.516 139.589,245.761 138.615 C 245.967 137.794,246.143 137.733,247.574 137.995 C 248.747 138.210,249.213 138.144,249.367 137.742 C 249.481 137.444,250.031 137.200,250.587 137.200 C 251.144 137.200,251.614 136.975,251.632 136.700 C 251.657 136.304,251.705 136.304,251.864 136.696 C 252.017 137.075,252.201 137.056,252.644 136.613 C 252.962 136.295,253.488 136.136,253.812 136.260 C 254.192 136.406,254.416 136.223,254.446 135.743 C 254.488 135.073,254.511 135.068,254.676 135.700 C 254.882 136.490,255.456 136.631,255.684 135.947 C 255.768 135.697,256.412 135.472,257.117 135.447 C 258.425 135.399,258.798 135.027,257.900 134.665 C 257.586 134.538,257.568 134.451,257.851 134.432 C 258.099 134.414,258.526 134.670,258.800 135.000 C 259.074 135.330,259.580 135.600,259.925 135.600 C 260.451 135.600,260.437 135.515,259.839 135.078 C 259.224 134.628,259.435 134.567,261.363 134.637 C 262.593 134.681,263.600 134.577,263.600 134.406 C 263.600 133.744,265.345 133.645,265.809 134.280 C 266.182 134.790,266.344 134.815,266.601 134.399 C 266.828 134.031,266.768 133.972,266.400 134.200 C 266.070 134.404,265.973 134.367,266.139 134.099 C 266.426 133.635,267.896 133.877,268.723 134.525 C 269.104 134.825,269.212 134.782,269.123 134.368 C 268.938 133.514,274.657 133.475,276.398 134.318 C 277.527 134.865,277.762 134.872,278.151 134.375 C 278.736 133.626,279.861 133.451,280.232 134.051 C 280.427 134.368,280.351 134.417,280.000 134.200 C 279.662 133.991,279.573 134.033,279.749 134.318 C 279.899 134.561,280.557 134.691,281.211 134.609 C 281.958 134.514,282.400 134.638,282.400 134.942 C 282.400 135.317,283.869 135.503,284.700 135.232 C 284.755 135.215,284.915 135.215,285.055 135.234 C 285.196 135.253,285.463 135.028,285.649 134.734 C 285.916 134.312,285.989 134.333,285.994 134.834 C 285.999 135.329,286.392 135.450,287.800 135.387 C 289.534 135.309,290.142 135.676,289.100 136.171 C 288.825 136.302,289.005 136.334,289.500 136.242 C 289.995 136.150,290.400 136.232,290.400 136.425 C 290.400 136.617,290.670 136.671,291.000 136.545 C 291.330 136.418,291.600 136.469,291.601 136.657 C 291.601 136.846,292.186 137.041,292.900 137.092 C 293.614 137.142,294.411 137.473,294.670 137.828 C 294.968 138.236,295.433 138.380,295.937 138.220 C 296.375 138.081,296.847 138.153,296.987 138.379 C 297.139 138.625,296.952 138.710,296.521 138.589 C 296.124 138.479,296.323 138.636,296.963 138.940 C 297.762 139.319,297.950 139.560,297.563 139.711 C 297.253 139.832,297.720 139.856,298.600 139.765 C 299.746 139.647,300.030 139.712,299.600 139.994 C 299.019 140.375,299.131 140.457,300.400 140.580 C 300.730 140.611,300.948 140.876,300.884 141.168 C 300.814 141.484,300.997 141.610,301.338 141.479 C 301.651 141.359,302.289 141.527,302.754 141.853 C 303.380 142.291,303.600 142.316,303.600 141.946 C 303.600 141.672,303.864 141.796,304.187 142.224 C 304.549 142.702,304.779 142.799,304.787 142.476 C 304.794 142.188,305.003 142.078,305.251 142.232 C 305.556 142.420,305.475 142.638,305.003 142.902 C 304.100 143.408,305.024 144.099,306.139 143.751 C 306.739 143.565,306.830 143.676,306.620 144.338 C 306.398 145.035,306.505 145.128,307.348 144.975 C 308.179 144.824,308.377 144.986,308.600 145.998 C 308.745 146.659,309.036 147.200,309.246 147.200 C 309.472 147.200,309.450 146.833,309.190 146.300 C 308.809 145.517,308.880 145.540,309.735 146.474 C 310.275 147.065,310.855 147.425,311.023 147.274 C 311.191 147.124,311.200 147.223,311.044 147.495 C 310.727 148.046,311.807 149.330,312.925 149.733 C 313.365 149.892,313.537 150.192,313.361 150.497 C 313.202 150.774,313.218 150.867,313.397 150.705 C 313.576 150.543,314.151 150.993,314.675 151.705 C 315.199 152.417,316.285 153.370,317.088 153.821 C 317.891 154.273,318.628 154.883,318.726 155.177 C 318.832 155.496,318.722 155.599,318.452 155.432 C 317.658 154.942,317.967 155.848,318.958 156.917 C 319.485 157.485,319.815 158.052,319.691 158.175 C 319.568 158.299,319.777 158.400,320.157 158.400 C 320.537 158.400,320.749 158.560,320.628 158.755 C 320.507 158.950,320.685 159.339,321.023 159.619 C 321.360 159.899,321.545 160.367,321.433 160.658 C 321.321 160.949,321.576 161.373,322.000 161.600 C 322.494 161.864,322.679 162.249,322.517 162.672 C 322.347 163.114,322.418 163.236,322.732 163.042 C 322.989 162.883,323.200 162.943,323.200 163.176 C 323.200 163.409,323.560 163.960,324.000 164.400 C 324.440 164.840,324.618 165.200,324.397 165.200 C 324.003 165.200,324.690 166.766,325.278 167.210 C 325.432 167.326,325.666 168.039,325.799 168.794 C 326.091 170.454,326.797 171.451,327.209 170.785 C 327.399 170.478,327.567 170.536,327.732 170.966 C 327.883 171.360,327.761 171.600,327.411 171.600 C 326.931 171.600,326.928 171.756,327.392 172.650 C 327.692 173.227,327.842 173.947,327.726 174.250 C 327.609 174.552,327.714 174.800,327.957 174.800 C 328.201 174.800,328.400 175.089,328.400 175.443 C 328.400 175.844,328.621 176.001,328.987 175.860 C 329.818 175.542,330.108 176.212,329.396 176.804 C 328.921 177.198,328.800 177.194,328.800 176.782 C 328.800 176.499,328.716 176.351,328.613 176.454 C 328.314 176.753,329.297 179.600,329.699 179.600 C 329.899 179.600,329.951 180.111,329.814 180.736 C 329.635 181.552,329.760 182.031,330.259 182.436 C 330.641 182.746,330.826 182.787,330.670 182.528 C 330.514 182.268,330.570 181.942,330.793 181.804 C 331.017 181.666,331.200 181.823,331.200 182.153 C 331.200 182.483,331.062 182.838,330.894 182.942 C 330.726 183.046,330.655 183.963,330.736 184.980 C 330.867 186.623,330.956 186.773,331.541 186.328 C 331.904 186.052,332.067 185.984,331.903 186.176 C 331.740 186.369,331.830 186.802,332.103 187.138 C 332.517 187.647,332.489 187.708,331.939 187.502 C 330.904 187.115,331.361 193.066,332.457 194.249 C 333.151 194.998,333.169 195.126,332.604 195.343 C 332.098 195.537,332.055 195.755,332.397 196.394 C 332.634 196.837,332.687 197.200,332.514 197.200 C 332.341 197.200,332.244 204.535,332.298 213.500 C 332.352 222.465,332.442 249.192,332.498 272.894 L 332.600 315.988 308.200 316.094 L 283.800 316.200 283.888 266.235 C 283.970 219.408,283.933 216.235,283.288 215.703 C 282.649 215.175,282.648 215.150,283.280 215.347 C 283.754 215.495,283.892 215.385,283.738 214.982 C 283.616 214.664,283.382 214.488,283.217 214.590 C 283.052 214.691,282.971 213.696,283.035 212.378 C 283.105 210.953,283.000 210.076,282.776 210.215 C 282.569 210.343,282.400 210.046,282.400 209.555 C 282.400 209.064,282.146 208.379,281.836 208.031 C 281.526 207.684,281.221 206.770,281.157 206.000 C 281.094 205.230,280.852 204.340,280.621 204.023 C 280.291 203.572,280.326 203.522,280.779 203.795 C 281.097 203.987,280.925 203.538,280.398 202.797 C 279.870 202.055,279.472 201.033,279.515 200.525 C 279.557 200.016,279.413 199.600,279.196 199.600 C 278.978 199.600,278.794 199.375,278.787 199.100 C 278.768 198.396,277.550 197.022,276.600 196.634 C 276.088 196.425,275.980 196.240,276.300 196.120 C 276.575 196.017,276.800 195.749,276.800 195.524 C 276.800 195.299,276.521 195.222,276.179 195.353 C 275.823 195.489,275.663 195.422,275.803 195.195 C 275.937 194.978,275.873 194.800,275.661 194.800 C 275.449 194.800,275.366 194.452,275.477 194.027 C 275.644 193.389,275.522 193.295,274.776 193.490 C 274.013 193.690,273.907 193.598,274.092 192.893 C 274.260 192.248,274.162 192.113,273.655 192.294 C 273.295 192.422,273.120 192.394,273.267 192.230 C 273.618 191.839,272.307 190.468,271.832 190.729 C 271.630 190.840,271.571 190.652,271.702 190.311 C 271.872 189.867,271.744 189.742,271.251 189.871 C 270.810 189.986,270.368 189.688,270.021 189.039 C 269.723 188.483,269.345 188.110,269.182 188.211 C 269.018 188.313,268.780 188.125,268.653 187.794 C 268.526 187.463,268.282 187.232,268.111 187.281 C 267.536 187.445,265.975 186.364,266.219 185.970 C 266.351 185.756,266.311 185.606,266.130 185.637 C 265.131 185.811,264.400 185.523,264.400 184.957 C 264.400 184.470,264.156 184.374,263.400 184.564 C 262.713 184.737,262.400 184.651,262.400 184.288 C 262.400 183.988,261.927 183.748,261.300 183.730 C 259.386 183.674,259.147 183.609,259.391 183.214 C 259.529 182.991,258.909 182.820,257.915 182.809 C 255.563 182.782,254.472 182.611,254.108 182.211 C 253.939 182.024,254.025 182.001,254.300 182.159 C 254.579 182.320,254.800 182.241,254.800 181.981 C 254.800 181.683,254.546 181.628,254.100 181.829 C 253.093 182.281,247.553 182.399,247.823 181.962 C 248.189 181.371,247.519 181.550,246.745 182.250 C 246.350 182.608,245.526 182.899,244.913 182.897 C 244.301 182.896,243.679 183.087,243.530 183.322 C 243.346 183.614,243.063 183.584,242.630 183.225 C 242.120 182.801,242.000 182.800,242.000 183.218 C 242.000 183.501,241.878 183.612,241.730 183.463 C 241.581 183.314,241.001 183.599,240.442 184.096 C 239.882 184.593,239.654 184.699,239.935 184.331 C 240.379 183.750,240.338 183.691,239.623 183.878 C 239.170 183.996,238.800 184.252,238.800 184.447 C 238.800 184.641,238.395 184.803,237.900 184.806 C 237.154 184.811,237.103 184.885,237.600 185.237 C 238.070 185.571,237.967 185.625,237.120 185.491 C 236.501 185.392,236.074 185.497,236.120 185.735 C 236.164 185.965,235.840 186.226,235.400 186.315 C 234.960 186.405,234.150 186.887,233.600 187.388 C 233.050 187.888,232.195 188.261,231.700 188.216 C 230.993 188.151,230.800 188.340,230.800 189.096 C 230.800 189.795,230.610 190.022,230.105 189.925 C 229.376 189.784,228.000 190.895,228.000 191.624 C 228.000 191.857,227.820 191.936,227.600 191.800 C 227.380 191.664,227.200 191.844,227.200 192.200 C 227.200 192.556,227.020 192.736,226.800 192.600 C 226.580 192.464,226.400 192.633,226.400 192.976 C 226.400 193.319,226.199 193.600,225.953 193.600 C 225.698 193.600,225.585 194.010,225.689 194.556 C 225.848 195.387,225.730 195.502,224.783 195.436 C 223.757 195.365,223.426 195.960,224.111 196.644 C 224.580 197.113,223.958 197.663,223.443 197.235 C 223.081 196.935,222.962 197.110,222.978 197.916 C 222.993 198.650,222.817 198.960,222.432 198.877 C 221.942 198.772,221.942 198.850,222.432 199.454 C 222.795 199.901,222.819 200.045,222.500 199.853 C 222.225 199.688,222.000 199.736,222.000 199.961 C 222.000 200.185,221.595 200.747,221.100 201.209 C 220.271 201.983,220.263 202.030,221.000 201.797 C 221.565 201.619,221.506 201.725,220.800 202.158 C 220.250 202.496,219.980 202.784,220.200 202.798 C 220.420 202.812,220.285 203.008,219.900 203.232 C 219.515 203.456,219.213 203.946,219.228 204.320 C 219.251 204.879,219.318 204.857,219.600 204.200 C 219.940 203.409,219.944 203.410,219.972 204.224 C 219.987 204.676,219.717 205.396,219.370 205.824 C 219.024 206.251,218.870 206.330,219.029 206.000 C 219.274 205.490,219.233 205.483,218.759 205.950 C 218.326 206.376,218.313 206.541,218.700 206.683 C 218.975 206.784,219.200 207.132,219.200 207.457 C 219.200 207.782,219.035 207.945,218.834 207.821 C 218.311 207.497,218.046 208.479,218.447 209.260 C 218.676 209.707,218.600 209.991,218.213 210.140 C 217.833 210.285,217.715 210.165,217.863 209.780 C 217.986 209.461,217.922 209.200,217.723 209.200 C 217.523 209.200,217.397 210.010,217.442 211.000 C 217.502 212.318,217.374 212.800,216.962 212.800 C 216.653 212.800,216.400 212.980,216.400 213.200 C 216.400 213.420,216.580 213.600,216.800 213.600 C 217.020 213.600,217.200 213.960,217.200 214.400 C 217.200 214.840,217.025 215.200,216.812 215.200 C 216.599 215.200,216.419 215.785,216.413 216.500 C 216.407 217.215,216.345 218.430,216.275 219.200 C 216.206 219.970,216.116 242.065,216.075 268.300 L 216.000 316.000 191.600 316.000 L 167.200 316.000 167.200 224.800 L 167.200 133.600 191.600 133.600 L 216.000 133.600 216.000 147.957 M398.916 332.400 C 398.692 333.257,397.933 333.536,398.100 332.700 C 398.180 332.298,398.763 331.635,399.063 331.606 C 399.097 331.603,399.031 331.960,398.916 332.400 M383.589 367.413 C 383.321 367.736,382.899 367.995,382.651 367.988 C 382.403 367.981,382.515 367.792,382.900 367.568 C 383.285 367.344,383.614 366.854,383.632 366.480 C 383.652 366.042,383.737 365.983,383.869 366.313 C 383.983 366.596,383.857 367.091,383.589 367.413 M367.800 383.200 C 367.402 383.640,366.789 383.989,366.438 383.975 C 366.023 383.958,366.114 383.823,366.700 383.588 C 367.195 383.389,367.600 383.040,367.600 382.813 C 367.600 382.586,367.808 382.400,368.062 382.400 C 368.324 382.400,368.211 382.746,367.800 383.200 " stroke="none" fill="#449cfc" fill-rule="evenodd"></path><path id="path1" d="M331.600 0.776 C 331.600 1.009,331.825 1.215,332.100 1.233 C 332.375 1.251,333.137 1.353,333.793 1.459 C 335.267 1.698,334.996 1.324,333.498 1.052 C 332.901 0.944,332.230 0.742,332.007 0.604 C 331.783 0.466,331.600 0.543,331.600 0.776 M336.933 1.800 C 336.933 2.130,337.276 2.400,337.695 2.400 C 338.372 2.400,338.390 2.333,337.857 1.800 C 337.527 1.470,337.184 1.200,337.095 1.200 C 337.006 1.200,336.933 1.470,336.933 1.800 M353.196 8.196 C 353.727 8.835,354.404 8.655,354.394 7.876 C 354.390 7.590,354.233 7.639,354.000 8.000 C 353.742 8.400,353.610 8.433,353.606 8.100 C 353.603 7.825,353.398 7.600,353.151 7.600 C 352.839 7.600,352.853 7.782,353.196 8.196 M28.484 19.040 C 28.152 19.401,28.125 19.600,28.408 19.600 C 28.649 19.600,28.736 19.780,28.600 20.000 C 28.464 20.220,28.623 20.400,28.953 20.400 C 29.351 20.400,29.499 20.112,29.390 19.546 C 29.173 18.423,29.094 18.379,28.484 19.040 M18.884 28.640 C 18.601 28.948,18.511 29.214,18.684 29.231 C 18.858 29.247,19.325 29.323,19.722 29.398 C 20.338 29.516,20.370 29.437,19.936 28.868 C 19.655 28.501,19.420 28.173,19.413 28.140 C 19.406 28.108,19.168 28.333,18.884 28.640 M12.524 37.373 C 12.262 37.671,12.157 38.024,12.291 38.157 C 12.740 38.607,13.029 38.405,13.090 37.600 C 13.160 36.666,13.148 36.661,12.524 37.373 M10.900 40.265 C 10.314 40.501,10.221 41.600,10.786 41.600 C 10.998 41.600,11.365 41.240,11.600 40.800 C 12.025 40.005,11.859 39.878,10.900 40.265 M390.884 44.215 C 390.556 44.587,390.527 44.800,390.804 44.800 C 391.043 44.800,391.491 45.385,391.799 46.100 L 392.360 47.400 392.280 46.134 C 392.236 45.438,392.020 44.898,391.800 44.934 C 391.580 44.970,391.453 44.685,391.518 44.300 C 391.658 43.461,391.561 43.448,390.884 44.215 M110.201 53.703 C 109.838 53.907,108.683 54.012,107.636 53.937 C 106.283 53.840,105.732 53.948,105.733 54.313 C 105.733 54.687,106.476 54.807,108.477 54.756 C 109.986 54.718,111.129 54.595,111.016 54.483 C 110.904 54.371,111.103 54.066,111.459 53.806 C 112.287 53.201,111.250 53.116,110.201 53.703 M104.000 54.200 C 104.274 54.530,104.701 54.797,104.949 54.794 C 105.213 54.790,105.174 54.645,104.855 54.442 C 104.394 54.151,104.394 54.063,104.855 53.880 C 105.157 53.760,104.976 53.649,104.451 53.632 C 103.652 53.605,103.581 53.695,104.000 54.200 M4.142 54.933 C 4.174 55.447,4.425 55.867,4.700 55.867 C 5.302 55.867,5.358 55.345,4.793 54.996 C 4.570 54.858,4.491 54.577,4.617 54.372 C 4.744 54.168,4.676 54.000,4.466 54.000 C 4.256 54.000,4.111 54.420,4.142 54.933 M97.400 55.996 C 96.751 56.271,96.839 56.322,97.861 56.267 C 98.555 56.230,99.039 56.065,98.937 55.900 C 98.714 55.537,98.442 55.553,97.400 55.996 M118.800 55.989 C 118.800 56.109,119.148 56.425,119.574 56.691 C 120.232 57.102,120.340 57.069,120.296 56.473 C 120.250 55.866,118.800 55.397,118.800 55.989 M121.200 57.041 C 121.200 57.322,122.278 58.400,122.559 58.400 C 122.989 58.400,122.324 57.256,121.769 57.043 C 121.456 56.923,121.200 56.922,121.200 57.041 M89.630 60.564 C 89.309 60.950,89.294 61.211,89.581 61.388 C 89.811 61.531,90.014 61.592,90.031 61.524 C 90.419 59.955,90.324 59.728,89.630 60.564 M1.700 62.198 C 1.055 62.931,1.070 63.067,1.800 63.067 C 2.130 63.067,2.400 62.737,2.400 62.333 C 2.400 61.466,2.353 61.456,1.700 62.198 M88.394 62.300 C 88.389 62.898,88.331 62.913,88.000 62.400 C 87.674 61.896,87.611 61.920,87.606 62.553 C 87.603 62.967,87.211 63.643,86.736 64.056 C 86.261 64.468,85.985 64.919,86.124 65.057 C 86.463 65.396,88.800 62.864,88.800 62.158 C 88.800 61.851,88.710 61.600,88.600 61.600 C 88.490 61.600,88.397 61.915,88.394 62.300 M1.169 65.700 C 1.126 66.414,0.917 67.301,0.621 68.033 C 0.464 68.424,0.572 68.667,0.903 68.667 C 1.263 68.667,1.458 68.094,1.491 66.933 C 1.534 65.427,1.252 64.346,1.169 65.700 M83.308 68.587 C 82.690 69.542,82.555 70.049,82.870 70.243 C 83.148 70.415,83.213 70.345,83.038 70.062 C 82.881 69.808,82.943 69.600,83.176 69.600 C 83.409 69.600,83.600 69.324,83.600 68.987 C 83.600 68.651,83.870 68.271,84.200 68.145 C 84.530 68.018,84.800 67.754,84.800 67.557 C 84.800 66.821,84.171 67.255,83.308 68.587 M135.867 75.371 C 135.746 75.685,135.952 76.180,136.324 76.471 C 136.931 76.946,136.944 76.929,136.451 76.300 C 136.092 75.842,136.057 75.600,136.351 75.600 C 136.598 75.600,136.800 75.420,136.800 75.200 C 136.800 74.596,136.116 74.721,135.867 75.371 M79.600 78.000 C 79.221 78.245,79.179 78.390,79.487 78.394 C 79.756 78.397,79.871 78.670,79.745 79.000 C 79.618 79.330,79.678 79.600,79.877 79.600 C 80.077 79.600,80.240 79.150,80.240 78.600 C 80.240 78.050,80.231 77.603,80.220 77.606 C 80.209 77.609,79.930 77.787,79.600 78.000 M136.464 82.432 C 136.472 84.680,136.621 86.290,136.795 86.009 C 136.968 85.728,137.281 85.603,137.489 85.731 C 137.697 85.860,137.867 85.703,137.867 85.382 C 137.867 85.062,137.627 84.800,137.333 84.800 C 136.691 84.800,136.583 81.152,137.192 80.016 C 137.474 79.489,137.425 79.152,137.016 78.813 C 136.533 78.413,136.451 78.947,136.464 82.432 M80.114 83.000 C 80.117 84.100,80.195 84.503,80.287 83.895 C 80.379 83.286,80.377 82.386,80.282 81.895 C 80.187 81.403,80.111 81.900,80.114 83.000 M135.733 89.600 C 135.733 90.751,136.127 91.166,136.557 90.469 C 136.821 90.042,136.395 88.400,136.020 88.400 C 135.862 88.400,135.733 88.940,135.733 89.600 M134.000 94.200 C 133.605 94.677,133.604 94.923,133.996 95.396 C 134.669 96.206,135.305 95.743,134.804 94.808 C 134.520 94.277,134.548 94.007,134.903 93.864 C 135.219 93.736,135.235 93.652,134.949 93.632 C 134.701 93.614,134.274 93.870,134.000 94.200 M82.060 95.180 C 82.148 95.444,82.351 95.647,82.510 95.630 C 82.988 95.581,82.896 95.032,82.380 94.860 C 82.116 94.772,81.972 94.916,82.060 95.180 M132.046 98.100 C 132.079 98.742,132.144 98.805,132.271 98.322 C 132.383 97.898,132.703 97.725,133.125 97.860 C 133.702 98.044,133.713 98.013,133.200 97.644 C 132.292 96.991,131.995 97.108,132.046 98.100 M127.402 103.598 C 126.740 104.330,126.735 104.400,127.351 104.400 C 127.722 104.400,128.132 104.122,128.262 103.783 C 128.634 102.812,128.198 102.718,127.402 103.598 M118.784 109.630 C 118.376 110.392,118.409 110.423,119.181 110.010 C 119.644 109.763,119.917 109.389,119.788 109.180 C 119.446 108.628,119.280 108.703,118.784 109.630 M99.200 110.267 C 99.200 110.560,99.361 110.800,99.557 110.800 C 99.754 110.800,100.007 110.560,100.119 110.267 C 100.232 109.973,100.071 109.733,99.762 109.733 C 99.453 109.733,99.200 109.973,99.200 110.267 M111.759 111.267 C 111.645 111.450,112.193 111.600,112.976 111.600 C 113.759 111.600,114.400 111.530,114.400 111.445 C 114.400 111.117,111.954 110.951,111.759 111.267 M167.397 224.800 C 167.397 275.070,167.443 295.635,167.500 270.500 C 167.557 245.365,167.557 204.235,167.500 179.100 C 167.443 153.965,167.397 174.530,167.397 224.800 M215.709 148.500 L 215.637 163.200 216.818 163.200 C 217.468 163.200,218.000 163.035,218.000 162.833 C 218.000 162.631,218.120 162.136,218.266 161.733 C 218.458 161.205,218.282 161.279,217.636 162.000 C 217.143 162.550,216.852 162.777,216.990 162.505 C 217.155 162.179,217.030 162.090,216.626 162.245 C 216.080 162.455,215.997 160.857,215.896 148.141 L 215.781 133.800 215.709 148.500 M264.227 133.959 C 263.732 134.153,263.614 134.361,263.899 134.538 C 264.144 134.689,264.470 134.611,264.622 134.364 C 264.819 134.046,265.000 134.073,265.244 134.457 C 265.512 134.880,265.589 134.845,265.594 134.300 C 265.601 133.543,265.411 133.495,264.227 133.959 M266.167 134.054 C 265.917 134.458,265.833 134.421,267.540 134.663 C 268.329 134.775,268.784 134.698,268.646 134.475 C 268.322 133.951,266.429 133.629,266.167 134.054 M274.589 134.018 C 274.286 134.508,275.152 134.832,276.200 134.622 C 276.640 134.533,277.261 134.447,277.580 134.431 C 278.060 134.405,278.069 134.314,277.630 133.900 C 277.223 133.516,277.059 133.511,276.923 133.880 C 276.800 134.215,276.457 134.250,275.788 133.995 C 275.189 133.768,274.738 133.776,274.589 134.018 M278.400 134.218 C 278.400 134.465,278.670 134.667,279.000 134.667 C 279.330 134.667,279.600 134.506,279.600 134.310 C 279.600 134.113,279.808 134.081,280.062 134.238 C 280.338 134.409,280.415 134.349,280.254 134.087 C 279.906 133.524,278.400 133.631,278.400 134.218 M259.200 134.686 C 259.200 135.130,260.753 135.500,260.909 135.093 C 261.026 134.788,260.736 134.600,260.149 134.600 C 259.627 134.600,259.200 134.639,259.200 134.686 M285.600 134.824 C 285.600 135.057,285.432 135.144,285.228 135.017 C 285.023 134.891,284.742 134.970,284.604 135.193 C 284.465 135.419,284.720 135.600,285.176 135.600 C 285.642 135.600,286.000 135.339,286.000 135.000 C 286.000 134.670,285.910 134.400,285.800 134.400 C 285.690 134.400,285.600 134.591,285.600 134.824 M286.864 135.877 C 287.094 136.155,287.670 136.310,288.142 136.221 C 288.614 136.132,289.135 136.046,289.300 136.030 C 290.390 135.922,289.301 135.350,288.022 135.360 C 286.796 135.368,286.538 135.484,286.864 135.877 M292.763 137.568 C 293.804 138.470,294.190 138.632,293.800 138.000 C 293.664 137.780,293.728 137.600,293.943 137.600 C 294.158 137.600,294.424 137.825,294.535 138.100 C 294.681 138.461,294.746 138.467,294.768 138.124 C 294.806 137.550,294.561 137.397,293.002 137.023 L 291.803 136.735 292.763 137.568 M245.820 138.292 C 245.521 139.070,245.520 139.067,246.200 139.067 C 246.530 139.067,246.800 138.930,246.800 138.763 C 246.800 138.595,247.115 138.392,247.500 138.309 C 247.990 138.205,247.876 138.094,247.120 137.939 C 246.393 137.791,245.968 137.906,245.820 138.292 M295.817 138.372 C 295.521 138.851,296.274 139.325,296.807 138.996 C 297.254 138.719,296.960 138.000,296.400 138.000 C 296.206 138.000,295.944 138.168,295.817 138.372 M303.700 142.592 C 303.700 143.735,303.897 143.804,304.924 143.026 C 305.381 142.679,305.492 142.380,305.224 142.215 C 304.991 142.071,304.794 142.188,304.787 142.476 C 304.779 142.821,304.591 142.758,304.237 142.292 C 303.742 141.640,303.700 141.663,303.700 142.592 M233.758 144.966 C 233.614 145.340,233.259 145.555,232.969 145.443 C 232.641 145.318,232.521 145.451,232.653 145.795 C 232.770 146.100,233.107 146.257,233.402 146.144 C 233.989 145.919,234.538 144.804,234.219 144.485 C 234.109 144.375,233.901 144.592,233.758 144.966 M308.391 146.058 C 307.905 146.401,307.927 146.434,308.515 146.244 C 309.009 146.085,309.330 146.280,309.549 146.875 C 309.729 147.359,309.981 147.555,310.125 147.322 C 310.549 146.635,309.085 145.568,308.391 146.058 M225.531 150.855 C 224.973 151.425,224.956 151.574,225.431 151.757 C 225.744 151.877,226.000 151.781,226.000 151.545 C 226.000 151.308,226.270 151.218,226.600 151.345 C 227.330 151.625,227.376 151.314,226.700 150.657 C 226.307 150.275,226.057 150.317,225.531 150.855 M224.000 152.501 C 224.000 152.777,223.459 153.513,222.798 154.137 C 221.644 155.227,221.522 156.035,222.524 155.968 C 222.890 155.944,222.891 155.892,222.525 155.743 C 221.876 155.479,223.224 154.076,223.900 154.312 C 224.175 154.407,224.400 154.196,224.400 153.843 C 224.400 153.489,224.580 153.200,224.800 153.200 C 225.020 153.200,225.200 152.930,225.200 152.600 C 225.200 152.270,224.930 152.000,224.600 152.000 C 224.270 152.000,224.000 152.226,224.000 152.501 M316.000 153.508 C 316.001 153.669,316.451 154.323,317.000 154.962 C 317.550 155.601,318.000 155.906,318.000 155.639 C 318.000 155.371,318.203 155.278,318.452 155.432 C 318.722 155.599,318.832 155.496,318.725 155.175 C 318.529 154.586,316.000 153.038,316.000 153.508 M328.948 176.192 C 328.610 177.072,328.981 177.346,329.562 176.645 C 329.890 176.251,329.907 175.989,329.617 175.810 C 329.384 175.667,329.083 175.838,328.948 176.192 M247.823 181.962 C 247.695 182.169,248.928 182.290,250.700 182.243 C 252.405 182.198,254.070 182.350,254.400 182.581 C 254.920 182.944,254.927 182.907,254.451 182.300 C 253.849 181.533,248.265 181.248,247.823 181.962 M264.800 185.484 C 265.130 185.605,265.760 185.996,266.200 186.352 C 266.993 186.994,266.994 186.992,266.238 186.100 C 265.819 185.605,265.189 185.214,264.838 185.232 C 264.296 185.258,264.291 185.297,264.800 185.484 M331.549 186.100 C 331.196 186.791,331.412 187.893,331.866 187.719 C 332.254 187.570,332.298 187.360,332.014 187.016 C 331.790 186.747,331.725 186.408,331.870 186.263 C 332.015 186.118,332.013 186.000,331.867 186.000 C 331.720 186.000,331.577 186.045,331.549 186.100 M332.000 194.727 C 332.000 195.181,332.208 195.681,332.462 195.838 C 332.735 196.007,332.816 195.949,332.659 195.696 C 332.514 195.461,332.596 195.201,332.841 195.120 C 333.123 195.026,333.050 194.774,332.644 194.436 C 332.087 193.975,332.000 194.014,332.000 194.727 M222.191 198.010 C 221.503 198.770,221.499 198.865,222.122 199.417 C 222.490 199.743,222.704 199.889,222.599 199.742 C 222.493 199.594,222.607 199.232,222.852 198.937 C 223.188 198.532,223.163 198.398,222.749 198.394 C 222.311 198.389,222.319 198.312,222.788 198.016 C 223.112 197.811,223.276 197.543,223.153 197.419 C 223.029 197.296,222.597 197.562,222.191 198.010 M220.032 201.900 C 220.049 202.285,220.151 202.385,220.257 202.122 C 220.364 201.860,220.755 201.742,221.126 201.860 C 221.702 202.044,221.713 202.013,221.200 201.644 C 220.339 201.025,219.995 201.100,220.032 201.900 M219.317 205.196 C 219.203 205.633,218.922 205.875,218.693 205.734 C 218.434 205.574,218.398 205.674,218.599 205.999 C 218.921 206.520,220.000 205.537,220.000 204.724 C 220.000 204.085,219.521 204.416,219.317 205.196 M281.295 206.558 C 281.252 207.084,281.452 207.711,281.741 207.951 C 282.134 208.277,282.267 208.242,282.267 207.811 C 282.267 207.494,282.117 207.328,281.933 207.441 C 281.750 207.555,281.600 207.356,281.600 207.000 C 281.600 206.589,281.782 206.462,282.100 206.653 C 282.440 206.857,282.424 206.737,282.051 206.277 C 281.362 205.427,281.390 205.417,281.295 206.558 M217.881 209.466 C 218.033 209.862,217.974 210.031,217.735 209.883 C 217.514 209.747,217.333 209.880,217.333 210.179 C 217.333 210.596,217.496 210.622,218.027 210.290 C 218.702 209.869,218.661 208.800,217.970 208.800 C 217.780 208.800,217.740 209.100,217.881 209.466 M216.900 211.798 C 216.269 212.515,216.272 212.667,216.920 212.667 C 217.206 212.667,217.465 212.337,217.495 211.933 C 217.560 211.067,217.547 211.064,216.900 211.798 M215.710 267.200 L 215.786 316.200 215.993 267.800 C 216.107 241.180,216.073 219.130,215.917 218.800 C 215.762 218.470,215.669 240.250,215.710 267.200 M0.839 331.753 C 0.489 332.175,0.505 332.355,0.908 332.509 C 1.222 332.630,1.459 332.406,1.493 331.956 C 1.561 331.055,1.448 331.019,0.839 331.753 M398.600 331.906 C 398.070 332.296,397.904 333.200,398.363 333.200 C 398.562 333.200,398.625 333.605,398.503 334.100 C 398.382 334.595,398.404 334.889,398.554 334.754 C 398.752 334.574,399.205 331.566,399.027 331.606 C 399.012 331.609,398.820 331.744,398.600 331.906 M397.867 337.067 C 397.720 337.213,397.600 337.586,397.600 337.895 C 397.600 338.361,397.703 338.354,398.200 337.857 C 398.530 337.527,398.800 337.154,398.800 337.029 C 398.800 336.715,398.193 336.740,397.867 337.067 M393.491 348.964 C 392.813 349.478,392.813 349.510,393.505 349.691 C 394.011 349.823,394.229 349.657,394.229 349.140 C 394.229 348.733,394.222 348.406,394.214 348.413 C 394.206 348.420,393.881 348.668,393.491 348.964 M7.751 353.866 C 7.778 354.562,7.980 355.102,8.200 355.066 C 8.420 355.030,8.543 355.333,8.473 355.741 C 8.365 356.373,8.433 356.402,8.932 355.941 C 9.431 355.480,9.435 355.353,8.956 355.079 C 8.598 354.874,8.471 354.367,8.604 353.679 C 8.772 352.811,8.744 352.756,8.460 353.400 L 8.108 354.200 7.905 353.400 C 7.788 352.940,7.722 353.139,7.751 353.866 M391.724 353.373 C 391.462 353.671,391.357 354.024,391.491 354.157 C 391.940 354.607,392.229 354.405,392.290 353.600 C 392.360 352.666,392.348 352.661,391.724 353.373 M386.233 362.657 C 386.095 363.019,386.075 363.409,386.191 363.524 C 386.306 363.639,386.400 363.513,386.400 363.243 C 386.400 362.973,386.535 362.835,386.700 362.934 C 386.865 363.034,387.232 362.865,387.516 362.558 C 387.944 362.095,387.900 362.000,387.259 362.000 C 386.833 362.000,386.372 362.296,386.233 362.657 M383.632 366.480 C 383.614 366.854,383.285 367.344,382.900 367.568 C 382.515 367.792,382.403 367.981,382.651 367.988 C 383.311 368.006,384.109 366.909,383.869 366.313 C 383.737 365.983,383.652 366.042,383.632 366.480 M18.884 371.361 C 19.168 371.669,19.460 371.758,19.534 371.558 C 19.781 370.890,20.368 371.616,20.145 372.313 C 19.969 372.861,20.006 372.886,20.325 372.436 C 20.922 371.596,20.444 370.800,19.341 370.800 C 18.528 370.800,18.453 370.892,18.884 371.361 M380.131 371.406 C 380.389 371.684,380.692 371.796,380.805 371.656 C 380.917 371.515,381.150 371.288,381.321 371.150 C 381.493 371.013,381.190 370.900,380.648 370.900 C 379.872 370.900,379.762 371.008,380.131 371.406 M20.994 373.210 C 20.855 373.435,20.979 373.570,21.270 373.510 C 21.562 373.449,21.745 373.655,21.677 373.968 C 21.582 374.411,21.678 374.434,22.114 374.071 C 22.422 373.816,22.831 373.740,23.024 373.903 C 23.216 374.067,23.133 373.885,22.838 373.500 C 22.241 372.720,21.380 372.585,20.994 373.210 M377.335 373.300 C 376.871 374.042,376.821 374.800,377.235 374.800 C 377.436 374.800,377.600 374.530,377.600 374.200 C 377.600 373.861,377.958 373.600,378.424 373.600 C 378.877 373.600,379.136 373.420,379.000 373.200 C 378.656 372.643,377.710 372.700,377.335 373.300 M23.900 375.933 C 24.725 376.777,25.461 377.420,25.537 377.363 C 25.783 377.178,25.158 375.614,24.876 375.708 C 24.724 375.759,24.570 375.640,24.534 375.445 C 24.450 374.989,23.545 374.414,22.900 374.406 C 22.625 374.403,23.075 375.090,23.900 375.933 M375.322 375.340 C 374.819 375.871,374.656 376.267,374.940 376.267 C 375.501 376.267,376.151 375.606,376.300 374.884 C 376.436 374.224,376.335 374.271,375.322 375.340 M26.097 376.976 C 26.260 377.169,26.184 377.578,25.929 377.886 C 25.566 378.322,25.589 378.418,26.032 378.323 C 26.345 378.255,26.551 378.438,26.490 378.730 C 26.430 379.021,26.565 379.145,26.790 379.006 C 27.415 378.620,27.280 377.759,26.500 377.162 C 26.115 376.867,25.933 376.784,26.097 376.976 M372.871 377.967 C 372.508 378.535,371.939 379.219,371.606 379.487 C 371.086 379.906,371.127 379.976,371.900 379.987 C 372.454 379.995,372.800 379.760,372.800 379.376 C 372.800 379.033,372.980 378.864,373.200 379.000 C 373.420 379.136,373.600 378.877,373.600 378.424 C 373.600 377.958,373.861 377.600,374.200 377.600 C 374.530 377.600,374.800 377.450,374.800 377.267 C 374.800 376.524,373.488 377.000,372.871 377.967 M28.564 380.130 C 28.247 380.493,28.261 380.754,28.614 381.084 C 28.987 381.432,29.100 381.312,29.100 380.569 C 29.100 380.036,29.078 379.607,29.050 379.615 C 29.023 379.624,28.804 379.855,28.564 380.130 M367.600 382.813 C 367.600 383.040,367.195 383.389,366.700 383.588 C 366.114 383.823,366.023 383.958,366.438 383.975 C 366.789 383.989,367.402 383.640,367.800 383.200 C 368.211 382.746,368.324 382.400,368.062 382.400 C 367.808 382.400,367.600 382.586,367.600 382.813 M34.000 384.400 C 33.065 384.700,33.057 384.723,33.880 384.760 C 34.364 384.782,34.929 385.101,35.135 385.470 C 35.341 385.838,35.801 386.183,36.157 386.235 C 36.513 386.287,36.701 386.163,36.574 385.958 C 36.448 385.754,36.196 385.679,36.014 385.791 C 35.683 385.996,35.017 384.864,35.136 384.300 C 35.171 384.135,35.155 384.018,35.100 384.040 C 35.045 384.062,34.550 384.224,34.000 384.400 M362.284 386.500 C 361.916 386.775,361.747 387.205,361.907 387.456 C 362.119 387.786,362.342 387.758,362.716 387.356 C 362.999 387.050,363.089 386.797,362.916 386.794 C 362.742 386.791,362.870 386.613,363.200 386.400 C 363.530 386.187,363.609 386.009,363.376 386.006 C 363.144 386.003,362.652 386.225,362.284 386.500 M38.211 386.783 C 38.081 386.993,37.665 387.066,37.287 386.945 C 36.881 386.814,36.763 386.864,37.000 387.067 C 37.220 387.255,37.520 387.558,37.668 387.739 C 37.815 387.920,38.136 387.693,38.382 387.234 C 38.820 386.416,38.675 386.032,38.211 386.783 M45.796 391.607 C 45.430 392.199,45.777 392.502,46.631 392.335 C 47.256 392.213,47.263 392.149,46.698 391.681 C 46.248 391.308,45.993 391.287,45.796 391.607 M349.275 393.616 C 348.794 394.064,348.400 394.644,348.400 394.905 C 348.400 395.165,348.680 394.978,349.023 394.489 C 349.650 393.593,350.693 393.202,350.162 394.062 C 349.989 394.341,350.052 394.415,350.321 394.249 C 350.565 394.098,350.664 393.710,350.540 393.387 C 350.258 392.654,350.320 392.643,349.275 393.616 M54.800 395.224 C 54.800 395.457,54.620 395.536,54.400 395.400 C 54.180 395.264,54.000 395.332,54.000 395.552 C 54.000 395.771,54.330 395.925,54.733 395.895 C 55.437 395.842,55.818 394.800,55.133 394.800 C 54.950 394.800,54.800 394.991,54.800 395.224 M62.143 398.200 C 62.473 398.530,62.816 398.800,62.905 398.800 C 62.994 398.800,63.067 398.530,63.067 398.200 C 63.067 397.870,62.724 397.600,62.305 397.600 C 61.628 397.600,61.610 397.667,62.143 398.200 M66.832 398.263 C 66.813 398.538,66.435 398.635,65.900 398.503 C 65.405 398.382,65.094 398.388,65.209 398.517 C 65.324 398.646,65.906 398.840,66.502 398.948 C 67.099 399.056,67.733 399.235,67.912 399.346 C 68.092 399.457,68.479 399.398,68.773 399.217 C 69.184 398.963,69.098 398.774,68.406 398.403 C 67.813 398.086,67.597 398.071,67.775 398.360 C 67.925 398.602,67.872 398.800,67.657 398.800 C 67.442 398.800,67.176 398.575,67.065 398.300 C 66.929 397.964,66.853 397.952,66.832 398.263 M327.206 399.124 C 327.203 399.426,326.989 399.528,326.700 399.365 C 326.317 399.149,326.309 399.200,326.665 399.586 C 327.314 400.290,328.082 399.970,327.593 399.200 C 327.317 398.765,327.211 398.744,327.206 399.124 " stroke="none" fill="#4494fc" fill-rule="evenodd"></path><path id="path2" d="M355.806 9.210 C 356.072 9.640,357.600 9.980,357.600 9.609 C 357.600 9.435,357.155 9.208,356.612 9.104 C 356.069 9.001,355.706 9.048,355.806 9.210 M9.104 43.388 C 9.001 43.931,9.048 44.294,9.210 44.194 C 9.640 43.928,9.980 42.400,9.609 42.400 C 9.435 42.400,9.208 42.845,9.104 43.388 M123.451 58.717 C 123.342 58.895,123.600 59.257,124.026 59.523 C 124.935 60.091,125.045 59.788,124.226 58.968 C 123.910 58.652,123.561 58.539,123.451 58.717 M133.400 95.755 C 132.647 96.652,132.664 97.482,133.420 96.739 C 133.790 96.376,134.027 95.899,133.946 95.679 C 133.857 95.435,133.644 95.464,133.400 95.755 M129.024 101.813 C 128.467 102.234,128.410 102.402,128.824 102.406 C 129.311 102.411,129.307 102.478,128.800 102.837 C 128.267 103.214,128.267 103.243,128.800 103.097 C 129.130 103.007,129.400 102.717,129.400 102.452 C 129.400 102.187,129.670 101.800,130.000 101.592 C 130.330 101.383,130.420 101.215,130.200 101.219 C 129.980 101.222,129.451 101.490,129.024 101.813 M221.400 199.755 C 220.647 200.652,220.664 201.482,221.420 200.739 C 221.790 200.376,222.027 199.899,221.946 199.679 C 221.857 199.435,221.644 199.464,221.400 199.755 M390.526 356.300 C 390.389 356.685,390.204 357.135,390.115 357.300 C 390.026 357.465,390.122 357.600,390.330 357.600 C 390.537 357.600,390.793 357.150,390.898 356.600 C 391.118 355.449,390.893 355.268,390.526 356.300 M42.400 390.391 C 42.400 390.565,42.845 390.792,43.388 390.896 C 43.931 390.999,44.294 390.952,44.194 390.790 C 43.928 390.360,42.400 390.020,42.400 390.391 " stroke="none" fill="#489cfc" fill-rule="evenodd"></path><path id="path3" d="M355.806 9.210 C 356.072 9.640,357.600 9.980,357.600 9.609 C 357.600 9.435,357.155 9.208,356.612 9.104 C 356.069 9.001,355.706 9.048,355.806 9.210 M9.104 43.388 C 9.001 43.931,9.048 44.294,9.210 44.194 C 9.640 43.928,9.980 42.400,9.609 42.400 C 9.435 42.400,9.208 42.845,9.104 43.388 M123.451 58.717 C 123.342 58.895,123.600 59.257,124.026 59.523 C 124.935 60.091,125.045 59.788,124.226 58.968 C 123.910 58.652,123.561 58.539,123.451 58.717 M133.400 95.755 C 132.647 96.652,132.664 97.482,133.420 96.739 C 133.790 96.376,134.027 95.899,133.946 95.679 C 133.857 95.435,133.644 95.464,133.400 95.755 M129.024 101.813 C 128.467 102.234,128.410 102.402,128.824 102.406 C 129.311 102.411,129.307 102.478,128.800 102.837 C 128.267 103.214,128.267 103.243,128.800 103.097 C 129.130 103.007,129.400 102.717,129.400 102.452 C 129.400 102.187,129.670 101.800,130.000 101.592 C 130.330 101.383,130.420 101.215,130.200 101.219 C 129.980 101.222,129.451 101.490,129.024 101.813 M221.400 199.755 C 220.647 200.652,220.664 201.482,221.420 200.739 C 221.790 200.376,222.027 199.899,221.946 199.679 C 221.857 199.435,221.644 199.464,221.400 199.755 M390.526 356.300 C 390.389 356.685,390.204 357.135,390.115 357.300 C 390.026 357.465,390.122 357.600,390.330 357.600 C 390.537 357.600,390.793 357.150,390.898 356.600 C 391.118 355.449,390.893 355.268,390.526 356.300 M42.400 390.391 C 42.400 390.565,42.845 390.792,43.388 390.896 C 43.931 390.999,44.294 390.952,44.194 390.790 C 43.928 390.360,42.400 390.020,42.400 390.391 " stroke="none" fill="#489cfc" fill-rule="evenodd"></path><path id="path4" d="M355.806 9.210 C 356.072 9.640,357.600 9.980,357.600 9.609 C 357.600 9.435,357.155 9.208,356.612 9.104 C 356.069 9.001,355.706 9.048,355.806 9.210 M9.104 43.388 C 9.001 43.931,9.048 44.294,9.210 44.194 C 9.640 43.928,9.980 42.400,9.609 42.400 C 9.435 42.400,9.208 42.845,9.104 43.388 M123.451 58.717 C 123.342 58.895,123.600 59.257,124.026 59.523 C 124.935 60.091,125.045 59.788,124.226 58.968 C 123.910 58.652,123.561 58.539,123.451 58.717 M133.400 95.755 C 132.647 96.652,132.664 97.482,133.420 96.739 C 133.790 96.376,134.027 95.899,133.946 95.679 C 133.857 95.435,133.644 95.464,133.400 95.755 M129.024 101.813 C 128.467 102.234,128.410 102.402,128.824 102.406 C 129.311 102.411,129.307 102.478,128.800 102.837 C 128.267 103.214,128.267 103.243,128.800 103.097 C 129.130 103.007,129.400 102.717,129.400 102.452 C 129.400 102.187,129.670 101.800,130.000 101.592 C 130.330 101.383,130.420 101.215,130.200 101.219 C 129.980 101.222,129.451 101.490,129.024 101.813 M221.400 199.755 C 220.647 200.652,220.664 201.482,221.420 200.739 C 221.790 200.376,222.027 199.899,221.946 199.679 C 221.857 199.435,221.644 199.464,221.400 199.755 M390.526 356.300 C 390.389 356.685,390.204 357.135,390.115 357.300 C 390.026 357.465,390.122 357.600,390.330 357.600 C 390.537 357.600,390.793 357.150,390.898 356.600 C 391.118 355.449,390.893 355.268,390.526 356.300 M42.400 390.391 C 42.400 390.565,42.845 390.792,43.388 390.896 C 43.931 390.999,44.294 390.952,44.194 390.790 C 43.928 390.360,42.400 390.020,42.400 390.391 " stroke="none" fill="#489cfc" fill-rule="evenodd"></path></g></svg>