<?xml version="1.0" encoding="UTF-8"?>
<svg version="1.1" xmlns="http://www.w3.org/2000/svg" width="450" height="450">
<path d="M0 0 C4.5204773 0.00516992 9.04094771 0.00033874 13.56142545 -0.00277233 C21.14468743 -0.0063811 28.72791008 -0.00169552 36.31116605 0.00790882 C44.99592564 0.01878336 53.6805912 0.01526239 62.36534852 0.00425601 C69.90937594 -0.00491084 77.45337557 -0.00605679 84.99740678 -0.00086665 C89.46475027 0.00220263 93.93205004 0.00280577 98.39939046 -0.00393963 C138.63029217 -0.05624357 178.38457285 0.2602647 214.46228909 20.26865101 C215.44713284 20.81134632 216.43197659 21.35404163 217.44666409 21.91318226 C244.26625979 37.84216178 260.0870424 65.48494623 267.85291409 94.86093616 C274.58910562 121.47644932 273.77207335 149.54406149 273.7309401 176.80636191 C273.72577018 181.32683921 273.73060137 185.84730963 273.73371243 190.36778736 C273.73732121 197.95104934 273.73263562 205.53427199 273.72303128 213.11752796 C273.71215675 221.80228756 273.71567771 230.48695311 273.72668409 239.17171043 C273.73585094 246.71573785 273.73699689 254.25973748 273.73180676 261.80376869 C273.72873747 266.27111218 273.72813434 270.73841195 273.73487973 275.20575237 C273.78718367 315.43665409 273.4706754 355.19093476 253.46228909 391.26865101 C252.91959378 392.25349476 252.37689847 393.23833851 251.81775784 394.25302601 C235.88877832 421.0726217 208.24599388 436.89340432 178.87000394 444.65927601 C152.17916863 451.41453102 124.02822503 450.57825072 96.68971753 450.53730202 C92.13807584 450.53213366 87.58644099 450.53696279 83.03479886 450.54007435 C75.40026237 450.54368318 67.76576493 450.53899698 60.13123441 450.5293932 C51.38397106 450.51851469 42.63680105 450.52204248 33.88953996 450.53304601 C26.29372398 450.54220791 18.69793561 450.54336126 11.10211587 450.53816867 C6.60294629 450.53509726 2.10382014 450.53450262 -2.3953464 450.54124165 C-51.39899313 450.60431808 -103.15579947 449.54439893 -140.35021091 412.95615101 C-176.92538281 375.71955394 -176.87993052 322.49075266 -176.80636191 273.7309401 C-176.80119199 269.21046281 -176.80602318 264.68999239 -176.80913424 260.16951466 C-176.81274302 252.58625268 -176.80805743 245.00303002 -176.79845309 237.41977406 C-176.78757856 228.73501446 -176.79109952 220.0503489 -176.8021059 211.36559159 C-176.81127275 203.82156416 -176.8124187 196.27756453 -176.80722857 188.73353332 C-176.80415928 184.26618984 -176.80355615 179.79889007 -176.81030154 175.33154964 C-176.86260548 135.10064793 -176.54609721 95.34636725 -156.53771091 59.26865101 C-155.99501559 58.28380726 -155.45232028 57.29896351 -154.89317966 56.28427601 C-138.96420013 29.46468032 -111.32141569 13.6438977 -81.94542575 5.87802601 C-55.3299126 -0.85816552 -27.26230042 -0.04113325 0 0 Z M-107.53771091 64.26865101 C-108.22091403 64.87193226 -108.90411716 65.47521351 -109.60802341 66.09677601 C-131.83248498 86.88467543 -134.26405735 118.7370203 -135.33476901 147.22687244 C-135.73692991 159.68639343 -135.68310819 172.15399329 -135.67203641 184.61861062 C-135.66944921 188.46211734 -135.67186754 192.30562206 -135.67342257 196.14912891 C-135.67522594 202.59432888 -135.67288651 209.03951727 -135.668082 215.48471546 C-135.66264064 222.86811598 -135.66440862 230.25148886 -135.6699084 237.63488871 C-135.67448964 244.04926951 -135.67506596 250.46364213 -135.67246974 256.87802404 C-135.67093448 260.67622226 -135.67063544 264.47440762 -135.67400622 268.27260494 C-137.597272 328.49254298 -137.597272 328.49254298 -112.53771091 381.26865101 C-112.00790622 381.87837757 -111.47810153 382.48810413 -110.93224216 383.11630726 C-95.39919209 399.90380792 -71.2043439 405.6846071 -49.26427341 407.37021351 C-48.22583789 407.45266315 -47.18740237 407.5351128 -46.11749911 407.62006092 C-35.32545613 408.43113025 -24.54367101 408.72880863 -13.72521091 408.89365101 C-12.66833072 408.91200001 -11.61145053 408.93034901 -10.52254367 408.94925404 C29.69139832 409.64217074 69.93629799 409.57672887 110.14978909 408.89365101 C111.17692014 408.87836353 112.20405118 408.86307606 113.26230741 408.84732533 C124.28252041 408.67538778 135.24750715 408.24064031 146.23572659 407.36240101 C147.68062718 407.2498447 147.68062718 407.2498447 149.15471768 407.13501453 C169.7174111 405.35388918 190.04894938 399.54350541 205.46228909 385.26865101 C206.08103909 384.75173695 206.69978909 384.23482288 207.33728909 383.70224476 C223.42733341 369.37204904 228.88324927 343.89928467 230.53650784 323.38974476 C230.62093137 322.35145527 230.70535489 321.31316578 230.7923367 320.24341297 C231.72963913 307.888 231.92875096 295.52926017 232.08728909 283.14365101 C232.12477021 280.59937846 232.16237041 278.05510765 232.20008206 275.51083851 C232.68824462 240.72782566 232.65844558 205.95059137 232.14289212 171.16806507 C232.1065864 168.70358006 232.07251012 166.23906091 232.04096341 163.77451038 C231.87834098 151.57338683 231.5361799 139.42278287 230.55603909 127.25693226 C230.44348279 125.83388279 230.44348279 125.83388279 230.32865262 124.38208485 C228.51770688 103.92246371 222.70608244 83.58362393 208.46228909 68.26865101 C207.91057034 67.63829945 207.35885159 67.00794788 206.79041409 66.35849476 C187.37777212 45.32813262 156.20945828 42.76766962 129.42835355 41.59599972 C116.02875665 41.06995682 102.62122138 41.12243944 89.21372342 41.1343255 C85.36754156 41.13691021 81.52136171 41.13449498 77.67517972 41.13293934 C71.2240034 41.13113507 64.77283864 41.13347764 58.32166409 41.13827991 C50.93089997 41.14371913 43.54016346 41.14195522 36.1494 41.13645351 C29.73079311 41.13187213 23.31219439 41.13129609 16.8935864 41.13389218 C13.09201982 41.13542765 9.2904661 41.13572587 5.48890042 41.13235569 C-54.75462332 39.19064593 -54.75462332 39.19064593 -107.53771091 64.26865101 Z " fill="#4298FF" transform="translate(176.53771090507507,-0.26865100860595703)"/>
<path d="M0 0 C1.27230469 1.02673828 1.27230469 1.02673828 2.5703125 2.07421875 C24.6091568 20.76232967 38.5832722 49.33519484 41 78 C42.63266701 109.75842058 34.51811839 139.28021915 14 164 C13.26523437 164.91007813 12.53046875 165.82015625 11.7734375 166.7578125 C-6.91204197 188.69294057 -35.37922582 202.58698445 -64 205 C-95.75842058 206.63266701 -125.28021915 198.51811839 -150 178 C-150.91007812 177.26523437 -151.82015625 176.53046875 -152.7578125 175.7734375 C-174.69294057 157.08795803 -188.58698445 128.62077418 -191 100 C-192.63266701 68.24157942 -184.51811839 38.71978085 -164 14 C-163.26523438 13.08992188 -162.53046875 12.17984375 -161.7734375 11.2421875 C-121.1648948 -36.42871045 -47.02498336 -38.91487753 0 0 Z M-131 39 C-144.50938459 55.05147309 -151.08311692 74.53473969 -149.78125 95.52734375 C-147.40204992 115.86492904 -138.24413214 133.7597728 -122.52734375 147.05859375 C-106.19558424 159.60401025 -87.35516977 165.39052103 -66.796875 163.53515625 C-45.99152516 160.60271497 -27.9046096 150.73265611 -15 134 C-2.85687381 117.12721415 1.89822068 97.56255842 -1 77 C-5.06390371 56.19618206 -15.76494936 39.24478221 -32.99609375 26.84375 C-64.66464763 6.06731808 -105.31337826 11.83662126 -131 39 Z " fill="#4298FF" transform="translate(300,136)"/>
<path d="M0 0 C6.50084898 6.32515036 8.84852761 13.23228026 9.3125 22.25 C8.70240957 30.29323305 5.36650289 36.57603795 -0.5 42 C-7.60747755 47.78213439 -13.04599878 48.88895544 -22.1796875 48.65625 C-29.49368473 47.80919464 -34.64598376 44.70669656 -39.625 39.375 C-45.91017006 31.37030228 -46.84872981 24.36284602 -45.6875 14.25 C-43.45300293 6.38068422 -38.30661294 0.87431178 -31.6875 -3.75 C-20.19987862 -8.91857106 -10.1533676 -6.61149518 0 0 Z " fill="#4298FF" transform="translate(363.6875,83.75)"/>
</svg>
