<?xml version="1.0" standalone="no"?>
<!DOCTYPE svg PUBLIC "-//W3C//DTD SVG 20010904//EN"
 "http://www.w3.org/TR/2001/REC-SVG-20010904/DTD/svg10.dtd">
<svg version="1.0" xmlns="http://www.w3.org/2000/svg"
 width="300.000000pt" height="249.000000pt" viewBox="0 0 300.000000 249.000000"
 preserveAspectRatio="xMidYMid meet">
<metadata>
Created by potrace 1.10, written by Peter Selinger 2001-2011
</metadata>
<g transform="translate(0.000000,249.000000) scale(0.100000,-0.100000)"
fill="#000000" stroke="none">
<path d="M1135 2468 c-28 -25 -27 -22 -157 -1070 l-43 -348 -30 -12 c-16 -6
-170 -71 -342 -145 -172 -73 -348 -147 -392 -163 -120 -44 -158 -66 -165 -95
-8 -31 16 -90 41 -103 10 -6 174 -54 363 -107 190 -53 599 -169 910 -257 311
-89 581 -162 600 -162 30 0 95 36 365 205 182 113 358 222 392 243 73 43 93
68 93 113 0 18 4 41 10 51 5 9 28 156 50 327 22 171 70 520 106 778 73 521 73
515 4 530 -37 8 -1264 173 -1540 207 -91 11 -182 22 -202 25 -29 4 -43 0 -63
-17z m740 -119 c368 -49 738 -99 820 -109 83 -11 162 -22 177 -26 43 -9 56
-35 47 -96 -53 -371 -87 -610 -133 -958 -69 -512 -66 -494 -91 -498 -14 -2
-1380 297 -1701 373 -19 4 -21 9 -14 47 4 24 45 339 91 701 l83 657 25 0 c14
0 327 -41 696 -91z m1081 -154 c4 -8 -21 -212 -55 -453 -88 -624 -151 -1082
-151 -1095 0 -4 -4 -7 -9 -7 -5 0 -7 8 -5 18 2 9 40 283 84 607 45 325 91 660
104 745 15 99 20 163 15 178 -5 14 -5 22 2 22 5 0 12 -7 15 -15z m-1923 -1195
c4 -3 -23 -19 -60 -33 -171 -67 -385 -163 -385 -172 0 -6 90 -33 199 -62 109
-28 315 -82 458 -119 143 -37 386 -100 539 -140 l280 -73 165 96 c91 53 193
113 227 134 l61 37 79 -19 c43 -10 89 -18 102 -19 39 0 24 -16 -70 -72 -51
-30 -190 -115 -308 -188 -355 -220 -372 -230 -399 -230 -15 0 -81 16 -148 35
-127 37 -798 223 -1333 370 -173 47 -323 90 -334 94 -14 5 29 27 165 84 101
42 299 125 439 185 250 107 293 119 323 92z m407 -91 c195 -44 508 -114 695
-155 186 -41 341 -76 343 -78 1 -2 -92 -59 -208 -126 l-211 -122 -587 152
c-323 84 -642 166 -709 183 -68 18 -123 34 -123 38 0 3 17 11 38 18 20 6 118
47 217 90 99 43 182 79 185 80 3 0 165 -35 360 -80z m-965 -398 c220 -62 603
-168 850 -238 582 -163 588 -164 602 -158 9 3 13 -7 13 -31 0 -45 11 -46 -250
30 -107 32 -508 145 -890 252 -382 106 -710 200 -727 209 -22 10 -33 22 -33
36 0 16 5 20 18 16 9 -3 197 -55 417 -116z m2265 64 c0 -19 -16 -35 -76 -76
-42 -28 -78 -49 -80 -46 -3 3 11 15 30 27 31 19 47 40 31 40 -17 0 -83 -51
-81 -64 0 -10 -108 -83 -298 -200 -164 -103 -300 -186 -302 -186 -2 0 -4 11
-4 25 0 18 10 31 38 48 20 13 154 95 296 183 143 87 300 185 350 216 50 32 92
57 94 58 1 0 2 -11 2 -25z"/>
<path d="M1216 2323 c-3 -16 -19 -136 -36 -268 -47 -368 -119 -907 -125 -932
-6 -27 -49 -16 475 -128 223 -48 558 -120 745 -161 186 -41 347 -72 357 -69
22 8 25 17 43 170 9 72 47 362 86 645 38 283 69 522 69 531 0 21 14 19 -700
118 -779 109 -871 121 -891 121 -11 0 -20 -10 -23 -27z m179 -18 c159 -21
1410 -197 1412 -199 1 0 -3 -23 -8 -51 -5 -27 -42 -304 -84 -615 -41 -311 -77
-584 -80 -607 -5 -31 -11 -43 -23 -43 -9 0 -149 29 -312 65 -562 123 -1180
255 -1194 255 -23 0 -26 13 -16 76 5 32 36 266 69 519 89 681 81 626 100 621
9 -3 70 -12 136 -21z"/>
<path d="M880 594 c-141 -80 -163 -94 -157 -100 3 -3 103 -32 223 -65 121 -33
226 -62 235 -64 8 -3 76 31 150 76 150 91 144 87 137 95 -5 5 -454 124 -468
124 -3 0 -57 -30 -120 -66z m344 -13 c103 -28 190 -52 192 -54 5 -5 -214 -137
-228 -137 -8 0 -343 89 -401 106 -13 4 14 25 100 74 65 37 125 66 133 64 8 -2
100 -26 204 -53z"/>
</g>
</svg>
