<?xml version="1.0" encoding="UTF-8"?>
<svg version="1.1" xmlns="http://www.w3.org/2000/svg" width="450" height="450">
<path d="M0 0 C3.5141094 0.00477186 7.02816618 -0.00781337 10.54225814 -0.01801741 C17.40950501 -0.03513325 24.27666008 -0.03606044 31.14392272 -0.03080451 C36.73126674 -0.02674776 42.31858383 -0.02822414 47.90592659 -0.03355277 C48.7039762 -0.03430119 49.50202581 -0.03504961 50.32425874 -0.03582071 C51.94598984 -0.03735234 53.56772093 -0.03889069 55.18945201 -0.04043568 C70.36668957 -0.05413482 85.54387545 -0.04874145 100.7211118 -0.03725047 C114.57302129 -0.02732258 128.42479711 -0.04025567 142.27668599 -0.06418466 C156.53685165 -0.08863127 170.79695519 -0.09816979 185.05714136 -0.09153193 C193.04830151 -0.08805181 201.03935897 -0.09019141 209.03050315 -0.10778296 C215.83363445 -0.12257483 222.63659076 -0.12305002 229.43971888 -0.10571205 C232.90321251 -0.09725631 236.36639448 -0.09491732 239.82987106 -0.1103636 C257.84160496 -0.17391923 274.4976106 0.31980067 290.91931808 8.59433305 C291.71281662 8.98451616 292.50631515 9.37469926 293.3238591 9.7767061 C313.58057634 20.04002708 329.22724632 37.11187203 338.04431808 57.96933305 C338.45001022 58.92199052 338.45001022 58.92199052 338.86389816 59.8938936 C344.84195919 75.06168394 344.55044451 90.24627008 344.51365113 106.30001497 C344.50887927 109.81412438 344.5214645 113.32818115 344.53166854 116.84227312 C344.54878438 123.70951998 344.54971158 130.57667506 344.54445564 137.4439377 C344.5403989 143.03128172 344.54187527 148.61859881 344.5472039 154.20594156 C344.54795232 155.00399117 344.54870074 155.80204078 344.54947184 156.62427371 C344.55100347 158.24600481 344.55254182 159.8677359 344.55408681 161.48946699 C344.56778595 176.66670454 344.56239258 191.84389042 344.5509016 207.02112677 C344.54097371 220.87303626 344.55390681 234.72481208 344.57783579 248.57670096 C344.60228241 262.83686662 344.61182092 277.09697017 344.60518306 291.35715634 C344.60170294 299.34831648 344.60384255 307.33937395 344.62143409 315.33051813 C344.63622597 322.13364943 344.63670115 328.93660573 344.61936318 335.73973385 C344.61090745 339.20322748 344.60856845 342.66640945 344.62401474 346.12988603 C344.68757036 364.14161993 344.19385046 380.79762557 335.91931808 397.21933305 C335.33404342 398.40958086 335.33404342 398.40958086 334.73694503 399.62387407 C324.47362405 419.88059131 307.40177911 435.52726129 286.54431808 444.34433305 C285.9092131 444.61479448 285.27410812 444.8852559 284.61975753 445.16391313 C269.45196719 451.14197416 254.26738105 450.85045948 238.21363616 450.81366611 C234.69952676 450.80889425 231.18546998 450.82147947 227.67137802 450.83168352 C220.80413115 450.84879935 213.93697608 450.84972655 207.06971344 450.84447061 C201.48236942 450.84041387 195.89505233 450.84189024 190.30770957 450.84721887 C189.50965996 450.84796729 188.71161035 450.84871572 187.88937742 450.84948682 C186.26764632 450.85101844 184.64591523 450.85255679 183.02418415 450.85410178 C167.84694659 450.86780092 152.66976071 450.86240755 137.49252436 450.85091657 C123.64061487 450.84098868 109.78883905 450.85392178 95.93695017 450.87785076 C81.67678451 450.90229738 67.41668097 450.9118359 53.1564948 450.90519804 C45.16533465 450.90171791 37.17427719 450.90385752 29.18313301 450.92144907 C22.38000171 450.93624094 15.5770454 450.93671612 8.77391728 450.91937815 C5.31042365 450.91092242 1.84724168 450.90858342 -1.6162349 450.92402971 C-19.6279688 450.98758533 -36.28397444 450.49386544 -52.70568192 442.21933305 C-53.49918046 441.82914995 -54.29267899 441.43896684 -55.11022294 441.03696001 C-75.36694018 430.77363902 -91.01361016 413.70179408 -99.83068192 392.84433305 C-100.10114335 392.20922807 -100.37160477 391.57412309 -100.650262 390.91977251 C-106.62832303 375.75198216 -106.33680835 360.56739602 -106.30001497 344.51365113 C-106.29524311 340.99954173 -106.30782834 337.48548496 -106.31803238 333.97139299 C-106.33514822 327.10414612 -106.33607542 320.23699105 -106.33081948 313.36972841 C-106.32676274 307.78238439 -106.32823911 302.1950673 -106.33356774 296.60772455 C-106.33431616 295.80967494 -106.33506458 295.01162532 -106.33583568 294.18939239 C-106.33736731 292.56766129 -106.33890566 290.9459302 -106.34045065 289.32419912 C-106.35414979 274.14696156 -106.34875642 258.96977569 -106.33726544 243.79253934 C-106.32733755 229.94062985 -106.34027065 216.08885402 -106.36419963 202.23696514 C-106.38864625 187.97679949 -106.39818476 173.71669594 -106.39154691 159.45650977 C-106.38806678 151.46534962 -106.39020639 143.47429216 -106.40779793 135.48314798 C-106.42258981 128.68001668 -106.42306499 121.87706038 -106.40572702 115.07393225 C-106.39727129 111.61043862 -106.39493229 108.14725665 -106.41037858 104.68378007 C-106.4739342 86.67204618 -105.9802143 70.01604053 -97.70568192 53.59433305 C-97.31549881 52.80083452 -96.92531571 52.00733598 -96.52330887 51.18979204 C-86.25998789 30.9330748 -69.18814295 15.28640481 -48.33068192 6.46933305 C-47.69557694 6.19887163 -47.06047196 5.9284102 -46.40612137 5.64975297 C-31.23833103 -0.32830805 -16.05374489 -0.03679338 0 0 Z M-9.42443192 72.39120805 C-16.03287495 81.46024157 -17.10893487 90.52186737 -15.89318192 101.40683305 C-15.02757953 104.80154185 -13.77840743 107.46705952 -11.89318192 110.40683305 C-11.48068192 111.10163774 -11.06818192 111.79644243 -10.64318192 112.5123018 C-6.17288614 119.28124399 0.44927044 123.57575656 8.23181808 125.78183305 C17.75991881 127.31862349 26.33015715 126.3857857 34.35681808 120.65683305 C42.14897957 114.24715183 47.33416827 107.27395533 48.48963058 97.0044893 C48.81825597 86.91568986 46.92208842 79.56407779 40.60681808 71.65683305 C33.73786301 64.54796962 26.04611838 60.85724594 16.10681808 60.65683305 C6.17804306 60.83364847 -2.80579591 64.9290204 -9.42443192 72.39120805 Z M-11.89318192 150.40683305 C-11.89318192 218.38683305 -11.89318192 286.36683305 -11.89318192 356.40683305 C6.58681808 356.40683305 25.06681808 356.40683305 44.10681808 356.40683305 C44.10681808 288.42683305 44.10681808 220.44683305 44.10681808 150.40683305 C25.62681808 150.40683305 7.14681808 150.40683305 -11.89318192 150.40683305 Z M82.10681808 150.40683305 C82.10681808 218.38683305 82.10681808 286.36683305 82.10681808 356.40683305 C100.25681808 356.40683305 118.40681808 356.40683305 137.10681808 356.40683305 C137.14420089 348.62862993 137.1815837 340.8504268 137.22009933 332.83652055 C137.25040142 327.88728031 137.28156406 322.93807506 137.31580245 317.9888643 C137.36997816 310.14594677 137.42109391 302.30309845 137.45325363 294.46005571 C137.4794031 288.13162204 137.51988723 281.80342284 137.57000434 275.47513521 C137.58659458 273.06965509 137.59815739 270.6641345 137.60443199 268.25860536 C137.71285992 230.48589129 137.71285992 230.48589129 150.23181808 216.53183305 C158.13795949 209.33159712 167.9084455 206.03983198 178.42713058 206.19589555 C187.45443609 206.90649978 195.6149953 210.66490878 201.86072433 217.25839555 C210.34871136 227.93751708 212.39809003 239.67114746 212.42566574 252.98520219 C212.44073417 254.66966447 212.44073417 254.66966447 212.45610702 256.38815629 C212.48681614 260.07276244 212.50394013 263.75729633 212.52088058 267.4419893 C212.53960208 270.00746086 212.55917622 272.57292633 212.57956588 275.13838518 C212.62556334 281.18356697 212.66300851 287.22874233 212.69623876 293.27400285 C212.73835028 300.83852549 212.79367046 308.40294445 212.84900558 315.96737993 C212.94755447 329.44714045 213.02626509 342.92692633 213.10681808 356.40683305 C231.58681808 356.40683305 250.06681808 356.40683305 269.10681808 356.40683305 C269.04373386 338.70735181 268.96837391 321.00806343 268.87110317 303.30874288 C268.82631459 295.08892994 268.78686189 286.8691587 268.76038253 278.64926469 C268.73726418 271.47705812 268.70371468 264.30498539 268.65811652 257.13288528 C268.63436889 253.34233112 268.61552026 249.55190798 268.60920417 245.76128137 C268.56360294 221.6265198 268.30548576 198.07222067 254.10681808 177.40683305 C253.60666183 176.6488643 253.10650558 175.89089555 252.59119308 175.10995805 C243.06952555 161.70566881 228.00404481 154.20089108 212.10681808 151.40683305 C192.05665604 148.74958266 171.74131366 152.5250505 155.10681808 164.40683305 C148.91741635 169.35798034 143.19354219 174.53458237 139.10681808 181.40683305 C139.10681808 182.06683305 139.10681808 182.72683305 139.10681808 183.40683305 C138.44681808 183.40683305 137.78681808 183.40683305 137.10681808 183.40683305 C137.10681808 172.51683305 137.10681808 161.62683305 137.10681808 150.40683305 C118.95681808 150.40683305 100.80681808 150.40683305 82.10681808 150.40683305 Z " fill="#4298FF" transform="translate(105.89318192005157,-0.40683305263519287)"/>
</svg>
