<?xml version="1.0" encoding="UTF-8"?>
<svg version="1.1" xmlns="http://www.w3.org/2000/svg" width="512" height="512">
<path d="M0 0 C3.55520395 3.96861642 6.34818752 7.98829231 9.046875 12.6015625 C9.59939941 13.53980865 9.59939941 13.53980865 10.16308594 14.49700928 C10.95263795 15.83882685 11.73980841 17.18204817 12.52478027 18.52655029 C14.63072356 22.13342665 16.75386387 25.73016965 18.875 29.328125 C19.3056073 30.05957733 19.7362146 30.79102966 20.17987061 31.54464722 C23.95899158 37.95492225 27.8190055 44.31366641 31.7019043 50.66143799 C38.33526011 61.50650347 44.79040606 72.43802981 51.09277344 83.47802734 C53.9612316 88.49903979 56.8579226 93.4716387 60.00927734 98.32128906 C63.19903471 103.72611205 63.51037396 109.03928591 62 115 C60.31035745 119.01085773 58.26426523 122.80304146 56.1875 126.625 C55.60363525 127.72312012 55.01977051 128.82124023 54.41821289 129.95263672 C52.62728295 133.31017712 50.81755949 136.65681026 49 140 C48.47341797 140.969375 47.94683594 141.93875 47.40429688 142.9375 C45.91814056 145.66819238 44.42859402 148.39700112 42.9375 151.125 C41.46974721 153.81125527 40.00232812 156.49768645 38.53662109 159.18505859 C37.46385864 161.15025579 36.38845204 163.11401089 35.31103516 165.07666016 C33.60895776 168.18904398 31.92751506 171.31182252 30.25 174.4375 C29.72398193 175.39092285 29.19796387 176.3443457 28.65600586 177.32666016 C24.94342751 184.27075764 24.94342751 184.27075764 25 192 C28.49028361 199.48806363 34.61467184 205.04022867 40.38647461 210.7746582 C41.44212343 211.83437875 42.49713443 212.89473498 43.55155945 213.95567322 C46.3999821 216.81770039 49.25772527 219.67024333 52.11772227 222.52069879 C55.11697221 225.51232042 58.10885843 228.51129236 61.10194397 231.50907898 C66.12597694 236.5385586 71.15627701 241.56170485 76.19018555 246.58129883 C82.00405419 252.37882533 87.80701283 258.18710391 93.6044578 264.00105029 C98.59186753 269.00208478 103.58511319 273.99723589 108.58326155 278.98753804 C111.5643856 281.96399332 114.54346521 284.94241883 117.5172863 287.92617226 C120.3119284 290.72949673 123.11383901 293.52534935 125.92146492 296.31566811 C126.94875617 297.33900209 127.97352068 298.36488 128.99551392 299.3935051 C130.39405578 300.80028146 131.80281917 302.1968738 133.21202087 303.5929718 C133.99642516 304.37624501 134.78082945 305.15951822 135.58900356 305.96652699 C139.29793287 309.09469737 142.62455416 310.8488457 147.45678711 311.37988281 C151.51044939 310.94527257 154.09379178 309.82620571 157.69140625 307.921875 C158.31006058 307.59923172 158.9287149 307.27658844 159.56611633 306.94416809 C161.57250306 305.89318572 163.56733025 304.82210046 165.5625 303.75 C166.95596129 303.01444062 168.35001028 302.27999358 169.74462891 301.54663086 C173.84129936 299.38572722 177.92304174 297.19782859 182 295 C183.64476318 294.11368896 183.64476318 294.11368896 185.32275391 293.20947266 C193.18136257 288.95947385 201.02098944 284.67570443 208.80859375 280.296875 C210.30966026 279.46832308 211.8109497 278.64017485 213.3125 277.8125 C213.96395996 277.43746338 214.61541992 277.06242676 215.28662109 276.67602539 C220.61138732 273.76866725 226.12097589 271.91341648 232.15625 273.60400391 C234.52911628 274.60605892 236.7461215 275.7526019 239 277 C239.88896973 277.48388184 240.77793945 277.96776367 241.69384766 278.46630859 C244.75540954 280.17074195 247.78575802 281.92199667 250.8125 283.6875 C251.94196045 284.34250488 253.0714209 284.99750977 254.23510742 285.67236328 C263.66216149 291.15516322 272.98169529 296.81070473 282.28613281 302.49829102 C292.16427093 308.53002342 302.13489841 314.39611968 312.14575195 320.20458984 C336.44957191 334.34871574 336.44957191 334.34871574 339 342 C340.44461461 355.00153148 331.36911167 369.23592878 326.25 380.9375 C322.04750143 390.54803322 317.88330763 400.14293399 314.12402344 409.93774414 C307.67337182 426.64742425 298.0529536 435.02026415 281.87841797 442.59301758 C275.46698116 445.42998618 268.91597378 446.90888763 262 448 C260.92234375 448.18304688 259.8446875 448.36609375 258.734375 448.5546875 C212.20564835 454.10309214 164.69669779 432.58116394 126 409 C125.18740723 408.5064502 124.37481445 408.01290039 123.53759766 407.50439453 C100.49377677 393.42333237 78.3922511 377.48947998 58.08203125 359.6796875 C55.13992161 357.10037958 52.11228202 354.63888095 49.0625 352.1875 C45.41304346 349.22631816 42.03380244 346.16758834 38.78050232 342.77955627 C37.01223501 341.01222851 35.177969 339.38902517 33.27758789 337.76538086 C29.0967897 334.13064562 25.15620211 330.30103274 21.24609375 326.37890625 C20.18927147 325.32351906 20.18927147 325.32351906 19.11109924 324.24681091 C17.63346633 322.76985352 16.15707543 321.29165258 14.68188477 319.81225586 C12.44333519 317.56834915 10.19949527 315.32983296 7.95507812 313.09179688 C6.51009596 311.64615382 5.06542408 310.20020055 3.62109375 308.75390625 C2.96048447 308.0953212 2.29987518 307.43673615 1.61924744 306.75819397 C-2.24596479 302.87377458 -5.93085643 298.88064592 -9.50856018 294.72955322 C-11.42230757 292.5102696 -13.39781801 290.35027953 -15.375 288.1875 C-20.10576093 282.93819023 -24.56997052 277.50376055 -29 272 C-29.92538408 270.86686303 -30.85118393 269.73406551 -31.77734375 268.6015625 C-39.58145391 259.01128209 -46.86635459 249.09626452 -54 239 C-54.47824219 238.32855957 -54.95648438 237.65711914 -55.44921875 236.96533203 C-87.72671514 191.56662649 -120.7282488 131.86178123 -112.1796875 74.04956055 C-109.36767177 57.87486105 -102.63151331 39.10033982 -89 29 C-81.62398501 24.81623616 -73.71898706 21.74004978 -65.875 18.5625 C-53.24008957 13.40851544 -40.73000546 7.99590746 -28.25927734 2.45727539 C-27.60249496 2.1669342 -26.94571259 1.87659302 -26.26902771 1.57745361 C-24.48868551 0.7902745 -22.70998145 -0.00060659 -20.93139648 -0.79174805 C-13.69576248 -3.7741044 -6.72484957 -4.48323305 0 0 Z " fill="#01fff4" transform="translate(143,33)"/>
</svg>
